STARTFONT 2.1
FONT -FontForge-Bungee Shade-Book-R-Normal--18-180-72-72-P-154-ISO10646-1
SIZE 18 72 72
FONTBOUNDINGBOX 46 48 -11 -17
COMMENT "Generated by fontforge, http://fontforge.sourceforge.net"
COMMENT "Copyright 2008 The Bungee Project Authors (david@djr.com)"
STARTPROPERTIES 39
FOUNDRY "FontForge"
FAMILY_NAME "Bungee Shade"
WEIGHT_NAME "Book"
SLANT "R"
SETWIDTH_NAME "Normal"
ADD_STYLE_NAME ""
PIXEL_SIZE 18
POINT_SIZE 180
RESOLUTION_X 72
RESOLUTION_Y 72
SPACING "P"
AVERAGE_WIDTH 154
CHARSET_REGISTRY "ISO10646"
CHARSET_ENCODING "1"
FONTNAME_REGISTRY ""
CHARSET_COLLECTIONS "ISO8859-2 ISO8859-9 ISO8859-4 ISO10646-1"
FONT_NAME "BungeeShade-Regular"
FACE_NAME "Bungee Shade"
COPYRIGHT "Copyright 2008 The Bungee Project Authors (david@djr.com)"
FONT_VERSION "1.000;PS 1.0;hotconv 1.0.72;makeotf.lib2.5.5900"
FONT_ASCENT 15
FONT_DESCENT 3
UNDERLINE_POSITION 0
UNDERLINE_THICKNESS 0
X_HEIGHT 13
CAP_HEIGHT 13
RAW_ASCENT 860
RAW_DESCENT 140
NORM_SPACE 6
RELATIVE_WEIGHT 40
RELATIVE_SETWIDTH 50
SUPERSCRIPT_X 0
SUPERSCRIPT_Y 6
SUPERSCRIPT_SIZE 10
SUBSCRIPT_X 0
SUBSCRIPT_Y 1
SUBSCRIPT_SIZE 10
AVG_LOWERCASE_WIDTH 147
AVG_UPPERCASE_WIDTH 150
ENDPROPERTIES
CHARS 1065
STARTCHAR space
ENCODING 32
SWIDTH 325 0
DWIDTH 6 0
BBX 1 1 0 0
BITMAP
00
ENDCHAR
STARTCHAR exclam
ENCODING 33
SWIDTH 524 0
DWIDTH 9 0
BBX 7 16 1 -2
BITMAP
3E
62
EA
EA
EA
EA
EA
E2
FE
FE
62
6A
E2
E2
FC
F8
ENDCHAR
STARTCHAR quotedbl
ENCODING 34
SWIDTH 746 0
DWIDTH 13 0
BBX 13 9 0 5
BITMAP
3FF8
6188
E5A8
E5A8
E5A8
E5A8
6188
7FF0
7BE0
ENDCHAR
STARTCHAR numbersign
ENCODING 35
SWIDTH 850 0
DWIDTH 15 0
BBX 15 16 0 -2
BITMAP
07BC
0864
1ACA
2212
67FA
6212
7AD4
7AD4
2212
6FFA
E422
F5AC
F188
7388
7DF0
7BC0
ENDCHAR
STARTCHAR dollar
ENCODING 36
SWIDTH 750 0
DWIDTH 14 0
BBX 13 20 0 -4
BITMAP
03C0
0420
0898
1088
23E8
6408
65F0
E430
E708
E0E8
7828
7FA8
2028
27C8
6088
E090
FC20
7C40
0F80
0F00
ENDCHAR
STARTCHAR percent
ENCODING 37
SWIDTH 1131 0
DWIDTH 20 0
BBX 20 16 0 -2
BITMAP
1F9E00
266200
696A00
EF6C00
EF4C00
EB57E0
E65410
F0D5D0
7F96B0
7DAEB0
01AEB0
01AE30
038DD0
031E20
03FFC0
038F80
ENDCHAR
STARTCHAR ampersand
ENCODING 38
SWIDTH 866 0
DWIDTH 16 0
BBX 16 16 0 -2
BITMAP
07F0
0810
11D0
3210
74E0
72C0
3F7F
286D
69E9
E9EA
E80A
E7F2
E004
F808
7FF0
3FE0
ENDCHAR
STARTCHAR quotesingle
ENCODING 39
SWIDTH 456 0
DWIDTH 8 0
BBX 7 9 1 5
BITMAP
7E
42
CA
CA
CA
CA
C2
FC
F8
ENDCHAR
STARTCHAR parenleft
ENCODING 40
SWIDTH 529 0
DWIDTH 10 0
BBX 9 19 0 -3
BITMAP
0780
1880
2680
6480
6900
E900
E900
E900
E900
E900
E900
E900
E900
E980
E480
F280
7880
7F00
3E00
ENDCHAR
STARTCHAR parenright
ENCODING 41
SWIDTH 529 0
DWIDTH 10 0
BBX 9 19 0 -3
BITMAP
1E00
2100
6E80
E280
FA80
FA80
3A80
3A80
3A80
3A80
3A80
3A80
3A80
2280
2280
6C80
E300
FC00
F800
ENDCHAR
STARTCHAR asterisk
ENCODING 42
SWIDTH 818 0
DWIDTH 15 0
BBX 13 13 1 1
BITMAP
07C0
0C40
3D70
2348
4D28
C3C8
FAB0
F2A0
1550
3110
7BA0
7FC0
3300
ENDCHAR
STARTCHAR plus
ENCODING 43
SWIDTH 834 0
DWIDTH 15 0
BBX 13 14 1 -1
BITMAP
0380
0440
0D40
1D40
3D78
4108
CFE8
C108
FD70
FD60
1C40
1C40
1F80
1E00
ENDCHAR
STARTCHAR comma
ENCODING 44
SWIDTH 484 0
DWIDTH 9 0
BBX 7 10 1 -4
BITMAP
3E
42
DE
C6
C6
FE
DA
C4
F8
F0
ENDCHAR
STARTCHAR hyphen
ENCODING 45
SWIDTH 520 0
DWIDTH 9 0
BBX 9 7 0 3
BITMAP
1F80
2080
6E80
E080
E080
FF00
FE00
ENDCHAR
STARTCHAR period
ENCODING 46
SWIDTH 484 0
DWIDTH 9 0
BBX 7 8 1 -2
BITMAP
3E
42
CA
CA
C2
C2
FC
F8
ENDCHAR
STARTCHAR slash
ENCODING 47
SWIDTH 487 0
DWIDTH 9 0
BBX 9 19 0 -3
BITMAP
0700
0880
1A80
3280
3280
3280
3500
3500
7500
7500
6500
6500
6500
6A00
6A00
E200
E200
FC00
F800
ENDCHAR
STARTCHAR zero
ENCODING 48
SWIDTH 827 0
DWIDTH 15 0
BBX 13 16 1 -2
BITMAP
1FF0
27C8
4828
CB98
CB98
CB98
CB98
CB98
CB98
CB98
C828
C7C8
E008
F830
7FC0
3F80
ENDCHAR
STARTCHAR one
ENCODING 49
SWIDTH 701 0
DWIDTH 13 0
BBX 12 16 0 -2
BITMAP
1FC0
2040
6740
6140
7D40
7D40
7D40
1D40
1D40
1D40
1D30
2110
67F0
E010
FFE0
FFC0
ENDCHAR
STARTCHAR two
ENCODING 50
SWIDTH 739 0
DWIDTH 13 0
BBX 13 16 0 -2
BITMAP
1FF0
2008
67C8
7028
7FA8
7C28
10C8
2708
6830
68C0
E9F0
E7E8
E008
E008
FFF0
FFE0
ENDCHAR
STARTCHAR three
ENCODING 51
SWIDTH 737 0
DWIDTH 13 0
BBX 13 16 0 -2
BITMAP
3FE0
2010
6790
E050
FF50
F850
13D0
3028
3FA8
3FA8
2028
67C8
E008
E010
FFE0
7F80
ENDCHAR
STARTCHAR four
ENCODING 52
SWIDTH 809 0
DWIDTH 15 0
BBX 13 16 1 -2
BITMAP
3EF8
4388
CBA8
CBA8
CBA8
CBA8
C9A8
C828
C7E8
E028
F028
FFA8
7F88
0388
03F0
03E0
ENDCHAR
STARTCHAR five
ENCODING 53
SWIDTH 747 0
DWIDTH 13 0
BBX 12 16 1 -2
BITMAP
3FF0
4010
CFD0
C810
CBE0
C820
CF90
C050
FF50
FF50
C050
CF90
C010
C020
FFC0
FF00
ENDCHAR
STARTCHAR six
ENCODING 54
SWIDTH 793 0
DWIDTH 14 0
BBX 13 16 1 -2
BITMAP
1FF0
27D0
4810
C810
CBE0
C810
CFC8
C828
CBA8
CBA8
C828
C828
E7C8
F830
7FC0
3F00
ENDCHAR
STARTCHAR seven
ENCODING 55
SWIDTH 727 0
DWIDTH 13 0
BBX 13 16 0 -2
BITMAP
3FF8
6008
EFC8
E028
FF28
FF28
0428
08C8
1310
3220
32C0
3280
3080
3080
3F00
3C00
ENDCHAR
STARTCHAR eight
ENCODING 56
SWIDTH 811 0
DWIDTH 15 0
BBX 14 16 0 -2
BITMAP
07F0
1BE8
1414
35D4
75D4
7C18
73E4
2414
69CC
69CC
E80C
E414
F3E4
7C18
7FE0
1FC0
ENDCHAR
STARTCHAR nine
ENCODING 57
SWIDTH 793 0
DWIDTH 14 0
BBX 14 16 0 -2
BITMAP
0FF0
13E8
2414
6814
6994
E994
E414
E3F4
F014
7F94
3014
13E4
3008
3010
3FE0
3F80
ENDCHAR
STARTCHAR colon
ENCODING 58
SWIDTH 484 0
DWIDTH 9 0
BBX 7 15 1 -2
BITMAP
3E
42
C2
CA
CA
C2
FC
FE
42
CA
CA
C2
C2
FC
F8
ENDCHAR
STARTCHAR semicolon
ENCODING 59
SWIDTH 484 0
DWIDTH 9 0
BBX 7 17 1 -4
BITMAP
3E
42
C2
CA
CA
C2
FC
FE
42
DE
C6
C6
FE
DA
C4
F8
F0
ENDCHAR
STARTCHAR less
ENCODING 60
SWIDTH 814 0
DWIDTH 15 0
BBX 12 14 1 -1
BITMAP
0030
01D0
0E30
11D0
2610
68E0
EBC0
E860
E710
F0F0
FE10
7FD0
0FF0
01C0
ENDCHAR
STARTCHAR equal
ENCODING 61
SWIDTH 834 0
DWIDTH 15 0
BBX 13 12 1 0
BITMAP
3FF8
4008
CFE8
C008
FFF8
FFF0
E008
4008
CFE8
C008
FFF0
FFE0
ENDCHAR
STARTCHAR greater
ENCODING 62
SWIDTH 814 0
DWIDTH 15 0
BBX 13 13 1 0
BITMAP
3800
6700
ECE0
E3D0
E028
FC28
3FA8
1C68
2388
6C30
E0C0
E700
F800
ENDCHAR
STARTCHAR question
ENCODING 63
SWIDTH 756 0
DWIDTH 14 0
BBX 13 16 0 -2
BITMAP
3FF0
6008
EFC8
E028
FFA8
F828
10E8
3B08
3830
3FC0
3080
3280
3080
3080
3F00
3E00
ENDCHAR
STARTCHAR at
ENCODING 64
SWIDTH 967 0
DWIDTH 17 0
BBX 16 19 1 -3
BITMAP
07F8
1804
27FE
4FFB
D20F
D5E7
DA17
DAD7
DAD7
DAD7
DAD7
DA1B
D9FD
DC06
F7F8
E9F8
FFF8
7FF0
3FE0
ENDCHAR
STARTCHAR A
ENCODING 65
SWIDTH 830 0
DWIDTH 15 0
BBX 13 16 1 -2
BITMAP
0FE0
1010
3390
2448
6528
69A8
4BA8
C818
CFE8
C818
C818
CB98
C388
C388
FDF0
F1E0
ENDCHAR
STARTCHAR B
ENCODING 66
SWIDTH 825 0
DWIDTH 15 0
BBX 14 16 1 -2
BITMAP
3FE0
4010
CFC8
CBA8
CBA8
C830
CFE8
C814
CB94
CB94
C814
CFE4
C008
C010
FFE0
FFC0
ENDCHAR
STARTCHAR C
ENCODING 67
SWIDTH 728 0
DWIDTH 13 0
BBX 12 16 1 -2
BITMAP
1FF0
2010
47D0
C810
CBE0
CBC0
CA00
CA00
CA00
CA00
C9E0
C7D0
E010
F010
7FE0
3FC0
ENDCHAR
STARTCHAR D
ENCODING 68
SWIDTH 846 0
DWIDTH 15 0
BBX 14 16 1 -2
BITMAP
3FF0
4008
CFE4
C814
CB94
CB94
CB94
CB94
CB94
CB94
CB94
CFE4
C008
C010
FFE0
FF80
ENDCHAR
STARTCHAR E
ENCODING 69
SWIDTH 754 0
DWIDTH 14 0
BBX 12 16 1 -2
BITMAP
3FF0
4010
CFD0
C810
CBE0
C820
CFA0
C820
C820
CBC0
CBF0
CFD0
C010
C010
FFE0
FFC0
ENDCHAR
STARTCHAR F
ENCODING 70
SWIDTH 718 0
DWIDTH 13 0
BBX 12 16 1 -2
BITMAP
3FF0
4010
CFD0
C810
CBE0
CBC0
C820
CFA0
C820
C820
CBC0
CB00
C200
C200
FC00
F000
ENDCHAR
STARTCHAR G
ENCODING 71
SWIDTH 808 0
DWIDTH 15 0
BBX 13 16 1 -2
BITMAP
1FF0
2010
47D0
C810
CBE0
CBC0
CA78
CA88
CBA8
CBA8
C828
C7E8
E008
F008
7FF0
3FE0
ENDCHAR
STARTCHAR H
ENCODING 72
SWIDTH 859 0
DWIDTH 15 0
BBX 14 16 1 -2
BITMAP
3E7C
4284
CB94
CB94
CB94
C814
C814
CFF4
C814
CB94
CB94
CB94
C384
C384
FDF8
F1E0
ENDCHAR
STARTCHAR I
ENCODING 73
SWIDTH 705 0
DWIDTH 13 0
BBX 11 16 1 -2
BITMAP
7FE0
4020
CFA0
C220
F260
F240
F280
3280
3280
3280
3260
4FA0
C020
C020
FFC0
FF80
ENDCHAR
STARTCHAR J
ENCODING 74
SWIDTH 788 0
DWIDTH 14 0
BBX 13 16 0 -2
BITMAP
0078
0088
0198
0198
0198
0198
1F98
2198
6998
E998
E428
E3C8
F008
7810
7FE0
1F80
ENDCHAR
STARTCHAR K
ENCODING 75
SWIDTH 846 0
DWIDTH 15 0
BBX 14 16 1 -2
BITMAP
3E7C
4288
CB28
CB48
CB50
CA58
C884
CFE4
C814
CB94
CB94
CB94
C384
C384
FDF8
F1E0
ENDCHAR
STARTCHAR L
ENCODING 76
SWIDTH 795 0
DWIDTH 14 0
BBX 13 16 1 -2
BITMAP
3E00
4200
CA00
CA00
CA00
CA00
CA78
CA88
CBA8
CBA8
C828
CFE8
C008
C008
FFF0
FFE0
ENDCHAR
STARTCHAR M
ENCODING 77
SWIDTH 949 0
DWIDTH 17 0
BBX 15 16 1 -2
BITMAP
3E3E
4142
C94A
CC9A
CA2A
C94A
CA9A
CA2A
CA2A
CBEA
CB6A
CA6A
C262
C262
FC7C
F078
ENDCHAR
STARTCHAR N
ENCODING 78
SWIDTH 853 0
DWIDTH 15 0
BBX 14 16 1 -2
BITMAP
3C7C
4284
C994
CC94
CA54
C914
C894
CA54
CB54
CB24
CB94
CB94
C384
C384
FDF8
F1E0
ENDCHAR
STARTCHAR O
ENCODING 79
SWIDTH 837 0
DWIDTH 15 0
BBX 13 16 1 -2
BITMAP
1FF0
27C8
4828
CB98
CB98
CB98
CB98
CB98
CB98
CB98
C828
C7C8
E008
F830
7FC0
3F80
ENDCHAR
STARTCHAR P
ENCODING 80
SWIDTH 782 0
DWIDTH 14 0
BBX 13 16 1 -2
BITMAP
3FF0
4008
CFC8
C828
CBA8
CBA8
CBA8
C828
CFC8
C810
CBE0
CB80
C200
C200
FC00
F000
ENDCHAR
STARTCHAR Q
ENCODING 81
SWIDTH 837 0
DWIDTH 15 0
BBX 13 18 1 -4
BITMAP
1FF0
2008
47C8
C828
CB98
CB98
CB98
CB98
CB98
CB98
CB98
C828
E7C8
F110
FC20
7C40
1F80
1F00
ENDCHAR
STARTCHAR R
ENCODING 82
SWIDTH 843 0
DWIDTH 15 0
BBX 14 16 1 -2
BITMAP
3FF0
4008
CFC8
C828
CBA8
CB28
C838
CFE4
C814
C814
CBD4
CBD4
C3C4
C3C4
FDF8
F1F0
ENDCHAR
STARTCHAR S
ENCODING 83
SWIDTH 750 0
DWIDTH 14 0
BBX 13 16 0 -2
BITMAP
0FF8
1008
23E8
6408
65F0
E430
E708
E0E8
7828
7FA8
2028
27C8
6008
E010
FFE0
7F80
ENDCHAR
STARTCHAR T
ENCODING 84
SWIDTH 756 0
DWIDTH 14 0
BBX 14 16 0 -2
BITMAP
3FFC
6004
EFF4
E104
FD38
FD30
1D20
1D20
1D20
1D20
1D20
1D20
1C20
1C20
1FC0
1F00
ENDCHAR
STARTCHAR U
ENCODING 85
SWIDTH 846 0
DWIDTH 15 0
BBX 14 16 1 -2
BITMAP
3E7C
4284
CB94
CB94
CB94
CB94
CB94
CB94
CB94
C994
C824
C7C4
E008
F810
7FE0
3F80
ENDCHAR
STARTCHAR V
ENCODING 86
SWIDTH 830 0
DWIDTH 15 0
BBX 13 16 1 -2
BITMAP
7EF8
4288
CB98
CB98
CB98
CB98
CB98
C9A8
E928
E428
E450
F390
7010
7820
3FC0
3F80
ENDCHAR
STARTCHAR W
ENCODING 87
SWIDTH 931 0
DWIDTH 17 0
BBX 15 16 1 -2
BITMAP
3E3E
4262
CAEA
CAEA
CBEA
CA2A
CA2A
CAAA
C94A
CA2A
CAAA
E492
E1C2
F1C4
7FF8
79F0
ENDCHAR
STARTCHAR X
ENCODING 88
SWIDTH 837 0
DWIDTH 15 0
BBX 13 16 1 -2
BITMAP
3E78
4288
CB98
C998
E428
F450
F390
7450
2428
4928
CB98
CB98
C388
C388
FDF0
F1E0
ENDCHAR
STARTCHAR Y
ENCODING 89
SWIDTH 805 0
DWIDTH 14 0
BBX 14 16 0 -2
BITMAP
3E7C
61C4
E9D4
E9D4
E9D4
E494
E224
F228
79C8
7C90
3CA0
1CA0
0C20
0C20
0FC0
0F00
ENDCHAR
STARTCHAR Z
ENCODING 90
SWIDTH 760 0
DWIDTH 14 0
BBX 13 16 0 -2
BITMAP
1FF8
2008
67E8
6028
7F48
7E48
0490
0920
1240
2440
24F8
67F8
E008
E008
FFF0
FFE0
ENDCHAR
STARTCHAR bracketleft
ENCODING 91
SWIDTH 529 0
DWIDTH 10 0
BBX 9 19 0 -3
BITMAP
1F80
2080
6E80
E880
E900
E900
E900
E900
E900
E900
E900
E900
E900
E980
E880
E680
E080
FF00
FE00
ENDCHAR
STARTCHAR backslash
ENCODING 92
SWIDTH 487 0
DWIDTH 9 0
BBX 9 19 0 -3
BITMAP
1C00
2200
EA00
EA00
EA00
E500
E500
6500
7500
7500
7500
7500
7280
7280
3280
3880
3880
3F00
3E00
ENDCHAR
STARTCHAR bracketright
ENCODING 93
SWIDTH 529 0
DWIDTH 10 0
BBX 9 19 0 -3
BITMAP
1F80
2080
6E80
E280
FA80
FA80
3A80
3A80
3A80
3A80
3A80
3A80
3A80
2280
2280
6E80
E080
FF00
FE00
ENDCHAR
STARTCHAR asciicircum
ENCODING 94
SWIDTH 814 0
DWIDTH 15 0
BBX 14 13 0 1
BITMAP
07E0
0990
0A50
1A30
32A8
34A8
35A8
3594
65D4
61C4
63C4
FDF8
F0F0
ENDCHAR
STARTCHAR underscore
ENCODING 95
SWIDTH 834 0
DWIDTH 15 0
BBX 13 7 1 -4
BITMAP
3FF8
4008
CFE8
C008
C008
FFF0
FFE0
ENDCHAR
STARTCHAR grave
ENCODING 96
SWIDTH 600 0
DWIDTH 11 0
BBX 11 6 0 12
BITMAP
3FC0
6E20
E1A0
FE20
FFC0
1F00
ENDCHAR
STARTCHAR a
ENCODING 97
SWIDTH 830 0
DWIDTH 15 0
BBX 13 16 1 -2
BITMAP
0FE0
1010
3390
2448
6528
69A8
4BA8
C818
CFE8
C818
C818
CB98
C388
C388
FDF0
F1E0
ENDCHAR
STARTCHAR b
ENCODING 98
SWIDTH 825 0
DWIDTH 15 0
BBX 14 16 1 -2
BITMAP
3FE0
4010
CFC8
CBA8
CBA8
C830
CFE8
C814
CB94
CB94
C814
CFE4
C008
C010
FFE0
FFC0
ENDCHAR
STARTCHAR c
ENCODING 99
SWIDTH 728 0
DWIDTH 13 0
BBX 12 16 1 -2
BITMAP
1FF0
2010
47D0
C810
CBE0
CBC0
CA00
CA00
CA00
CA00
C9E0
C7D0
E010
F010
7FE0
3FC0
ENDCHAR
STARTCHAR d
ENCODING 100
SWIDTH 846 0
DWIDTH 15 0
BBX 14 16 1 -2
BITMAP
3FF0
4008
CFE4
C814
CB94
CB94
CB94
CB94
CB94
CB94
CB94
CFE4
C008
C010
FFE0
FF80
ENDCHAR
STARTCHAR e
ENCODING 101
SWIDTH 754 0
DWIDTH 14 0
BBX 12 16 1 -2
BITMAP
3FF0
4010
CFD0
C810
CBE0
C820
CFA0
C820
C820
CBC0
CBF0
CFD0
C010
C010
FFE0
FFC0
ENDCHAR
STARTCHAR f
ENCODING 102
SWIDTH 718 0
DWIDTH 13 0
BBX 12 16 1 -2
BITMAP
3FF0
4010
CFD0
C810
CBE0
CBC0
C820
CFA0
C820
C820
CBC0
CB00
C200
C200
FC00
F000
ENDCHAR
STARTCHAR g
ENCODING 103
SWIDTH 808 0
DWIDTH 15 0
BBX 13 16 1 -2
BITMAP
1FF0
2010
47D0
C810
CBE0
CBC0
CA78
CA88
CBA8
CBA8
C828
C7E8
E008
F008
7FF0
3FE0
ENDCHAR
STARTCHAR h
ENCODING 104
SWIDTH 859 0
DWIDTH 15 0
BBX 14 16 1 -2
BITMAP
3E7C
4284
CB94
CB94
CB94
C814
C814
CFF4
C814
CB94
CB94
CB94
C384
C384
FDF8
F1E0
ENDCHAR
STARTCHAR i
ENCODING 105
SWIDTH 705 0
DWIDTH 13 0
BBX 11 16 1 -2
BITMAP
7FE0
4020
CFA0
C220
F260
F240
F280
3280
3280
3280
3260
4FA0
C020
C020
FFC0
FF80
ENDCHAR
STARTCHAR j
ENCODING 106
SWIDTH 788 0
DWIDTH 14 0
BBX 13 16 0 -2
BITMAP
0078
0088
0198
0198
0198
0198
1F98
2198
6998
E998
E428
E3C8
F008
7810
7FE0
1F80
ENDCHAR
STARTCHAR k
ENCODING 107
SWIDTH 846 0
DWIDTH 15 0
BBX 14 16 1 -2
BITMAP
3E7C
4288
CB28
CB48
CB50
CA58
C884
CFE4
C814
CB94
CB94
CB94
C384
C384
FDF8
F1E0
ENDCHAR
STARTCHAR l
ENCODING 108
SWIDTH 795 0
DWIDTH 14 0
BBX 13 16 1 -2
BITMAP
3E00
4200
CA00
CA00
CA00
CA00
CA78
CA88
CBA8
CBA8
C828
CFE8
C008
C008
FFF0
FFE0
ENDCHAR
STARTCHAR m
ENCODING 109
SWIDTH 949 0
DWIDTH 17 0
BBX 15 16 1 -2
BITMAP
3E3E
4142
C94A
CC9A
CA2A
C94A
CA9A
CA2A
CA2A
CBEA
CB6A
CA6A
C262
C262
FC7C
F078
ENDCHAR
STARTCHAR n
ENCODING 110
SWIDTH 853 0
DWIDTH 15 0
BBX 14 16 1 -2
BITMAP
3C7C
4284
C994
CC94
CA54
C914
C894
CA54
CB54
CB24
CB94
CB94
C384
C384
FDF8
F1E0
ENDCHAR
STARTCHAR o
ENCODING 111
SWIDTH 837 0
DWIDTH 15 0
BBX 13 16 1 -2
BITMAP
1FF0
27C8
4828
CB98
CB98
CB98
CB98
CB98
CB98
CB98
C828
C7C8
E008
F830
7FC0
3F80
ENDCHAR
STARTCHAR p
ENCODING 112
SWIDTH 782 0
DWIDTH 14 0
BBX 13 16 1 -2
BITMAP
3FF0
4008
CFC8
C828
CBA8
CBA8
CBA8
C828
CFC8
C810
CBE0
CB80
C200
C200
FC00
F000
ENDCHAR
STARTCHAR q
ENCODING 113
SWIDTH 837 0
DWIDTH 15 0
BBX 13 18 1 -4
BITMAP
1FF0
2008
47C8
C828
CB98
CB98
CB98
CB98
CB98
CB98
CB98
C828
E7C8
F110
FC20
7C40
1F80
1F00
ENDCHAR
STARTCHAR r
ENCODING 114
SWIDTH 843 0
DWIDTH 15 0
BBX 14 16 1 -2
BITMAP
3FF0
4008
CFC8
C828
CBA8
CB28
C838
CFE4
C814
C814
CBD4
CBD4
C3C4
C3C4
FDF8
F1F0
ENDCHAR
STARTCHAR s
ENCODING 115
SWIDTH 750 0
DWIDTH 14 0
BBX 13 16 0 -2
BITMAP
0FF8
1008
23E8
6408
65F0
E430
E708
E0E8
7828
7FA8
2028
27C8
6008
E010
FFE0
7F80
ENDCHAR
STARTCHAR t
ENCODING 116
SWIDTH 756 0
DWIDTH 14 0
BBX 14 16 0 -2
BITMAP
3FFC
6004
EFF4
E104
FD38
FD30
1D20
1D20
1D20
1D20
1D20
1D20
1C20
1C20
1FC0
1F00
ENDCHAR
STARTCHAR u
ENCODING 117
SWIDTH 846 0
DWIDTH 15 0
BBX 14 16 1 -2
BITMAP
3E7C
4284
CB94
CB94
CB94
CB94
CB94
CB94
CB94
C994
C824
C7C4
E008
F810
7FE0
3F80
ENDCHAR
STARTCHAR v
ENCODING 118
SWIDTH 830 0
DWIDTH 15 0
BBX 13 16 1 -2
BITMAP
7EF8
4288
CB98
CB98
CB98
CB98
CB98
C9A8
E928
E428
E450
F390
7010
7820
3FC0
3F80
ENDCHAR
STARTCHAR w
ENCODING 119
SWIDTH 931 0
DWIDTH 17 0
BBX 15 16 1 -2
BITMAP
3E3E
4262
CAEA
CAEA
CBEA
CA2A
CA2A
CAAA
C94A
CA2A
CAAA
E492
E1C2
F1C4
7FF8
79F0
ENDCHAR
STARTCHAR x
ENCODING 120
SWIDTH 837 0
DWIDTH 15 0
BBX 13 16 1 -2
BITMAP
3E78
4288
CB98
C998
E428
F450
F390
7450
2428
4928
CB98
CB98
C388
C388
FDF0
F1E0
ENDCHAR
STARTCHAR y
ENCODING 121
SWIDTH 805 0
DWIDTH 14 0
BBX 14 16 0 -2
BITMAP
3E7C
61C4
E9D4
E9D4
E9D4
E494
E224
F228
79C8
7C90
3CA0
1CA0
0C20
0C20
0FC0
0F00
ENDCHAR
STARTCHAR z
ENCODING 122
SWIDTH 760 0
DWIDTH 14 0
BBX 13 16 0 -2
BITMAP
1FF8
2008
67E8
6028
7F48
7E48
0490
0920
1240
2440
24F8
67F8
E008
E008
FFF0
FFE0
ENDCHAR
STARTCHAR braceleft
ENCODING 123
SWIDTH 555 0
DWIDTH 10 0
BBX 10 19 0 -3
BITMAP
0780
0840
1340
3440
7480
7500
7500
6900
4A00
C900
E500
F500
F500
7480
7440
7340
7C40
3F80
1E00
ENDCHAR
STARTCHAR bar
ENCODING 124
SWIDTH 447 0
DWIDTH 8 0
BBX 6 19 1 -3
BITMAP
3C
44
CC
CC
CC
CC
CC
CC
CC
CC
CC
CC
CC
CC
CC
CC
C4
FC
F0
ENDCHAR
STARTCHAR braceright
ENCODING 125
SWIDTH 555 0
DWIDTH 10 0
BBX 10 19 0 -3
BITMAP
1E00
2100
6E80
E280
FA80
FA80
3A80
3940
3D40
3940
1A40
3A80
3A80
2280
2280
6C80
E300
FC00
F800
ENDCHAR
STARTCHAR asciitilde
ENCODING 126
SWIDTH 834 0
DWIDTH 15 0
BBX 13 7 1 3
BITMAP
1F90
2068
4F88
C068
CF08
FFF0
FFC0
ENDCHAR
STARTCHAR uni00A0
ENCODING 160
SWIDTH 325 0
DWIDTH 6 0
BBX 1 1 0 0
BITMAP
00
ENDCHAR
STARTCHAR exclamdown
ENCODING 161
SWIDTH 523 0
DWIDTH 9 0
BBX 7 16 1 -2
BITMAP
3E
62
EA
E2
FE
E2
62
EA
EA
EA
EA
EA
E2
E2
FC
F8
ENDCHAR
STARTCHAR cent
ENCODING 162
SWIDTH 728 0
DWIDTH 13 0
BBX 12 18 1 -3
BITMAP
03C0
0C20
1110
27D0
4810
C810
CBE0
CB80
CA00
CA00
C9E0
C810
E7D0
F110
FC20
7C40
1F80
1F00
ENDCHAR
STARTCHAR sterling
ENCODING 163
SWIDTH 795 0
DWIDTH 14 0
BBX 14 16 0 -2
BITMAP
0FF0
1010
13D0
2410
65E0
65C0
4480
CEBC
C444
E5D4
E414
67F4
6004
6004
7FF8
7FF0
ENDCHAR
STARTCHAR currency
ENCODING 164
SWIDTH 921 0
DWIDTH 17 0
BBX 16 16 0 -3
BITMAP
0C06
12E9
25F5
7209
FA0A
3AEA
3AEA
3AEA
3AEA
3A0A
35F5
2001
73F9
FFFE
7038
2010
ENDCHAR
STARTCHAR yen
ENCODING 165
SWIDTH 803 0
DWIDTH 14 0
BBX 14 16 0 -2
BITMAP
3E7C
61C4
E9D4
E9D4
E5D4
E494
F224
79C8
3898
37E4
7084
7CB8
7C30
3C20
0FC0
0F00
ENDCHAR
STARTCHAR brokenbar
ENCODING 166
SWIDTH 447 0
DWIDTH 8 0
BBX 6 19 1 -3
BITMAP
3C
44
CC
CC
CC
CC
C4
C4
FC
FC
44
CC
CC
CC
CC
C4
C4
FC
F0
ENDCHAR
STARTCHAR section
ENCODING 167
SWIDTH 750 0
DWIDTH 14 0
BBX 13 16 0 -2
BITMAP
0FF8
13E8
2408
69F0
6810
67E8
E998
E418
73E8
7818
7F98
2018
27E8
6030
7FC0
7F80
ENDCHAR
STARTCHAR dieresis
ENCODING 168
SWIDTH 600 0
DWIDTH 11 0
BBX 11 6 0 12
BITMAP
3DE0
4220
CAA0
C220
FFC0
F780
ENDCHAR
STARTCHAR copyright
ENCODING 169
SWIDTH 967 0
DWIDTH 17 0
BBX 16 19 1 -3
BITMAP
07F8
1806
27F9
4FFD
D5EF
DA0F
DAFF
DADF
DA9F
DA9F
DA7F
DE0F
DDEF
DFFF
F7F2
E806
FFFC
7FF8
3FE0
ENDCHAR
STARTCHAR ordfeminine
ENCODING 170
SWIDTH 620 0
DWIDTH 11 0
BBX 11 16 0 -2
BITMAP
0FC0
1340
34C0
6AA0
6AA0
6960
EFA0
E860
EB60
E320
FFE0
FFE0
6FE0
E020
FFC0
FF80
ENDCHAR
STARTCHAR guillemotleft
ENCODING 171
SWIDTH 912 0
DWIDTH 16 0
BBX 16 11 0 0
BITMAP
07DF
1961
264D
6851
6BD6
E853
E74D
F061
7E79
7FFE
0E3C
ENDCHAR
STARTCHAR logicalnot
ENCODING 172
SWIDTH 834 0
DWIDTH 15 0
BBX 13 11 1 -1
BITMAP
3FF8
4008
CFE8
C018
FFD8
FFD8
01D8
01C8
01C8
01F0
01E0
ENDCHAR
STARTCHAR uni00AD
ENCODING 173
SWIDTH 520 0
DWIDTH 9 0
BBX 9 7 0 3
BITMAP
1F80
2080
6E80
E080
E080
FF00
FE00
ENDCHAR
STARTCHAR registered
ENCODING 174
SWIDTH 660 0
DWIDTH 12 0
BBX 10 12 1 2
BITMAP
1F80
2FC0
56C0
DDC0
D6C0
DBC0
D2C0
DFC0
E040
FFC0
FF00
7E00
ENDCHAR
STARTCHAR macron
ENCODING 175
SWIDTH 600 0
DWIDTH 11 0
BBX 11 6 0 12
BITMAP
1FC0
2020
6FA0
E020
FFC0
FF80
ENDCHAR
STARTCHAR degree
ENCODING 176
SWIDTH 583 0
DWIDTH 11 0
BBX 10 10 0 4
BITMAP
1F80
2740
68C0
6AC0
EAC0
EAC0
E740
F0C0
7F00
7E00
ENDCHAR
STARTCHAR plusminus
ENCODING 177
SWIDTH 834 0
DWIDTH 15 0
BBX 13 16 1 -2
BITMAP
07C0
0440
0D40
1D40
3D78
4FE8
C108
FD78
FD70
FD60
3C78
4008
CFE8
C008
FFF0
FFE0
ENDCHAR
STARTCHAR twosuperior
ENCODING 178
SWIDTH 585 0
DWIDTH 11 0
BBX 10 12 0 2
BITMAP
1FC0
2F40
60C0
7EC0
7340
2C40
6980
6BC0
EFC0
E040
FF80
FF00
ENDCHAR
STARTCHAR threesuperior
ENCODING 179
SWIDTH 584 0
DWIDTH 11 0
BBX 10 12 0 2
BITMAP
3F80
2E40
6140
FD40
F180
1740
3EC0
20C0
6F40
6040
FF80
FE00
ENDCHAR
STARTCHAR acute
ENCODING 180
SWIDTH 600 0
DWIDTH 11 0
BBX 11 6 0 12
BITMAP
1FE0
23A0
6C20
E3C0
FF80
FC00
ENDCHAR
STARTCHAR mu
ENCODING 181
SWIDTH 813 0
DWIDTH 15 0
BBX 13 15 1 -3
BITMAP
3C78
4288
C388
CBA8
CBA8
CBA8
CBA8
CBA8
C828
CFC8
C808
C810
C3E0
FF80
F800
ENDCHAR
STARTCHAR paragraph
ENCODING 182
SWIDTH 782 0
DWIDTH 14 0
BBX 13 16 0 -2
BITMAP
0FF8
1008
27F8
6818
E818
E818
E818
E818
E7F8
F118
7958
7958
1848
1C48
1FF0
1FE0
ENDCHAR
STARTCHAR periodcentered
ENCODING 183
SWIDTH 464 0
DWIDTH 8 0
BBX 8 8 0 2
BITMAP
1F
21
65
E5
E1
E1
FE
FC
ENDCHAR
STARTCHAR cedilla
ENCODING 184
SWIDTH 600 0
DWIDTH 11 0
BBX 7 8 2 -5
BITMAP
1C
22
6A
6A
42
C4
F8
F0
ENDCHAR
STARTCHAR onesuperior
ENCODING 185
SWIDTH 557 0
DWIDTH 10 0
BBX 10 12 0 2
BITMAP
1F00
2D00
6300
7B00
7B00
3B00
3B00
3AC0
2F40
6040
FF80
FF00
ENDCHAR
STARTCHAR ordmasculine
ENCODING 186
SWIDTH 625 0
DWIDTH 11 0
BBX 11 16 0 -2
BITMAP
1FC0
27A0
2860
6B60
EB60
EB60
EB60
EB60
E7A0
E020
F8C0
7FE0
6FE0
E020
FFC0
FF80
ENDCHAR
STARTCHAR guillemotright
ENCODING 187
SWIDTH 912 0
DWIDTH 16 0
BBX 15 11 1 0
BITMAP
7CF0
438C
CCB2
C28A
FAE6
E286
4C9A
C1A2
C79C
FBF0
E3C0
ENDCHAR
STARTCHAR onequarter
ENCODING 188
SWIDTH 1303 0
DWIDTH 23 0
BBX 23 16 0 -2
BITMAP
3F1F00
2D1100
633500
7B65CE
7B6A32
3B6AB6
3B6AB6
3AEAB6
2F2A86
604A86
FFD37A
FFD706
00C7F2
00CFF2
01F07C
01E078
ENDCHAR
STARTCHAR onehalf
ENCODING 189
SWIDTH 1260 0
DWIDTH 23 0
BBX 22 16 0 -2
BITMAP
1F1F00
2D1100
633500
7B66F8
7B6904
3B6A74
3B6A0C
3AEBEC
2F2B14
604A64
FFD298
FFD6BC
00C6FC
00C604
01FFF8
01EFF0
ENDCHAR
STARTCHAR threequarters
ENCODING 190
SWIDTH 1313 0
DWIDTH 24 0
BBX 23 16 0 -2
BITMAP
3F9F00
6E5100
E17500
FD75CE
F1E532
36A976
3EAB76
20AB76
6F2B56
606B46
FFCB3E
FFD386
00C7F2
00C7F2
00F83C
01E038
ENDCHAR
STARTCHAR questiondown
ENCODING 191
SWIDTH 756 0
DWIDTH 14 0
BBX 13 16 0 -2
BITMAP
03F0
0210
0650
0610
07F0
0790
1810
23D0
6410
64E0
E5F8
E3E8
E008
F808
7FF0
3FE0
ENDCHAR
STARTCHAR Agrave
ENCODING 192
SWIDTH 830 0
DWIDTH 15 0
BBX 13 20 1 -2
BITMAP
1FC0
3730
70D0
7010
7FE0
1010
3390
2450
6528
69A8
4BA8
C818
CFE8
C818
C818
CB98
C388
C388
FDF0
F1E0
ENDCHAR
STARTCHAR Aacute
ENCODING 193
SWIDTH 830 0
DWIDTH 15 0
BBX 13 20 1 -2
BITMAP
0FF0
1790
3010
7020
7FE0
7010
3390
2448
6528
69A8
4BA8
C818
CFE8
C818
C818
CB98
C388
C388
FDF0
F1E0
ENDCHAR
STARTCHAR Acircumflex
ENCODING 194
SWIDTH 830 0
DWIDTH 15 0
BBX 13 21 1 -2
BITMAP
0380
0C60
1390
3450
73D0
7FE0
7010
3390
2450
6528
69A8
4BA8
C818
CFE8
C818
C818
CB98
C388
C388
FDF0
F1E0
ENDCHAR
STARTCHAR Atilde
ENCODING 195
SWIDTH 830 0
DWIDTH 15 0
BBX 13 21 1 -2
BITMAP
0FB0
1050
1790
3050
7410
7FE0
7010
3390
2450
6528
69A8
4BA8
C818
CFE8
C818
C818
CB98
C388
C388
FDF0
F1E0
ENDCHAR
STARTCHAR Adieresis
ENCODING 196
SWIDTH 830 0
DWIDTH 15 0
BBX 13 21 1 -2
BITMAP
1EF0
2110
2550
6110
6110
7FE0
7010
3390
2450
6528
69A8
4BA8
C818
CFE8
C818
C818
CB98
C388
C388
FDF0
F1E0
ENDCHAR
STARTCHAR Aring
ENCODING 197
SWIDTH 830 0
DWIDTH 15 0
BBX 13 21 1 -2
BITMAP
07C0
0BB0
1450
35B0
75B0
7450
7390
7390
2450
6528
69A8
4BA8
C818
CFE8
C818
C818
CB98
C388
C388
FDF0
F1E0
ENDCHAR
STARTCHAR AE
ENCODING 198
SWIDTH 1105 0
DWIDTH 20 0
BBX 18 16 1 -2
BITMAP
0FFFC0
100040
33FFC0
641040
659780
699080
CB9E80
C81080
CFE780
D01700
D017C0
D39FC0
C38040
C38040
FFFF80
F1FF00
ENDCHAR
STARTCHAR Ccedilla
ENCODING 199
SWIDTH 728 0
DWIDTH 13 0
BBX 12 18 1 -4
BITMAP
1FF0
27D0
4810
C810
CBE0
CBC0
CA00
CA00
CA00
CA00
C9E0
C7D0
E110
FD30
7860
3840
1F80
1E00
ENDCHAR
STARTCHAR Egrave
ENCODING 200
SWIDTH 754 0
DWIDTH 14 0
BBX 12 20 1 -2
BITMAP
3FC0
67A0
6020
7820
47D0
4010
CFD0
C810
CBE0
C820
CFA0
C820
C820
CBC0
CBF0
CFD0
C010
C010
FFE0
FFC0
ENDCHAR
STARTCHAR Eacute
ENCODING 201
SWIDTH 754 0
DWIDTH 14 0
BBX 12 20 1 -2
BITMAP
0FE0
1790
3010
7020
4FD0
4010
CFD0
C810
CBE0
C820
CFA0
C820
C820
CBC0
CBF0
CFD0
C010
C010
FFE0
FFC0
ENDCHAR
STARTCHAR Ecircumflex
ENCODING 202
SWIDTH 754 0
DWIDTH 14 0
BBX 12 21 1 -2
BITMAP
0380
1C60
27A0
6020
7FE0
4010
4010
CFD0
C810
CBE0
C820
CFA0
C820
C820
CBC0
CBF0
CFD0
C010
C010
FFE0
FFC0
ENDCHAR
STARTCHAR Edieresis
ENCODING 203
SWIDTH 754 0
DWIDTH 14 0
BBX 12 21 1 -2
BITMAP
1EE0
2110
6950
6110
6110
7FF0
4010
CFD0
C810
CBE0
C820
CFA0
C820
C820
CBC0
CBF0
CFD0
C010
C010
FFE0
FFC0
ENDCHAR
STARTCHAR Igrave
ENCODING 204
SWIDTH 705 0
DWIDTH 13 0
BBX 11 20 1 -2
BITMAP
3FC0
67A0
E020
F020
CFE0
4020
CFA0
C220
F260
F240
F280
3280
3280
3280
3260
4FA0
C020
C020
FFC0
FF80
ENDCHAR
STARTCHAR Iacute
ENCODING 205
SWIDTH 705 0
DWIDTH 13 0
BBX 11 20 1 -2
BITMAP
1FC0
2F20
6020
E040
DFA0
C020
CFA0
C220
F260
F240
F280
3280
3280
3280
3260
4FA0
C020
C020
FFC0
FF80
ENDCHAR
STARTCHAR Icircumflex
ENCODING 206
SWIDTH 705 0
DWIDTH 13 0
BBX 11 21 1 -2
BITMAP
0700
18C0
2720
68A0
FFE0
C020
C020
CFA0
C220
F260
F240
F280
3280
3280
3280
3260
4FA0
C020
C020
FFC0
FF80
ENDCHAR
STARTCHAR Idieresis
ENCODING 207
SWIDTH 705 0
DWIDTH 13 0
BBX 11 21 1 -2
BITMAP
3DC0
4220
CAA0
C220
C220
FFE0
C020
CFA0
C220
F260
F240
F280
3280
3280
3280
3260
4FA0
C020
C020
FFC0
FF80
ENDCHAR
STARTCHAR Eth
ENCODING 208
SWIDTH 856 0
DWIDTH 15 0
BBX 15 16 0 -2
BITMAP
1FFC
2002
67F2
640A
64EA
64EA
446A
CE6A
C46A
E4EA
E40A
67F2
6004
7008
7FF0
7FE0
ENDCHAR
STARTCHAR Ntilde
ENCODING 209
SWIDTH 853 0
DWIDTH 15 0
BBX 14 21 1 -2
BITMAP
0FB0
1050
1390
3050
3610
4BEC
4184
C994
CC94
CA54
C914
C894
CA54
CB54
CB24
CB94
CB94
C384
C384
FDF8
F1E0
ENDCHAR
STARTCHAR Ograve
ENCODING 210
SWIDTH 837 0
DWIDTH 15 0
BBX 13 21 1 -2
BITMAP
0C00
1FF0
3050
7010
7FD0
2028
27C8
4828
CB98
CB98
CB98
CB98
CB98
CB98
CB98
C828
C7C8
E008
F830
7FC0
3F80
ENDCHAR
STARTCHAR Oacute
ENCODING 211
SWIDTH 837 0
DWIDTH 15 0
BBX 13 21 1 -2
BITMAP
0070
0FF0
3410
7010
73E0
6C18
27C8
4828
CB98
CB98
CB98
CB98
CB98
CB98
CB98
C828
C7C8
E008
F830
7FC0
3F80
ENDCHAR
STARTCHAR Ocircumflex
ENCODING 212
SWIDTH 837 0
DWIDTH 15 0
BBX 13 21 1 -2
BITMAP
0100
0FF0
1010
37D0
7830
6008
47C8
4828
CB98
CB98
CB98
CB98
CB98
CB98
CB98
C828
C7C8
E008
F830
7FC0
3F80
ENDCHAR
STARTCHAR Otilde
ENCODING 213
SWIDTH 837 0
DWIDTH 15 0
BBX 13 21 1 -2
BITMAP
0FB0
1050
3790
7050
7710
78F0
27C8
4828
CB98
CB98
CB98
CB98
CB98
CB98
CB98
C828
C7C8
E008
F830
7FC0
3F80
ENDCHAR
STARTCHAR Odieresis
ENCODING 214
SWIDTH 837 0
DWIDTH 15 0
BBX 13 21 1 -2
BITMAP
1EF0
2110
6550
6110
7110
7EF0
27C8
4828
CB98
CB98
CB98
CB98
CB98
CB98
CB98
C828
C7C8
E008
F830
7FE0
3F80
ENDCHAR
STARTCHAR multiply
ENCODING 215
SWIDTH 834 0
DWIDTH 15 0
BBX 13 13 1 -1
BITMAP
1C70
2288
2108
6448
F290
7920
3290
1448
2108
6388
F7D0
7BE0
2080
ENDCHAR
STARTCHAR Oslash
ENCODING 216
SWIDTH 837 0
DWIDTH 15 0
BBX 13 19 1 -3
BITMAP
0070
0088
1F08
27C8
4878
D398
D298
D2D8
D358
D558
D2D8
D2D8
CD28
C7C8
F408
E030
E3C0
7F80
F000
ENDCHAR
STARTCHAR Ugrave
ENCODING 217
SWIDTH 846 0
DWIDTH 15 0
BBX 14 20 1 -2
BITMAP
1FE0
33D0
7010
7810
47EC
4384
CB94
CB94
CB94
CB94
CB94
CB94
CB94
C994
C824
C7C4
E008
F810
7FE0
3F80
ENDCHAR
STARTCHAR Uacute
ENCODING 218
SWIDTH 846 0
DWIDTH 15 0
BBX 14 20 1 -2
BITMAP
07F0
1BD0
3010
3010
4FEC
4284
CB94
CB94
CB94
CB94
CB94
CB94
CB94
C994
C824
C7C4
E008
F810
7FE0
3F80
ENDCHAR
STARTCHAR Ucircumflex
ENCODING 219
SWIDTH 846 0
DWIDTH 15 0
BBX 14 21 1 -2
BITMAP
0140
0FB0
1050
3190
7FF0
438C
4284
CB94
CB94
CB94
CB94
CB94
CB94
CB94
CB94
C824
C7C4
E008
F810
7FE0
3F80
ENDCHAR
STARTCHAR Udieresis
ENCODING 220
SWIDTH 846 0
DWIDTH 15 0
BBX 14 21 1 -2
BITMAP
0EF0
1110
7530
7110
7110
7FF8
C384
CB94
CB94
CB94
CB94
CB94
CB94
CB94
C994
C824
C7C4
E008
F810
7FE0
3F80
ENDCHAR
STARTCHAR Yacute
ENCODING 221
SWIDTH 805 0
DWIDTH 14 0
BBX 14 20 0 -2
BITMAP
07F8
0BC8
1808
3810
27EC
61C4
E9D4
E9D4
E9D4
E494
E224
F228
79C8
7C90
3CA0
1CA0
0C20
0C20
0FC0
0F00
ENDCHAR
STARTCHAR Thorn
ENCODING 222
SWIDTH 792 0
DWIDTH 14 0
BBX 13 16 1 -2
BITMAP
3E00
4200
C9F0
CFC8
C828
C828
CBA8
CBA8
CBA8
C828
CFC8
C830
C3C0
C380
FC00
F000
ENDCHAR
STARTCHAR germandbls
ENCODING 223
SWIDTH 859 0
DWIDTH 15 0
BBX 14 16 1 -2
BITMAP
3FF0
4008
CFC8
C828
CB48
CB48
CB64
CB14
CBCC
CBCC
CA14
CA64
C204
C308
FFF0
F7C0
ENDCHAR
STARTCHAR agrave
ENCODING 224
SWIDTH 830 0
DWIDTH 15 0
BBX 13 20 1 -2
BITMAP
1FC0
3730
70D0
7010
7FE0
1010
3390
2450
6528
69A8
4BA8
C818
CFE8
C818
C818
CB98
C388
C388
FDF0
F1E0
ENDCHAR
STARTCHAR aacute
ENCODING 225
SWIDTH 830 0
DWIDTH 15 0
BBX 13 20 1 -2
BITMAP
0FF0
1790
3010
7020
7FE0
7010
3390
2448
6528
69A8
4BA8
C818
CFE8
C818
C818
CB98
C388
C388
FDF0
F1E0
ENDCHAR
STARTCHAR acircumflex
ENCODING 226
SWIDTH 830 0
DWIDTH 15 0
BBX 13 21 1 -2
BITMAP
0380
0C60
1390
3450
73D0
7FE0
7010
3390
2450
6528
69A8
4BA8
C818
CFE8
C818
C818
CB98
C388
C388
FDF0
F1E0
ENDCHAR
STARTCHAR atilde
ENCODING 227
SWIDTH 830 0
DWIDTH 15 0
BBX 13 21 1 -2
BITMAP
0FB0
1050
1790
3050
7410
7FE0
7010
3390
2450
6528
69A8
4BA8
C818
CFE8
C818
C818
CB98
C388
C388
FDF0
F1E0
ENDCHAR
STARTCHAR adieresis
ENCODING 228
SWIDTH 830 0
DWIDTH 15 0
BBX 13 21 1 -2
BITMAP
1EF0
2110
2550
6110
6110
7FE0
7010
3390
2450
6528
69A8
4BA8
C818
CFE8
C818
C818
CB98
C388
C388
FDF0
F1E0
ENDCHAR
STARTCHAR aring
ENCODING 229
SWIDTH 830 0
DWIDTH 15 0
BBX 13 21 1 -2
BITMAP
07C0
0BB0
1450
35B0
75B0
7450
7390
7390
2450
6528
69A8
4BA8
C818
CFE8
C818
C818
CB98
C388
C388
FDF0
F1E0
ENDCHAR
STARTCHAR ae
ENCODING 230
SWIDTH 1105 0
DWIDTH 20 0
BBX 18 16 1 -2
BITMAP
0FFFC0
100040
33FFC0
641040
659780
699080
CB9E80
C81080
CFE780
D01700
D017C0
D39FC0
C38040
C38040
FFFF80
F1FF00
ENDCHAR
STARTCHAR ccedilla
ENCODING 231
SWIDTH 728 0
DWIDTH 13 0
BBX 12 18 1 -4
BITMAP
1FF0
27D0
4810
C810
CBE0
CBC0
CA00
CA00
CA00
CA00
C9E0
C7D0
E110
FD30
7860
3840
1F80
1E00
ENDCHAR
STARTCHAR egrave
ENCODING 232
SWIDTH 754 0
DWIDTH 14 0
BBX 12 20 1 -2
BITMAP
3FC0
67A0
6020
7820
47D0
4010
CFD0
C810
CBE0
C820
CFA0
C820
C820
CBC0
CBF0
CFD0
C010
C010
FFE0
FFC0
ENDCHAR
STARTCHAR eacute
ENCODING 233
SWIDTH 754 0
DWIDTH 14 0
BBX 12 20 1 -2
BITMAP
0FE0
1790
3010
7020
4FD0
4010
CFD0
C810
CBE0
C820
CFA0
C820
C820
CBC0
CBF0
CFD0
C010
C010
FFE0
FFC0
ENDCHAR
STARTCHAR ecircumflex
ENCODING 234
SWIDTH 754 0
DWIDTH 14 0
BBX 12 21 1 -2
BITMAP
0380
1C60
27A0
6020
7FE0
4010
4010
CFD0
C810
CBE0
C820
CFA0
C820
C820
CBC0
CBF0
CFD0
C010
C010
FFE0
FFC0
ENDCHAR
STARTCHAR edieresis
ENCODING 235
SWIDTH 754 0
DWIDTH 14 0
BBX 12 21 1 -2
BITMAP
1EE0
2110
6950
6110
6110
7FF0
4010
CFD0
C810
CBE0
C820
CFA0
C820
C820
CBC0
CBF0
CFD0
C010
C010
FFE0
FFC0
ENDCHAR
STARTCHAR igrave
ENCODING 236
SWIDTH 705 0
DWIDTH 13 0
BBX 11 20 1 -2
BITMAP
3FC0
67A0
E020
F020
CFE0
4020
CFA0
C220
F260
F240
F280
3280
3280
3280
3260
4FA0
C020
C020
FFC0
FF80
ENDCHAR
STARTCHAR iacute
ENCODING 237
SWIDTH 705 0
DWIDTH 13 0
BBX 11 20 1 -2
BITMAP
1FC0
2F20
6020
E040
DFA0
C020
CFA0
C220
F260
F240
F280
3280
3280
3280
3260
4FA0
C020
C020
FFC0
FF80
ENDCHAR
STARTCHAR icircumflex
ENCODING 238
SWIDTH 705 0
DWIDTH 13 0
BBX 11 21 1 -2
BITMAP
0700
18C0
2720
68A0
FFE0
C020
C020
CFA0
C220
F260
F240
F280
3280
3280
3280
3260
4FA0
C020
C020
FFC0
FF80
ENDCHAR
STARTCHAR idieresis
ENCODING 239
SWIDTH 705 0
DWIDTH 13 0
BBX 11 21 1 -2
BITMAP
3DC0
4220
CAA0
C220
C220
FFE0
C020
CFA0
C220
F260
F240
F280
3280
3280
3280
3260
4FA0
C020
C020
FFC0
FF80
ENDCHAR
STARTCHAR eth
ENCODING 240
SWIDTH 856 0
DWIDTH 15 0
BBX 15 16 0 -2
BITMAP
1FFC
2002
67F2
640A
64EA
64EA
446A
CE6A
C46A
E4EA
E40A
67F2
6004
7008
7FF0
7FE0
ENDCHAR
STARTCHAR ntilde
ENCODING 241
SWIDTH 853 0
DWIDTH 15 0
BBX 14 21 1 -2
BITMAP
0FB0
1050
1390
3050
3610
4BEC
4184
C994
CC94
CA54
C914
C894
CA54
CB54
CB24
CB94
CB94
C384
C384
FDF8
F1E0
ENDCHAR
STARTCHAR ograve
ENCODING 242
SWIDTH 837 0
DWIDTH 15 0
BBX 13 21 1 -2
BITMAP
0C00
1FF0
3050
7010
7FD0
2028
27C8
4828
CB98
CB98
CB98
CB98
CB98
CB98
CB98
C828
C7C8
E008
F830
7FC0
3F80
ENDCHAR
STARTCHAR oacute
ENCODING 243
SWIDTH 837 0
DWIDTH 15 0
BBX 13 21 1 -2
BITMAP
0070
0FF0
3410
7010
73E0
6C18
27C8
4828
CB98
CB98
CB98
CB98
CB98
CB98
CB98
C828
C7C8
E008
F830
7FC0
3F80
ENDCHAR
STARTCHAR ocircumflex
ENCODING 244
SWIDTH 837 0
DWIDTH 15 0
BBX 13 21 1 -2
BITMAP
0100
0FF0
1010
37D0
7830
6008
47C8
4828
CB98
CB98
CB98
CB98
CB98
CB98
CB98
C828
C7C8
E008
F830
7FC0
3F80
ENDCHAR
STARTCHAR otilde
ENCODING 245
SWIDTH 837 0
DWIDTH 15 0
BBX 13 21 1 -2
BITMAP
0FB0
1050
3790
7050
7710
78F0
27C8
4828
CB98
CB98
CB98
CB98
CB98
CB98
CB98
C828
C7C8
E008
F830
7FC0
3F80
ENDCHAR
STARTCHAR odieresis
ENCODING 246
SWIDTH 837 0
DWIDTH 15 0
BBX 13 21 1 -2
BITMAP
1EF0
2110
6550
6110
7110
7EF0
27C8
4828
CB98
CB98
CB98
CB98
CB98
CB98
CB98
C828
C7C8
E008
F830
7FE0
3F80
ENDCHAR
STARTCHAR divide
ENCODING 247
SWIDTH 834 0
DWIDTH 15 0
BBX 13 15 1 -1
BITMAP
03C0
0440
0D40
1C40
1C40
3FF8
4FE8
C008
FFF8
FC20
0D40
1C40
1C40
1F80
1F00
ENDCHAR
STARTCHAR oslash
ENCODING 248
SWIDTH 837 0
DWIDTH 15 0
BBX 13 19 1 -3
BITMAP
0070
0088
1F08
27C8
4878
D398
D298
D2D8
D358
D558
D2D8
D2D8
CD28
C7C8
F408
E030
E3C0
7F80
F000
ENDCHAR
STARTCHAR ugrave
ENCODING 249
SWIDTH 846 0
DWIDTH 15 0
BBX 14 20 1 -2
BITMAP
1FE0
33D0
7010
7810
47EC
4384
CB94
CB94
CB94
CB94
CB94
CB94
CB94
C994
C824
C7C4
E008
F810
7FE0
3F80
ENDCHAR
STARTCHAR uacute
ENCODING 250
SWIDTH 846 0
DWIDTH 15 0
BBX 14 20 1 -2
BITMAP
07F0
1BD0
3010
3010
4FEC
4284
CB94
CB94
CB94
CB94
CB94
CB94
CB94
C994
C824
C7C4
E008
F810
7FE0
3F80
ENDCHAR
STARTCHAR ucircumflex
ENCODING 251
SWIDTH 846 0
DWIDTH 15 0
BBX 14 21 1 -2
BITMAP
0140
0FB0
1050
3190
7FF0
438C
4284
CB94
CB94
CB94
CB94
CB94
CB94
CB94
CB94
C824
C7C4
E008
F810
7FE0
3F80
ENDCHAR
STARTCHAR udieresis
ENCODING 252
SWIDTH 846 0
DWIDTH 15 0
BBX 14 21 1 -2
BITMAP
0EF0
1110
7530
7110
7110
7FF8
C384
CB94
CB94
CB94
CB94
CB94
CB94
CB94
C994
C824
C7C4
E008
F810
7FE0
3F80
ENDCHAR
STARTCHAR yacute
ENCODING 253
SWIDTH 805 0
DWIDTH 14 0
BBX 14 20 0 -2
BITMAP
07F8
0BC8
1808
3810
27EC
61C4
E9D4
E9D4
E9D4
E494
E224
F228
79C8
7C90
3CA0
1CA0
0C20
0C20
0FC0
0F00
ENDCHAR
STARTCHAR thorn
ENCODING 254
SWIDTH 792 0
DWIDTH 14 0
BBX 13 16 1 -2
BITMAP
3E00
4200
C9F0
CFC8
C828
C828
CBA8
CBA8
CBA8
C828
CFC8
C830
C3C0
C380
FC00
F000
ENDCHAR
STARTCHAR ydieresis
ENCODING 255
SWIDTH 805 0
DWIDTH 14 0
BBX 14 21 0 -2
BITMAP
0F70
1088
32A8
3088
3088
3FFC
61C4
E9D4
E9D4
E9D4
E494
E424
F228
79C8
3C90
3CA0
1CA0
0C20
0C20
0FC0
0F00
ENDCHAR
STARTCHAR Amacron
ENCODING 256
SWIDTH 830 0
DWIDTH 15 0
BBX 13 20 1 -2
BITMAP
0FE0
17D0
3010
7010
7FE0
7010
3390
2450
6528
69A8
4BA8
C818
CFE8
C818
C818
CB98
C388
C388
FDF0
F1E0
ENDCHAR
STARTCHAR amacron
ENCODING 257
SWIDTH 830 0
DWIDTH 15 0
BBX 13 20 1 -2
BITMAP
0FE0
17D0
3010
7010
7FE0
7010
3390
2450
6528
69A8
4BA8
C818
CFE8
C818
C818
CB98
C388
C388
FDF0
F1E0
ENDCHAR
STARTCHAR Abreve
ENCODING 258
SWIDTH 830 0
DWIDTH 15 0
BBX 13 21 1 -2
BITMAP
0E60
1390
3430
73D0
7820
7FE0
3010
3390
2450
6528
69A8
4BA8
C818
CFE8
C818
C818
CB98
C388
C388
FDF0
F1E0
ENDCHAR
STARTCHAR abreve
ENCODING 259
SWIDTH 830 0
DWIDTH 15 0
BBX 13 21 1 -2
BITMAP
0E60
1390
3430
73D0
7820
7FE0
3010
3390
2450
6528
69A8
4BA8
C818
CFE8
C818
C818
CB98
C388
C388
FDF0
F1E0
ENDCHAR
STARTCHAR Aogonek
ENCODING 260
SWIDTH 830 0
DWIDTH 15 0
BBX 13 19 1 -5
BITMAP
0FE0
1010
3390
2448
6528
69A8
4BA8
C818
CFE8
C818
C818
CB98
C3A8
C3A8
FDA8
F1B8
0388
03F8
01F0
ENDCHAR
STARTCHAR aogonek
ENCODING 261
SWIDTH 830 0
DWIDTH 15 0
BBX 13 19 1 -5
BITMAP
0FE0
1010
3390
2448
6528
69A8
4BA8
C818
CFE8
C818
C818
CB98
C3A8
C3A8
FDA8
F1B8
0388
03F8
01F0
ENDCHAR
STARTCHAR Cacute
ENCODING 262
SWIDTH 728 0
DWIDTH 13 0
BBX 12 20 1 -2
BITMAP
0FF0
1B90
3010
3010
3FF0
2010
27D0
4810
CBE0
CBC0
CA00
CA00
CA00
CA00
C9E0
C7D0
E010
F010
7FE0
3FC0
ENDCHAR
STARTCHAR cacute
ENCODING 263
SWIDTH 728 0
DWIDTH 13 0
BBX 12 20 1 -2
BITMAP
0FF0
1B90
3010
3010
3FF0
2010
27D0
4810
CBE0
CBC0
CA00
CA00
CA00
CA00
C9E0
C7D0
E010
F010
7FE0
3FC0
ENDCHAR
STARTCHAR Ccircumflex
ENCODING 264
SWIDTH 728 0
DWIDTH 13 0
BBX 12 21 1 -2
BITMAP
0380
0C60
1790
3010
77F0
7810
6010
27D0
4810
CBE0
CBC0
CA00
CA00
CA00
CA00
C9E0
C7D0
E010
F010
7FE0
3FC0
ENDCHAR
STARTCHAR ccircumflex
ENCODING 265
SWIDTH 728 0
DWIDTH 13 0
BBX 12 21 1 -2
BITMAP
0380
0C60
1790
3010
77F0
7810
6010
27D0
4810
CBE0
CBC0
CA00
CA00
CA00
CA00
C9E0
C7D0
E010
F010
7FE0
3FC0
ENDCHAR
STARTCHAR Cdotaccent
ENCODING 266
SWIDTH 728 0
DWIDTH 13 0
BBX 12 21 1 -2
BITMAP
0780
0840
1940
1840
1C40
13B0
2010
47D0
C810
CBE0
CBC0
CA00
CA00
CA00
CA00
C9E0
C7D0
E010
F010
7FE0
3FC0
ENDCHAR
STARTCHAR cdotaccent
ENCODING 267
SWIDTH 728 0
DWIDTH 13 0
BBX 12 21 1 -2
BITMAP
0780
0840
1940
1840
1C40
13B0
2010
47D0
C810
CBE0
CBC0
CA00
CA00
CA00
CA00
C9E0
C7D0
E010
F010
7FE0
3FC0
ENDCHAR
STARTCHAR Ccaron
ENCODING 268
SWIDTH 728 0
DWIDTH 13 0
BBX 12 21 1 -2
BITMAP
1C60
3390
7790
7020
7CC0
7330
2010
47D0
4810
CBE0
CBC0
CA00
CA00
CA00
CA00
C9E0
C7D0
E010
F010
7FE0
3FC0
ENDCHAR
STARTCHAR ccaron
ENCODING 269
SWIDTH 728 0
DWIDTH 13 0
BBX 12 21 1 -2
BITMAP
1C60
3390
7790
7020
7CC0
7330
2010
47D0
4810
CBE0
CBC0
CA00
CA00
CA00
CA00
C9E0
C7D0
E010
F010
7FE0
3FC0
ENDCHAR
STARTCHAR Dcaron
ENCODING 270
SWIDTH 846 0
DWIDTH 15 0
BBX 14 21 1 -2
BITMAP
0C20
33D0
33D0
7010
7EE0
2130
4008
CFE4
C814
CB94
CB94
CB94
CB94
CB94
CB94
CB94
CFE4
C008
C010
FFE0
FF80
ENDCHAR
STARTCHAR dcaron
ENCODING 271
SWIDTH 846 0
DWIDTH 15 0
BBX 14 21 1 -2
BITMAP
0C20
33D0
33D0
7010
7EE0
2130
4008
CFE4
C814
CB94
CB94
CB94
CB94
CB94
CB94
CB94
CFE4
C008
C010
FFE0
FF80
ENDCHAR
STARTCHAR Dcroat
ENCODING 272
SWIDTH 856 0
DWIDTH 15 0
BBX 15 16 0 -2
BITMAP
1FFC
2002
67F2
640A
64EA
64EA
446A
CE6A
C46A
E4EA
E40A
67F2
6004
7008
7FF0
7FE0
ENDCHAR
STARTCHAR dcroat
ENCODING 273
SWIDTH 856 0
DWIDTH 15 0
BBX 15 16 0 -2
BITMAP
1FFC
2002
67F2
640A
64EA
64EA
446A
CE6A
C46A
E4EA
E40A
67F2
6004
7008
7FF0
7FE0
ENDCHAR
STARTCHAR Emacron
ENCODING 274
SWIDTH 754 0
DWIDTH 14 0
BBX 12 20 1 -2
BITMAP
1FE0
27A0
6020
6020
5FD0
4010
CFD0
C810
CBE0
C820
CFA0
C820
C820
CBC0
CBF0
CFD0
C010
C010
FFE0
FFC0
ENDCHAR
STARTCHAR emacron
ENCODING 275
SWIDTH 754 0
DWIDTH 14 0
BBX 12 20 1 -2
BITMAP
1FE0
27A0
6020
6020
5FD0
4010
CFD0
C810
CBE0
C820
CFA0
C820
C820
CBC0
CBF0
CFD0
C010
C010
FFE0
FFC0
ENDCHAR
STARTCHAR Ebreve
ENCODING 276
SWIDTH 754 0
DWIDTH 14 0
BBX 12 21 1 -2
BITMAP
1CE0
2310
6850
7790
7860
47B0
4010
CFD0
C810
CBE0
C820
CFA0
C820
C820
CBC0
CBF0
CFD0
C010
C010
FFE0
FFC0
ENDCHAR
STARTCHAR ebreve
ENCODING 277
SWIDTH 754 0
DWIDTH 14 0
BBX 12 21 1 -2
BITMAP
1CE0
2310
6850
7790
7860
47B0
4010
CFD0
C810
CBE0
C820
CFA0
C820
C820
CBC0
CBF0
CFD0
C010
C010
FFE0
FFC0
ENDCHAR
STARTCHAR Edotaccent
ENCODING 278
SWIDTH 754 0
DWIDTH 14 0
BBX 12 21 1 -2
BITMAP
0780
0840
1A40
3840
3880
2770
4010
CFD0
C810
CBE0
C820
CFA0
C820
C820
CBC0
CBF0
CFD0
C010
C010
FFE0
FFC0
ENDCHAR
STARTCHAR edotaccent
ENCODING 279
SWIDTH 754 0
DWIDTH 14 0
BBX 12 21 1 -2
BITMAP
0780
0840
1A40
3840
3880
2770
4010
CFD0
C810
CBE0
C820
CFA0
C820
C820
CBC0
CBF0
CFD0
C010
C010
FFE0
FFC0
ENDCHAR
STARTCHAR Eogonek
ENCODING 280
SWIDTH 754 0
DWIDTH 14 0
BBX 12 19 1 -5
BITMAP
3FF0
4010
CFD0
C810
CBE0
C820
CFA0
C820
C820
CBC0
CBF0
CFD0
C050
C050
FF50
FF50
0710
07E0
07C0
ENDCHAR
STARTCHAR eogonek
ENCODING 281
SWIDTH 754 0
DWIDTH 14 0
BBX 12 19 1 -5
BITMAP
3FF0
4010
CFD0
C810
CBE0
C820
CFA0
C820
C820
CBC0
CBF0
CFD0
C050
C050
FF50
FF50
0710
07E0
07C0
ENDCHAR
STARTCHAR Ecaron
ENCODING 282
SWIDTH 754 0
DWIDTH 14 0
BBX 12 21 1 -2
BITMAP
1C60
2390
6790
7020
7CC0
4330
4010
CFD0
C810
CBE0
C820
CFA0
C820
C820
CBC0
CBF0
CFD0
C010
C010
FFE0
FFC0
ENDCHAR
STARTCHAR ecaron
ENCODING 283
SWIDTH 754 0
DWIDTH 14 0
BBX 12 21 1 -2
BITMAP
1C60
2390
6790
7020
7CC0
4330
4010
CFD0
C810
CBE0
C820
CFA0
C820
C820
CBC0
CBF0
CFD0
C010
C010
FFE0
FFC0
ENDCHAR
STARTCHAR Gcircumflex
ENCODING 284
SWIDTH 808 0
DWIDTH 15 0
BBX 13 21 1 -2
BITMAP
03C0
0C20
13D0
3010
33D0
3FF0
2010
27D0
4810
CBE0
CBC0
CA78
CA88
CBA8
CBA8
C828
C7E8
E008
F008
7FF0
3FE0
ENDCHAR
STARTCHAR gcircumflex
ENCODING 285
SWIDTH 808 0
DWIDTH 15 0
BBX 13 21 1 -2
BITMAP
03C0
0C20
13D0
3010
33D0
3FF0
2010
27D0
4810
CBE0
CBC0
CA78
CA88
CBA8
CBA8
C828
C7E8
E008
F008
7FF0
3FE0
ENDCHAR
STARTCHAR Gbreve
ENCODING 286
SWIDTH 808 0
DWIDTH 15 0
BBX 13 21 1 -2
BITMAP
0E70
1390
3430
73D0
7C20
33D0
2010
27D0
4810
CBE0
CBC0
CA78
CA88
CBA8
CBA8
C828
C7E8
E008
F008
7FF0
3FE0
ENDCHAR
STARTCHAR gbreve
ENCODING 287
SWIDTH 808 0
DWIDTH 15 0
BBX 13 21 1 -2
BITMAP
0E70
1390
3430
73D0
7C20
33D0
2010
27D0
4810
CBE0
CBC0
CA78
CA88
CBA8
CBA8
C828
C7E8
E008
F008
7FF0
3FE0
ENDCHAR
STARTCHAR Gdotaccent
ENCODING 288
SWIDTH 808 0
DWIDTH 15 0
BBX 13 21 1 -2
BITMAP
03C0
0440
0D40
1C40
1C40
13B0
2010
47D0
C810
CBE0
CBC0
CA78
CA88
CBA8
CBA8
C828
C7E8
E008
F008
7FF0
3FE0
ENDCHAR
STARTCHAR gdotaccent
ENCODING 289
SWIDTH 808 0
DWIDTH 15 0
BBX 13 21 1 -2
BITMAP
03C0
0440
0D40
1C40
1C40
13B0
2010
47D0
C810
CBE0
CBC0
CA78
CA88
CBA8
CBA8
C828
C7E8
E008
F008
7FF0
3FE0
ENDCHAR
STARTCHAR Gcommaaccent
ENCODING 290
SWIDTH 808 0
DWIDTH 15 0
BBX 13 22 1 -8
BITMAP
1FF0
27D0
4810
C810
CBE0
CBC0
CA78
CA88
CBA8
CBA8
C828
E7E8
F008
FFF8
7C30
3D20
0CC0
1FC0
1CC0
1D40
0F80
1F00
ENDCHAR
STARTCHAR gcommaaccent
ENCODING 291
SWIDTH 808 0
DWIDTH 15 0
BBX 13 22 1 -8
BITMAP
1FF0
27D0
4810
C810
CBE0
CBC0
CA78
CA88
CBA8
CBA8
C828
E7E8
F008
FFF8
7C30
3D20
0CC0
1FC0
1CC0
1D40
0F80
1F00
ENDCHAR
STARTCHAR Hcircumflex
ENCODING 292
SWIDTH 859 0
DWIDTH 15 0
BBX 14 21 1 -2
BITMAP
03C0
0C20
13D0
3010
3FF0
438C
4384
CB94
CB94
CB94
C814
C814
CFF4
C814
CB94
CB94
CB94
C384
C384
FDF8
F1E0
ENDCHAR
STARTCHAR hcircumflex
ENCODING 293
SWIDTH 859 0
DWIDTH 15 0
BBX 14 21 1 -2
BITMAP
03C0
0C20
13D0
3010
3FF0
438C
4384
CB94
CB94
CB94
C814
C814
CFF4
C814
CB94
CB94
CB94
C384
C384
FDF8
F1E0
ENDCHAR
STARTCHAR Hbar
ENCODING 294
SWIDTH 879 0
DWIDTH 16 0
BBX 16 16 0 -2
BITMAP
1F3E
2162
64E9
6409
6FFD
E409
E4EA
E40A
640A
67FA
640A
64EA
60E2
71E2
7EFC
78F8
ENDCHAR
STARTCHAR hbar
ENCODING 295
SWIDTH 879 0
DWIDTH 16 0
BBX 16 16 0 -2
BITMAP
1F3E
2162
64E9
6409
6FFD
E409
E4EA
E40A
640A
67FA
640A
64EA
60E2
71E2
7EFC
78F8
ENDCHAR
STARTCHAR Itilde
ENCODING 296
SWIDTH 705 0
DWIDTH 13 0
BBX 11 21 1 -2
BITMAP
1FC0
2020
6E20
E1A0
EE40
D1A0
C020
CFA0
C220
F260
F240
F280
3280
3280
3280
3260
4FA0
C020
C020
FFC0
FF80
ENDCHAR
STARTCHAR itilde
ENCODING 297
SWIDTH 705 0
DWIDTH 13 0
BBX 11 21 1 -2
BITMAP
1FC0
2020
6E20
E1A0
EE40
D1A0
C020
CFA0
C220
F260
F240
F280
3280
3280
3280
3260
4FA0
C020
C020
FFC0
FF80
ENDCHAR
STARTCHAR Imacron
ENCODING 298
SWIDTH 705 0
DWIDTH 13 0
BBX 11 20 1 -2
BITMAP
1FC0
2FA0
6020
E020
FFE0
C020
CFA0
C220
F260
F240
F280
3280
3280
3280
3260
4FA0
C020
C020
FFC0
FF80
ENDCHAR
STARTCHAR imacron
ENCODING 299
SWIDTH 705 0
DWIDTH 13 0
BBX 11 20 1 -2
BITMAP
1FC0
2FA0
6020
E020
FFE0
C020
CFA0
C220
F260
F240
F280
3280
3280
3280
3260
4FA0
C020
C020
FFC0
FF80
ENDCHAR
STARTCHAR Ibreve
ENCODING 300
SWIDTH 705 0
DWIDTH 13 0
BBX 11 21 1 -2
BITMAP
18C0
2720
E8A0
E720
F8C0
C720
4020
CFA0
C220
F260
F240
F280
3280
3280
3280
3260
4FA0
C020
C020
FFC0
FF80
ENDCHAR
STARTCHAR ibreve
ENCODING 301
SWIDTH 705 0
DWIDTH 13 0
BBX 11 21 1 -2
BITMAP
18C0
2720
E8A0
E720
F8C0
C720
4020
CFA0
C220
F260
F240
F280
3280
3280
3280
3260
4FA0
C020
C020
FFC0
FF80
ENDCHAR
STARTCHAR Iogonek
ENCODING 302
SWIDTH 705 0
DWIDTH 13 0
BBX 11 19 1 -5
BITMAP
7FE0
4020
CFA0
C220
F260
F240
F280
3280
3280
3280
3260
4FA0
C0A0
C0A0
FEA0
FEA0
0E20
0FE0
0F80
ENDCHAR
STARTCHAR iogonek
ENCODING 303
SWIDTH 705 0
DWIDTH 13 0
BBX 11 19 1 -5
BITMAP
7FE0
4020
CFA0
C220
F260
F240
F280
3280
3280
3280
3260
4FA0
C0A0
C0A0
FEA0
FEA0
0E20
0FE0
0F80
ENDCHAR
STARTCHAR Idotaccent
ENCODING 304
SWIDTH 705 0
DWIDTH 13 0
BBX 11 21 1 -2
BITMAP
0F00
1080
3280
3080
3880
4760
4020
CFA0
C220
F260
F240
F280
3280
3280
3280
3260
4FA0
C020
C020
FFC0
FF80
ENDCHAR
STARTCHAR dotlessi
ENCODING 305
SWIDTH 705 0
DWIDTH 13 0
BBX 11 16 1 -2
BITMAP
7FE0
4020
CFA0
C220
F260
F240
F280
3280
3280
3280
3260
4FA0
C020
C020
FFC0
FF80
ENDCHAR
STARTCHAR IJ
ENCODING 306
SWIDTH 844 0
DWIDTH 15 0
BBX 13 16 1 -2
BITMAP
3E78
4288
CB98
CB98
CB98
CB98
C398
C398
FF98
FB98
2428
4FC8
C008
C010
FFE0
FF80
ENDCHAR
STARTCHAR ij
ENCODING 307
SWIDTH 844 0
DWIDTH 15 0
BBX 13 16 1 -2
BITMAP
3E78
4288
CB98
CB98
CB98
CB98
C398
C398
FF98
FB98
2428
4FC8
C008
C010
FFE0
FF80
ENDCHAR
STARTCHAR Jcircumflex
ENCODING 308
SWIDTH 788 0
DWIDTH 14 0
BBX 15 21 0 -2
BITMAP
0070
01BE
0242
0612
07FE
0784
0484
0194
0194
0194
0194
1F94
2194
6994
E994
E424
E3C4
F008
7810
7FE0
1F80
ENDCHAR
STARTCHAR jcircumflex
ENCODING 309
SWIDTH 788 0
DWIDTH 14 0
BBX 15 21 0 -2
BITMAP
0070
01BE
0242
0612
07FE
0784
0484
0194
0194
0194
0194
1F94
2194
6994
E994
E424
E3C4
F008
7810
7FE0
1F80
ENDCHAR
STARTCHAR Kcommaaccent
ENCODING 310
SWIDTH 846 0
DWIDTH 15 0
BBX 14 22 1 -8
BITMAP
3EFC
4288
CB28
CB50
CA50
C888
CFE4
C814
CB94
CB94
CB94
CB94
C384
C384
FFF8
F520
1CC0
1FC0
1CC0
1D40
0F80
1F00
ENDCHAR
STARTCHAR kcommaaccent
ENCODING 311
SWIDTH 846 0
DWIDTH 15 0
BBX 14 22 1 -8
BITMAP
3EFC
4288
CB28
CB50
CA50
C888
CFE4
C814
CB94
CB94
CB94
CB94
C384
C384
FFF8
F520
1CC0
1FC0
1CC0
1D40
0F80
1F00
ENDCHAR
STARTCHAR kgreenlandic
ENCODING 312
SWIDTH 846 0
DWIDTH 15 0
BBX 14 16 1 -2
BITMAP
3E7C
4288
CB28
CB48
CB50
CA58
C884
CFE4
C814
CB94
CB94
CB94
C384
C384
FDF8
F1E0
ENDCHAR
STARTCHAR Lacute
ENCODING 313
SWIDTH 795 0
DWIDTH 14 0
BBX 13 20 1 -2
BITMAP
0FC0
3740
C840
C0C0
FF00
C200
CA00
CA00
CA00
CA00
CA78
CA88
CBA8
CBA8
C828
CFE8
C008
C008
FFF0
FFE0
ENDCHAR
STARTCHAR lacute
ENCODING 314
SWIDTH 795 0
DWIDTH 14 0
BBX 13 20 1 -2
BITMAP
0FC0
3740
C840
C0C0
FF00
C200
CA00
CA00
CA00
CA00
CA78
CA88
CBA8
CBA8
C828
CFE8
C008
C008
FFF0
FFE0
ENDCHAR
STARTCHAR Lcommaaccent
ENCODING 315
SWIDTH 795 0
DWIDTH 14 0
BBX 13 22 1 -8
BITMAP
3E00
4200
CA00
CA00
CA00
CA78
CA88
CBA8
CBA8
CBA8
C828
CFE8
C008
FFF8
FC30
FD20
1CC0
1FC0
1CC0
1D40
0F80
1E00
ENDCHAR
STARTCHAR lcommaaccent
ENCODING 316
SWIDTH 795 0
DWIDTH 14 0
BBX 13 22 1 -8
BITMAP
3E00
4200
CA00
CA00
CA00
CA78
CA88
CBA8
CBA8
CBA8
C828
CFE8
C008
FFF8
FC30
FD20
1CC0
1FC0
1CC0
1D40
0F80
1E00
ENDCHAR
STARTCHAR Lcaron
ENCODING 317
SWIDTH 795 0
DWIDTH 14 0
BBX 13 16 1 -2
BITMAP
3EF8
4288
CBA8
CB28
CB10
CBF0
CBF8
CA88
CBA8
CBA8
C828
CFE8
C008
C008
FFF0
FFE0
ENDCHAR
STARTCHAR lcaron
ENCODING 318
SWIDTH 795 0
DWIDTH 14 0
BBX 13 16 1 -2
BITMAP
3EF8
4288
CBA8
CB28
CB10
CBF0
CBF8
CA88
CBA8
CBA8
C828
CFE8
C008
C008
FFF0
FFE0
ENDCHAR
STARTCHAR Ldot
ENCODING 319
SWIDTH 795 0
DWIDTH 14 0
BBX 13 16 1 -2
BITMAP
3E00
4200
CA70
CA88
CBA8
CB88
CBF0
CBF8
CB88
CBA8
C828
CFE8
C008
C008
FFF0
FFE0
ENDCHAR
STARTCHAR ldot
ENCODING 320
SWIDTH 795 0
DWIDTH 14 0
BBX 13 16 1 -2
BITMAP
3E00
4200
CA70
CA88
CBA8
CB88
CBF0
CBF8
CB88
CBA8
C828
CFE8
C008
C008
FFF0
FFE0
ENDCHAR
STARTCHAR Lslash
ENCODING 321
SWIDTH 805 0
DWIDTH 14 0
BBX 14 16 0 -2
BITMAP
1F00
2100
6500
6500
64C0
4440
4F7C
C4C4
E4D4
E4D4
6414
67F4
6004
7004
7FF8
7FF0
ENDCHAR
STARTCHAR lslash
ENCODING 322
SWIDTH 805 0
DWIDTH 14 0
BBX 14 16 0 -2
BITMAP
1F00
2100
6500
6500
64C0
4440
4F7C
C4C4
E4D4
E4D4
6414
67F4
6004
7004
7FF8
7FF0
ENDCHAR
STARTCHAR Nacute
ENCODING 323
SWIDTH 853 0
DWIDTH 15 0
BBX 14 20 1 -2
BITMAP
07F0
1BD0
3010
3010
2FEC
4284
C994
CC94
CA54
C914
C894
CA54
CB54
CB24
CB94
CB94
C384
C384
FDF8
F1E0
ENDCHAR
STARTCHAR nacute
ENCODING 324
SWIDTH 853 0
DWIDTH 15 0
BBX 14 20 1 -2
BITMAP
07F0
1BD0
3010
3010
2FEC
4284
C994
CC94
CA54
C914
C894
CA54
CB54
CB24
CB94
CB94
C384
C384
FDF8
F1E0
ENDCHAR
STARTCHAR Ncommaaccent
ENCODING 325
SWIDTH 853 0
DWIDTH 15 0
BBX 14 22 1 -8
BITMAP
3C7C
4284
C994
CC94
CA54
C914
C894
CA54
CB24
CB24
CB94
CB94
C384
C384
FFF8
F520
0CA0
1FA0
1CC0
1D40
0F80
1F00
ENDCHAR
STARTCHAR ncommaaccent
ENCODING 326
SWIDTH 853 0
DWIDTH 15 0
BBX 14 22 1 -8
BITMAP
3C7C
4284
C994
CC94
CA54
C914
C894
CA54
CB24
CB24
CB94
CB94
C384
C384
FFF8
F520
0CA0
1FA0
1CC0
1D40
0F80
1F00
ENDCHAR
STARTCHAR Ncaron
ENCODING 327
SWIDTH 853 0
DWIDTH 15 0
BBX 14 21 1 -2
BITMAP
0C20
13D0
77D0
7010
7C60
43BC
4284
C994
CC94
CA54
C914
C894
CA54
CB54
CB24
CB94
CB94
C384
C384
FDF8
F1E0
ENDCHAR
STARTCHAR ncaron
ENCODING 328
SWIDTH 853 0
DWIDTH 15 0
BBX 14 21 1 -2
BITMAP
0C20
13D0
77D0
7010
7C60
43BC
4284
C994
CC94
CA54
C914
C894
CA54
CB54
CB24
CB94
CB94
C384
C384
FDF8
F1E0
ENDCHAR
STARTCHAR napostrophe
ENCODING 329
SWIDTH 853 0
DWIDTH 15 0
BBX 14 23 1 -2
BITMAP
3C00
4200
DA00
C400
F400
DA00
C400
FC7C
C284
C994
CC94
CA54
C914
C894
CA54
CB54
CB24
CB94
CB94
C384
C384
FDF8
F1E0
ENDCHAR
STARTCHAR Eng
ENCODING 330
SWIDTH 846 0
DWIDTH 15 0
BBX 14 17 1 -3
BITMAP
1FF0
27C8
4824
C814
CB94
CB94
CB94
CB94
CB94
CB94
CB94
CB94
C214
C264
FE08
F7F0
07C0
ENDCHAR
STARTCHAR eng
ENCODING 331
SWIDTH 846 0
DWIDTH 15 0
BBX 14 17 1 -3
BITMAP
1FF0
27C8
4824
C814
CB94
CB94
CB94
CB94
CB94
CB94
CB94
CB94
C214
C264
FE08
F7F0
07C0
ENDCHAR
STARTCHAR Omacron
ENCODING 332
SWIDTH 837 0
DWIDTH 15 0
BBX 13 20 1 -2
BITMAP
0FE0
13D0
3010
7010
7FF0
27C8
4828
CB98
CB98
CB98
CB98
CB98
CB98
CB98
C828
C7C8
E008
F830
7FE0
3F80
ENDCHAR
STARTCHAR omacron
ENCODING 333
SWIDTH 837 0
DWIDTH 15 0
BBX 13 20 1 -2
BITMAP
0FE0
13D0
3010
7010
7FF0
27C8
4828
CB98
CB98
CB98
CB98
CB98
CB98
CB98
C828
C7C8
E008
F830
7FE0
3F80
ENDCHAR
STARTCHAR Obreve
ENCODING 334
SWIDTH 837 0
DWIDTH 15 0
BBX 13 21 1 -2
BITMAP
0E60
1390
3430
73D0
7820
3FF0
27C8
4828
CB98
CB98
CB98
CB98
CB98
CB98
CB98
C828
C7C8
E008
F830
7FC0
3F80
ENDCHAR
STARTCHAR obreve
ENCODING 335
SWIDTH 837 0
DWIDTH 15 0
BBX 13 21 1 -2
BITMAP
0E60
1390
3430
73D0
7820
3FF0
27C8
4828
CB98
CB98
CB98
CB98
CB98
CB98
CB98
C828
C7C8
E008
F830
7FC0
3F80
ENDCHAR
STARTCHAR Ohungarumlaut
ENCODING 336
SWIDTH 837 0
DWIDTH 15 0
BBX 13 23 1 -2
BITMAP
0730
0948
1088
35A8
35B0
3190
7110
7EF0
27C8
4828
CB98
CB98
CB98
CB98
CB98
CB98
CB98
C828
C7C8
E008
F830
7FE0
3F80
ENDCHAR
STARTCHAR ohungarumlaut
ENCODING 337
SWIDTH 837 0
DWIDTH 15 0
BBX 13 23 1 -2
BITMAP
0730
0948
1088
35A8
35B0
3190
7110
7EF0
27C8
4828
CB98
CB98
CB98
CB98
CB98
CB98
CB98
C828
C7C8
E008
F830
7FE0
3F80
ENDCHAR
STARTCHAR OE
ENCODING 338
SWIDTH 1115 0
DWIDTH 20 0
BBX 19 16 1 -2
BITMAP
1FFFE0
200020
47FFA0
C81020
CB97C0
CB9080
CB9E40
CB9040
CB9080
CB9700
C997C0
C7FFA0
E00020
F00020
7FFFC0
3FFF00
ENDCHAR
STARTCHAR oe
ENCODING 339
SWIDTH 1115 0
DWIDTH 20 0
BBX 19 16 1 -2
BITMAP
1FFFE0
200020
47FFA0
C81020
CB97C0
CB9080
CB9E40
CB9040
CB9080
CB9700
C997C0
C7FFA0
E00020
F00020
7FFFC0
3FFF00
ENDCHAR
STARTCHAR Racute
ENCODING 340
SWIDTH 843 0
DWIDTH 15 0
BBX 14 20 1 -2
BITMAP
07E0
19D0
3610
7020
7FF0
4008
CFC8
C828
CBA8
CB28
C838
CFE4
C814
C814
CBD4
CBD4
C3C4
C3C4
FDF8
F1F0
ENDCHAR
STARTCHAR racute
ENCODING 341
SWIDTH 843 0
DWIDTH 15 0
BBX 14 20 1 -2
BITMAP
07E0
19D0
3610
7020
7FF0
4008
CFC8
C828
CBA8
CB28
C838
CFE4
C814
C814
CBD4
CBD4
C3C4
C3C4
FDF8
F1F0
ENDCHAR
STARTCHAR Rcommaaccent
ENCODING 342
SWIDTH 843 0
DWIDTH 15 0
BBX 14 22 1 -8
BITMAP
3FF0
4FC8
C828
CB28
CBA8
C838
C828
CFE4
C814
CBD4
CBD4
CBD4
C3C4
C3C4
FFF8
F530
0CA0
1FA0
1CA0
1D40
0F80
0F00
ENDCHAR
STARTCHAR rcommaaccent
ENCODING 343
SWIDTH 843 0
DWIDTH 15 0
BBX 14 22 1 -8
BITMAP
3FF0
4FC8
C828
CB28
CBA8
C838
C828
CFE4
C814
CBD4
CBD4
CBD4
C3C4
C3C4
FFF8
F530
0CA0
1FA0
1CA0
1D40
0F80
0F00
ENDCHAR
STARTCHAR Rcaron
ENCODING 344
SWIDTH 843 0
DWIDTH 15 0
BBX 14 21 1 -2
BITMAP
0C20
13D0
33D0
7010
7C60
3FE0
4010
CFC8
C828
CBA8
CB28
C838
CFE4
C814
C814
CBD4
CBD4
C3C4
C3C4
FDF8
F1F0
ENDCHAR
STARTCHAR rcaron
ENCODING 345
SWIDTH 843 0
DWIDTH 15 0
BBX 14 21 1 -2
BITMAP
0C20
13D0
33D0
7010
7C60
3FE0
4010
CFC8
C828
CBA8
CB28
C838
CFE4
C814
C814
CBD4
CBD4
C3C4
C3C4
FDF8
F1F0
ENDCHAR
STARTCHAR Sacute
ENCODING 346
SWIDTH 750 0
DWIDTH 14 0
BBX 13 20 0 -2
BITMAP
07F0
1BD0
3010
3010
3FE8
3008
23E8
6408
65F0
E430
E708
E0E8
7828
7FA8
2028
27C8
6008
E010
FFE0
7F80
ENDCHAR
STARTCHAR sacute
ENCODING 347
SWIDTH 750 0
DWIDTH 14 0
BBX 13 20 0 -2
BITMAP
07F0
1BD0
3010
3010
3FE8
3008
23E8
6408
65F0
E430
E708
E0E8
7828
7FA8
2028
27C8
6008
E010
FFE0
7F80
ENDCHAR
STARTCHAR Scircumflex
ENCODING 348
SWIDTH 750 0
DWIDTH 14 0
BBX 13 21 0 -2
BITMAP
03C0
0C20
13D0
3010
37F0
3808
3008
23E8
6408
65F0
E430
E708
E0E8
7828
7FA8
2028
27C8
6008
E010
FFE0
7F80
ENDCHAR
STARTCHAR scircumflex
ENCODING 349
SWIDTH 750 0
DWIDTH 14 0
BBX 13 21 0 -2
BITMAP
03C0
0C20
13D0
3010
37F0
3808
3008
23E8
6408
65F0
E430
E708
E0E8
7828
7FA8
2028
27C8
6008
E010
FFE0
7F80
ENDCHAR
STARTCHAR Scedilla
ENCODING 350
SWIDTH 750 0
DWIDTH 14 0
BBX 13 18 0 -4
BITMAP
0FF8
1008
23E8
6408
65F0
E430
E708
E0E8
7828
7FA8
2028
27C8
6088
F130
FC40
7840
1F80
1E00
ENDCHAR
STARTCHAR scedilla
ENCODING 351
SWIDTH 750 0
DWIDTH 14 0
BBX 13 18 0 -4
BITMAP
0FF8
1008
23E8
6408
65F0
E430
E708
E0E8
7828
7FA8
2028
27C8
6088
F130
FC40
7840
1F80
1E00
ENDCHAR
STARTCHAR Scaron
ENCODING 352
SWIDTH 750 0
DWIDTH 14 0
BBX 13 21 0 -2
BITMAP
0C20
13D0
33D0
3010
3E60
3998
1008
23E8
6408
65F0
E430
E708
E0E8
7828
7FA8
2028
27C8
6008
E010
FFE0
7F80
ENDCHAR
STARTCHAR scaron
ENCODING 353
SWIDTH 750 0
DWIDTH 14 0
BBX 13 21 0 -2
BITMAP
0C20
13D0
33D0
3010
3E60
3998
1008
23E8
6408
65F0
E430
E708
E0E8
7828
7FA8
2028
27C8
6008
E010
FFE0
7F80
ENDCHAR
STARTCHAR Tcommaaccent
ENCODING 354
SWIDTH 756 0
DWIDTH 14 0
BBX 14 22 0 -8
BITMAP
3FFC
6FF4
E104
E104
FD38
FD20
1D20
1D20
1D20
1D20
1D20
1D20
1C20
1FC0
1C20
1D20
0CA0
1FA0
1CA0
1D40
0F80
0F00
ENDCHAR
STARTCHAR tcommaaccent
ENCODING 355
SWIDTH 756 0
DWIDTH 14 0
BBX 14 22 0 -8
BITMAP
3FFC
6FF4
E104
E104
FD38
FD20
1D20
1D20
1D20
1D20
1D20
1D20
1C20
1FC0
1C20
1D20
0CA0
1FA0
1CA0
1D40
0F80
0F00
ENDCHAR
STARTCHAR Tcaron
ENCODING 356
SWIDTH 756 0
DWIDTH 14 0
BBX 14 21 0 -2
BITMAP
0C20
13D0
33D0
3010
3E60
21BC
6004
EFF4
E104
FD38
FD30
1D20
1D20
1D20
1D20
1D20
1D20
1C20
1C20
1FC0
1F00
ENDCHAR
STARTCHAR tcaron
ENCODING 357
SWIDTH 756 0
DWIDTH 14 0
BBX 14 21 0 -2
BITMAP
0C20
13D0
33D0
3010
3E60
21BC
6004
EFF4
E104
FD38
FD30
1D20
1D20
1D20
1D20
1D20
1D20
1C20
1C20
1FC0
1F00
ENDCHAR
STARTCHAR Tbar
ENCODING 358
SWIDTH 756 0
DWIDTH 14 0
BBX 14 16 0 -2
BITMAP
3FFC
6004
EFF4
E104
FD38
FD30
1D30
17C8
7108
7D30
7D20
3D20
1C20
1C60
1F80
1F00
ENDCHAR
STARTCHAR tbar
ENCODING 359
SWIDTH 756 0
DWIDTH 14 0
BBX 14 16 0 -2
BITMAP
3FFC
6004
EFF4
E104
FD38
FD30
1D30
17C8
7108
7D30
7D20
3D20
1C20
1C60
1F80
1F00
ENDCHAR
STARTCHAR Utilde
ENCODING 360
SWIDTH 846 0
DWIDTH 15 0
BBX 14 21 1 -2
BITMAP
0FB0
1050
1790
3050
7610
4BEC
4384
CB94
CB94
CB94
CB94
CB94
CB94
CB94
C994
C824
C7C4
E008
F810
7FE0
3F80
ENDCHAR
STARTCHAR utilde
ENCODING 361
SWIDTH 846 0
DWIDTH 15 0
BBX 14 21 1 -2
BITMAP
0FB0
1050
1790
3050
7610
4BEC
4384
CB94
CB94
CB94
CB94
CB94
CB94
CB94
C994
C824
C7C4
E008
F810
7FE0
3F80
ENDCHAR
STARTCHAR Umacron
ENCODING 362
SWIDTH 846 0
DWIDTH 15 0
BBX 14 20 1 -2
BITMAP
0FE0
13D0
3010
7010
7FF8
4384
CB94
CB94
CB94
CB94
CB94
CB94
CB94
C994
C824
C7C4
E008
F810
7FE0
3F80
ENDCHAR
STARTCHAR umacron
ENCODING 363
SWIDTH 846 0
DWIDTH 15 0
BBX 14 20 1 -2
BITMAP
0FE0
13D0
3010
7010
7FF8
4384
CB94
CB94
CB94
CB94
CB94
CB94
CB94
C994
C824
C7C4
E008
F810
7FE0
3F80
ENDCHAR
STARTCHAR Ubreve
ENCODING 364
SWIDTH 846 0
DWIDTH 15 0
BBX 14 21 1 -2
BITMAP
0E70
1390
3430
73D0
7C20
43DC
4384
CB94
CB94
CB94
CB94
CB94
CB94
CB94
C994
C824
C7C4
E008
F810
7FE0
3F80
ENDCHAR
STARTCHAR ubreve
ENCODING 365
SWIDTH 846 0
DWIDTH 15 0
BBX 14 21 1 -2
BITMAP
0E70
1390
3430
73D0
7C20
43DC
4384
CB94
CB94
CB94
CB94
CB94
CB94
CB94
C994
C824
C7C4
E008
F810
7FE0
3F80
ENDCHAR
STARTCHAR Uring
ENCODING 366
SWIDTH 846 0
DWIDTH 15 0
BBX 14 24 1 -2
BITMAP
07A0
0BD0
1430
35B0
75B0
7430
73D0
7C20
43DC
4384
CB94
CB94
CB94
CB94
CB94
CB94
CB94
CB94
C9A4
C7C4
E008
F810
7FE0
3F80
ENDCHAR
STARTCHAR uring
ENCODING 367
SWIDTH 846 0
DWIDTH 15 0
BBX 14 24 1 -2
BITMAP
07A0
0BD0
1430
35B0
75B0
7430
73D0
7C20
43DC
4384
CB94
CB94
CB94
CB94
CB94
CB94
CB94
CB94
C9A4
C7C4
E008
F810
7FE0
3F80
ENDCHAR
STARTCHAR Uhungarumlaut
ENCODING 368
SWIDTH 846 0
DWIDTH 15 0
BBX 14 23 1 -2
BITMAP
0738
08C8
1888
32A8
35A8
3190
3190
3FF8
4384
CB94
CB94
CB94
CB94
CB94
CB94
CB94
C994
C824
C7C4
E008
F810
7FE0
3F80
ENDCHAR
STARTCHAR uhungarumlaut
ENCODING 369
SWIDTH 846 0
DWIDTH 15 0
BBX 14 23 1 -2
BITMAP
0738
08C8
1888
32A8
35A8
3190
3190
3FF8
4384
CB94
CB94
CB94
CB94
CB94
CB94
CB94
C994
C824
C7C4
E008
F810
7FE0
3F80
ENDCHAR
STARTCHAR Uogonek
ENCODING 370
SWIDTH 846 0
DWIDTH 15 0
BBX 14 19 1 -5
BITMAP
3E7C
4284
CB94
CB94
CB94
CB94
CB94
CB94
CB94
CB94
C994
C824
E7C8
F110
7D60
3DA0
0C20
1FC0
0F80
ENDCHAR
STARTCHAR uogonek
ENCODING 371
SWIDTH 846 0
DWIDTH 15 0
BBX 14 19 1 -5
BITMAP
3E7C
4284
CB94
CB94
CB94
CB94
CB94
CB94
CB94
CB94
C994
C824
E7C8
F110
7D60
3DA0
0C20
1FC0
0F80
ENDCHAR
STARTCHAR Wcircumflex
ENCODING 372
SWIDTH 931 0
DWIDTH 17 0
BBX 15 21 1 -2
BITMAP
01C0
0630
09C8
1A28
3FF8
43E6
4262
CAEA
CAEA
CBEA
CA2A
CA2A
CAAA
C94A
CA2A
CAAA
E492
E1C2
F1C4
7FF8
79F0
ENDCHAR
STARTCHAR wcircumflex
ENCODING 373
SWIDTH 931 0
DWIDTH 17 0
BBX 15 21 1 -2
BITMAP
01C0
0630
09C8
1A28
3FF8
43E6
4262
CAEA
CAEA
CBEA
CA2A
CA2A
CAAA
C94A
CA2A
CAAA
E492
E1C2
F1C4
7FF8
79F0
ENDCHAR
STARTCHAR Ycircumflex
ENCODING 374
SWIDTH 805 0
DWIDTH 14 0
BBX 14 21 0 -2
BITMAP
01C0
0630
09C8
1A28
3FE8
21D4
61C4
E9D4
E9D4
E9D4
E5D4
E4A4
F228
79C8
7C90
3CA0
1CA0
0C20
0C20
0FC0
0F00
ENDCHAR
STARTCHAR ycircumflex
ENCODING 375
SWIDTH 805 0
DWIDTH 14 0
BBX 14 21 0 -2
BITMAP
01C0
0630
09C8
1A28
3FE8
21D4
61C4
E9D4
E9D4
E9D4
E5D4
E4A4
F228
79C8
7C90
3CA0
1CA0
0C20
0C20
0FC0
0F00
ENDCHAR
STARTCHAR Ydieresis
ENCODING 376
SWIDTH 805 0
DWIDTH 14 0
BBX 14 21 0 -2
BITMAP
0F70
1088
32A8
3088
3088
3FFC
61C4
E9D4
E9D4
E9D4
E494
E424
F228
79C8
3C90
3CA0
1CA0
0C20
0C20
0FC0
0F00
ENDCHAR
STARTCHAR Zacute
ENCODING 377
SWIDTH 760 0
DWIDTH 14 0
BBX 13 20 0 -2
BITMAP
07F0
1BC8
3008
3010
2FE8
2008
67E8
6028
7F48
7E48
0490
0920
1240
2440
24F8
67F8
E008
E008
FFF0
FFE0
ENDCHAR
STARTCHAR zacute
ENCODING 378
SWIDTH 760 0
DWIDTH 14 0
BBX 13 20 0 -2
BITMAP
07F0
1BC8
3008
3010
2FE8
2008
67E8
6028
7F48
7E48
0490
0920
1240
2440
24F8
67F8
E008
E008
FFF0
FFE0
ENDCHAR
STARTCHAR Zdotaccent
ENCODING 379
SWIDTH 760 0
DWIDTH 14 0
BBX 13 21 0 -2
BITMAP
03C0
0420
0CA0
1C20
1C20
13D8
2008
67E8
6028
7F48
7E48
0490
0920
1240
2440
24F8
67F8
E008
E008
FFF0
FFE0
ENDCHAR
STARTCHAR zdotaccent
ENCODING 380
SWIDTH 760 0
DWIDTH 14 0
BBX 13 21 0 -2
BITMAP
03C0
0420
0CA0
1C20
1C20
13D8
2008
67E8
6028
7F48
7E48
0490
0920
1240
2440
24F8
67F8
E008
E008
FFF0
FFE0
ENDCHAR
STARTCHAR Zcaron
ENCODING 381
SWIDTH 760 0
DWIDTH 14 0
BBX 13 21 0 -2
BITMAP
0C20
13D0
33D0
3010
3E60
2198
2008
67E8
6028
7F48
7E48
0490
0920
1240
2440
24F8
67F8
E008
E008
FFF0
FFE0
ENDCHAR
STARTCHAR zcaron
ENCODING 382
SWIDTH 760 0
DWIDTH 14 0
BBX 13 21 0 -2
BITMAP
0C20
13D0
33D0
3010
3E60
2198
2008
67E8
6028
7F48
7E48
0490
0920
1240
2440
24F8
67F8
E008
E008
FFF0
FFE0
ENDCHAR
STARTCHAR Schwa
ENCODING 399
SWIDTH 815 0
DWIDTH 15 0
BBX 13 16 1 -2
BITMAP
1FF0
27C8
6028
7FA8
7F98
4018
CFE8
D018
D398
D3A8
C828
C7C8
E008
F830
FFC0
3F80
ENDCHAR
STARTCHAR florin
ENCODING 402
SWIDTH 674 0
DWIDTH 12 0
BBX 12 16 0 -2
BITMAP
03F0
0410
08D0
1910
1960
1960
6110
EFD0
E110
F960
E140
6E40
E080
E100
FE00
F800
ENDCHAR
STARTCHAR Ohorn
ENCODING 416
SWIDTH 847 0
DWIDTH 15 0
BBX 15 18 1 -2
BITMAP
001C
0022
1FCA
27F4
4824
CB94
CB94
CB94
CB94
CB94
CB94
CB94
C824
C7C4
E008
F830
FFC0
3F80
ENDCHAR
STARTCHAR ohorn
ENCODING 417
SWIDTH 847 0
DWIDTH 15 0
BBX 15 18 1 -2
BITMAP
001C
0022
1FCA
27F4
4824
CB94
CB94
CB94
CB94
CB94
CB94
CB94
C824
C7C4
E008
F830
FFC0
3F80
ENDCHAR
STARTCHAR Uhorn
ENCODING 431
SWIDTH 856 0
DWIDTH 15 0
BBX 15 18 1 -2
BITMAP
001C
0022
3E4A
428A
CB94
CB94
CB94
CB94
CB94
CB94
CB94
C994
C824
C7C4
E008
F830
7FC0
3F80
ENDCHAR
STARTCHAR uhorn
ENCODING 432
SWIDTH 856 0
DWIDTH 15 0
BBX 15 18 1 -2
BITMAP
001C
0022
3E4A
428A
CB94
CB94
CB94
CB94
CB94
CB94
CB94
C994
C824
C7C4
E008
F830
7FC0
3F80
ENDCHAR
STARTCHAR Acaron
ENCODING 461
SWIDTH 830 0
DWIDTH 15 0
BBX 13 21 1 -2
BITMAP
1C20
33D0
77D0
7010
7EE0
7120
1010
3390
2448
6528
69A8
4BA8
C818
CFE8
C818
C818
CB98
C388
C388
FDF0
F1E0
ENDCHAR
STARTCHAR acaron
ENCODING 462
SWIDTH 830 0
DWIDTH 15 0
BBX 13 21 1 -2
BITMAP
1C20
33D0
77D0
7010
7EE0
7120
1010
3390
2448
6528
69A8
4BA8
C818
CFE8
C818
C818
CB98
C388
C388
FDF0
F1E0
ENDCHAR
STARTCHAR Icaron
ENCODING 463
SWIDTH 705 0
DWIDTH 13 0
BBX 11 21 1 -2
BITMAP
3840
67A0
EFA0
E020
FDC0
C260
4020
CFA0
C220
F260
F240
F280
3280
3280
3280
3260
4FA0
C020
C020
FFC0
FF80
ENDCHAR
STARTCHAR icaron
ENCODING 464
SWIDTH 705 0
DWIDTH 13 0
BBX 11 21 1 -2
BITMAP
3840
67A0
EFA0
E020
FDC0
C260
4020
CFA0
C220
F260
F240
F280
3280
3280
3280
3260
4FA0
C020
C020
FFC0
FF80
ENDCHAR
STARTCHAR Ocaron
ENCODING 465
SWIDTH 837 0
DWIDTH 15 0
BBX 13 22 1 -2
BITMAP
0820
17D0
3050
7390
7010
7EE0
3930
27C8
4828
CB98
CB98
CB98
CB98
CB98
CB98
CB98
C828
C7C8
E008
F830
7FC0
3F80
ENDCHAR
STARTCHAR ocaron
ENCODING 466
SWIDTH 837 0
DWIDTH 15 0
BBX 13 22 1 -2
BITMAP
0820
17D0
3050
7390
7010
7EE0
3930
27C8
4828
CB98
CB98
CB98
CB98
CB98
CB98
CB98
C828
C7C8
E008
F830
7FC0
3F80
ENDCHAR
STARTCHAR Ucaron
ENCODING 467
SWIDTH 846 0
DWIDTH 15 0
BBX 14 22 1 -2
BITMAP
0820
17D0
1050
3390
7830
7C40
23BC
4284
CB94
CB94
CB94
CB94
CB94
CB94
CB94
C994
C824
C7C4
E008
F810
7FE0
3F80
ENDCHAR
STARTCHAR ucaron
ENCODING 468
SWIDTH 846 0
DWIDTH 15 0
BBX 14 22 1 -2
BITMAP
0820
17D0
1050
3390
7830
7C40
23BC
4284
CB94
CB94
CB94
CB94
CB94
CB94
CB94
C994
C824
C7C4
E008
F810
7FE0
3F80
ENDCHAR
STARTCHAR Udieresismacron
ENCODING 469
SWIDTH 846 0
DWIDTH 15 0
BBX 14 25 1 -2
BITMAP
0FE0
1010
33D0
7010
7FE0
7110
3530
7110
7110
7FF8
4384
CB94
CB94
CB94
CB94
CB94
CB94
CB94
C994
C824
C7C4
E008
F810
7FE0
3F80
ENDCHAR
STARTCHAR udieresismacron
ENCODING 470
SWIDTH 846 0
DWIDTH 15 0
BBX 14 25 1 -2
BITMAP
0FE0
1010
33D0
7010
7FE0
7110
3530
7110
7110
7FF8
4384
CB94
CB94
CB94
CB94
CB94
CB94
CB94
C994
C824
C7C4
E008
F810
7FE0
3F80
ENDCHAR
STARTCHAR Udieresisacute
ENCODING 471
SWIDTH 846 0
DWIDTH 15 0
BBX 14 25 1 -2
BITMAP
00C0
03C0
0620
0C20
0EF0
1110
7530
7110
7110
7FF8
C384
CB94
CB94
CB94
CB94
CB94
CB94
CB94
C994
C824
C7C4
E008
F810
7FE0
3F80
ENDCHAR
STARTCHAR udieresisacute
ENCODING 472
SWIDTH 846 0
DWIDTH 15 0
BBX 14 25 1 -2
BITMAP
00C0
03C0
0620
0C20
0EF0
1110
7530
7110
7110
7FF8
C384
CB94
CB94
CB94
CB94
CB94
CB94
CB94
C994
C824
C7C4
E008
F810
7FE0
3F80
ENDCHAR
STARTCHAR Udieresiscaron
ENCODING 473
SWIDTH 846 0
DWIDTH 15 0
BBX 14 26 1 -2
BITMAP
0C30
13D0
3050
7390
7C20
7FF0
1110
3530
7110
7110
7FF8
C384
CB94
CB94
CB94
CB94
CB94
CB94
CB94
C994
C824
C7C4
E008
F810
7FE0
3F80
ENDCHAR
STARTCHAR udieresiscaron
ENCODING 474
SWIDTH 846 0
DWIDTH 15 0
BBX 14 26 1 -2
BITMAP
0C30
13D0
3050
7390
7C20
7FF0
1110
3530
7110
7110
7FF8
C384
CB94
CB94
CB94
CB94
CB94
CB94
CB94
C994
C824
C7C4
E008
F810
7FE0
3F80
ENDCHAR
STARTCHAR Udieresisgrave
ENCODING 475
SWIDTH 846 0
DWIDTH 15 0
BBX 14 25 1 -2
BITMAP
0700
0FC0
1C40
1C40
1EF0
1110
7530
7110
7110
7FF8
C384
CB94
CB94
CB94
CB94
CB94
CB94
CB94
C994
C824
C7C4
E008
F810
7FE0
3F80
ENDCHAR
STARTCHAR udieresisgrave
ENCODING 476
SWIDTH 846 0
DWIDTH 15 0
BBX 14 25 1 -2
BITMAP
0700
0FC0
1C40
1C40
1EF0
1110
7530
7110
7110
7FF8
C384
CB94
CB94
CB94
CB94
CB94
CB94
CB94
C994
C824
C7C4
E008
F810
7FE0
3F80
ENDCHAR
STARTCHAR Gcaron
ENCODING 486
SWIDTH 808 0
DWIDTH 15 0
BBX 13 21 1 -2
BITMAP
1C60
3390
77D0
7030
7EC0
7130
2010
47D0
4810
CBE0
CBC0
CA78
CA88
CBA8
CBA8
C828
C7E8
E008
F008
7FF0
3FE0
ENDCHAR
STARTCHAR gcaron
ENCODING 487
SWIDTH 808 0
DWIDTH 15 0
BBX 13 21 1 -2
BITMAP
1C60
3390
77D0
7030
7EC0
7130
2010
47D0
4810
CBE0
CBC0
CA78
CA88
CBA8
CBA8
C828
C7E8
E008
F008
7FF0
3FE0
ENDCHAR
STARTCHAR Scommaaccent
ENCODING 536
SWIDTH 750 0
DWIDTH 14 0
BBX 13 22 0 -8
BITMAP
0FF8
13E8
2408
6408
65F0
E410
E3C8
F028
7C28
7FA8
2028
67C8
6008
FFF0
FC20
7DA0
0C40
0F40
0CA0
0D40
0F80
0F00
ENDCHAR
STARTCHAR scommaaccent
ENCODING 537
SWIDTH 750 0
DWIDTH 14 0
BBX 13 22 0 -8
BITMAP
0FF8
13E8
2408
6408
65F0
E410
E3C8
F028
7C28
7FA8
2028
67C8
6008
FFF0
FC20
7DA0
0C40
0F40
0CA0
0D40
0F80
0F00
ENDCHAR
STARTCHAR uni021A
ENCODING 538
SWIDTH 756 0
DWIDTH 14 0
BBX 14 22 0 -8
BITMAP
3FFC
6FF4
E104
E104
FD38
FD20
1D20
1D20
1D20
1D20
1D20
1D20
1C20
1FC0
1C20
1D20
0CA0
1FA0
1CA0
1D40
0F80
0F00
ENDCHAR
STARTCHAR uni021B
ENCODING 539
SWIDTH 756 0
DWIDTH 14 0
BBX 14 22 0 -8
BITMAP
3FFC
6FF4
E104
E104
FD38
FD20
1D20
1D20
1D20
1D20
1D20
1D20
1C20
1FC0
1C20
1D20
0CA0
1FA0
1CA0
1D40
0F80
0F00
ENDCHAR
STARTCHAR dotlessj
ENCODING 567
SWIDTH 788 0
DWIDTH 14 0
BBX 13 16 0 -2
BITMAP
0078
0088
0198
0198
0198
0198
1F98
2198
6998
E998
E428
E3C8
F008
7810
7FE0
1F80
ENDCHAR
STARTCHAR ascript
ENCODING 593
SWIDTH 846 0
DWIDTH 15 0
BBX 13 16 1 -2
BITMAP
1FF0
27C8
4828
C918
CB98
CB98
CB98
CB98
CB98
CB98
C818
C7E8
E008
F008
FFF0
7FE0
ENDCHAR
STARTCHAR schwa
ENCODING 601
SWIDTH 815 0
DWIDTH 15 0
BBX 13 16 1 -2
BITMAP
1FF0
27C8
6028
7FA8
7F98
4018
CFE8
D018
D398
D3A8
C828
C7C8
E008
F830
FFC0
3F80
ENDCHAR
STARTCHAR gscript
ENCODING 609
SWIDTH 815 0
DWIDTH 15 0
BBX 14 17 0 -3
BITMAP
0FF8
1004
23E4
6414
69CC
E9CC
E9CC
E40C
F3F4
780C
7FCC
3F8C
1014
33E4
3008
3FF0
3FC0
ENDCHAR
STARTCHAR commaturnedmod
ENCODING 699
SWIDTH 600 0
DWIDTH 11 0
BBX 7 8 2 6
BITMAP
1E
2E
4C
D2
CE
C2
FC
F8
ENDCHAR
STARTCHAR apostrophemod
ENCODING 700
SWIDTH 600 0
DWIDTH 11 0
BBX 7 8 2 7
BITMAP
3E
4A
C6
FE
E6
EA
7C
F0
ENDCHAR
STARTCHAR ringhalfright
ENCODING 702
SWIDTH 412 0
DWIDTH 7 0
BBX 7 9 0 5
BITMAP
3E
6A
F6
F6
E6
6A
E2
FC
F0
ENDCHAR
STARTCHAR ringhalfleft
ENCODING 703
SWIDTH 412 0
DWIDTH 7 0
BBX 7 9 0 5
BITMAP
1E
26
6A
EC
EE
E6
E2
FC
78
ENDCHAR
STARTCHAR circumflex
ENCODING 710
SWIDTH 600 0
DWIDTH 11 0
BBX 11 7 0 12
BITMAP
0700
18C0
2720
68A0
E720
FFC0
E780
ENDCHAR
STARTCHAR caron
ENCODING 711
SWIDTH 600 0
DWIDTH 11 0
BBX 11 7 0 12
BITMAP
1840
27A0
68A0
E720
F8C0
FF00
1C00
ENDCHAR
STARTCHAR verticallinemod
ENCODING 712
SWIDTH 456 0
DWIDTH 8 0
BBX 7 9 1 5
BITMAP
7E
42
CA
CA
CA
CA
C2
FC
F8
ENDCHAR
STARTCHAR firsttonechinese
ENCODING 713
SWIDTH 600 0
DWIDTH 11 0
BBX 11 6 0 12
BITMAP
1FC0
2020
6FA0
E020
FFC0
FF80
ENDCHAR
STARTCHAR secondtonechinese
ENCODING 714
SWIDTH 600 0
DWIDTH 11 0
BBX 11 6 0 12
BITMAP
1FE0
23A0
6C20
E3C0
FF80
FC00
ENDCHAR
STARTCHAR fourthtonechinese
ENCODING 715
SWIDTH 600 0
DWIDTH 11 0
BBX 11 6 0 12
BITMAP
3FC0
6E20
E1A0
FE20
FFC0
1F00
ENDCHAR
STARTCHAR verticallinelowmod
ENCODING 716
SWIDTH 456 0
DWIDTH 8 0
BBX 7 9 1 -4
BITMAP
7E
42
CA
CA
CA
CA
C2
FC
F8
ENDCHAR
STARTCHAR breve
ENCODING 728
SWIDTH 600 0
DWIDTH 11 0
BBX 11 7 0 12
BITMAP
1CC0
2320
68A0
E720
F040
FF80
7E00
ENDCHAR
STARTCHAR dotaccent
ENCODING 729
SWIDTH 600 0
DWIDTH 11 0
BBX 7 6 2 12
BITMAP
1C
62
EA
E2
FC
F8
ENDCHAR
STARTCHAR ring
ENCODING 730
SWIDTH 600 0
DWIDTH 11 0
BBX 11 10 0 12
BITMAP
0F80
1060
2720
6BA0
EB60
E8A0
E720
F040
FF80
7E00
ENDCHAR
STARTCHAR ogonek
ENCODING 731
SWIDTH 600 0
DWIDTH 11 0
BBX 7 7 2 -5
BITMAP
1C
2C
EA
EA
E2
FE
F8
ENDCHAR
STARTCHAR tilde
ENCODING 732
SWIDTH 600 0
DWIDTH 11 0
BBX 11 6 0 12
BITMAP
1FC0
2020
6FA0
E060
FF80
FF00
ENDCHAR
STARTCHAR hungarumlaut
ENCODING 733
SWIDTH 600 0
DWIDTH 11 0
BBX 11 8 0 12
BITMAP
1CE0
2320
6AA0
CAA0
C620
C640
FF80
EF00
ENDCHAR
STARTCHAR gravecmb
ENCODING 768
SWIDTH 100 0
DWIDTH 2 0
BBX 10 6 -4 12
BITMAP
7F80
4E40
C140
FC40
FF80
3F00
ENDCHAR
STARTCHAR acutecmb
ENCODING 769
SWIDTH 100 0
DWIDTH 2 0
BBX 10 6 -4 12
BITMAP
3FC0
4740
C840
C380
FF00
F800
ENDCHAR
STARTCHAR circumflexcmb
ENCODING 770
SWIDTH 100 0
DWIDTH 2 0
BBX 10 7 -4 12
BITMAP
0F00
3080
4F40
C040
CF40
FF80
E700
ENDCHAR
STARTCHAR tildecmb
ENCODING 771
SWIDTH 100 0
DWIDTH 2 0
BBX 10 6 -4 12
BITMAP
3FC0
4040
CF40
C040
FF80
FE00
ENDCHAR
STARTCHAR uni0304
ENCODING 772
SWIDTH 600 0
DWIDTH 11 0
BBX 11 6 0 12
BITMAP
1FC0
2020
6FA0
E020
FFC0
FF80
ENDCHAR
STARTCHAR brevecmb
ENCODING 774
SWIDTH 100 0
DWIDTH 2 0
BBX 10 7 -4 12
BITMAP
39C0
4640
D0C0
CF40
E080
FF00
7C00
ENDCHAR
STARTCHAR dotaccentcmb
ENCODING 775
SWIDTH 100 0
DWIDTH 2 0
BBX 7 6 -3 12
BITMAP
1E
22
66
E2
FE
78
ENDCHAR
STARTCHAR dieresiscmb
ENCODING 776
SWIDTH 100 0
DWIDTH 2 0
BBX 11 6 -5 12
BITMAP
1EE0
2120
6960
E120
FFE0
FFC0
ENDCHAR
STARTCHAR hookcmb
ENCODING 777
SWIDTH 100 0
DWIDTH 2 0
BBX 8 8 -3 12
BITMAP
1E
2F
7D
F3
75
7E
7C
20
ENDCHAR
STARTCHAR ringcmb
ENCODING 778
SWIDTH 100 0
DWIDTH 2 0
BBX 10 10 -4 12
BITMAP
1F80
2040
4F40
D6C0
D6C0
D0C0
CF40
E080
FF00
7C00
ENDCHAR
STARTCHAR hungarumlautcmb
ENCODING 779
SWIDTH 100 0
DWIDTH 2 0
BBX 11 8 -4 12
BITMAP
1CE0
2320
6B60
6AA0
C220
C620
FFC0
FF00
ENDCHAR
STARTCHAR caroncmb
ENCODING 780
SWIDTH 100 0
DWIDTH 2 0
BBX 10 7 -4 12
BITMAP
3080
4F40
C040
CF40
F080
FF00
3800
ENDCHAR
STARTCHAR horncmb
ENCODING 795
SWIDTH 100 0
DWIDTH 2 0
BBX 7 7 -3 9
BITMAP
0E
32
66
7A
E4
F8
E0
ENDCHAR
STARTCHAR dotbelowcmb
ENCODING 803
SWIDTH 100 0
DWIDTH 2 0
BBX 7 6 -3 -7
BITMAP
1E
22
66
E2
FE
78
ENDCHAR
STARTCHAR dieresisbelowcmb
ENCODING 804
SWIDTH 100 0
DWIDTH 2 0
BBX 11 6 -5 -6
BITMAP
1EE0
2120
6960
E120
FFE0
FFC0
ENDCHAR
STARTCHAR commaaccent
ENCODING 806
SWIDTH 600 0
DWIDTH 11 0
BBX 7 8 2 -8
BITMAP
3E
4A
C6
FE
E6
EA
7C
F0
ENDCHAR
STARTCHAR cedillacmb
ENCODING 807
SWIDTH 100 0
DWIDTH 2 0
BBX 8 8 -3 -5
BITMAP
0C
13
35
6A
62
62
FC
F0
ENDCHAR
STARTCHAR ogonekcmb
ENCODING 808
SWIDTH 100 0
DWIDTH 2 0
BBX 7 7 -2 -5
BITMAP
1C
6C
CE
CA
E2
FC
F8
ENDCHAR
STARTCHAR brevebelowcmb
ENCODING 814
SWIDTH 100 0
DWIDTH 2 0
BBX 10 7 -4 -7
BITMAP
39C0
4640
D0C0
CF40
E080
FF00
7C00
ENDCHAR
STARTCHAR macronbelowcmb
ENCODING 817
SWIDTH 100 0
DWIDTH 2 0
BBX 10 6 -4 -6
BITMAP
3FC0
4040
CF40
C040
FF80
FF00
ENDCHAR
STARTCHAR uni0394
ENCODING 916
SWIDTH 830 0
DWIDTH 15 0
BBX 13 16 1 -2
BITMAP
0FE0
1010
3390
3450
6548
6928
6928
6BA8
CBA8
CB98
C818
C818
C7E8
C008
FFF8
FFE0
ENDCHAR
STARTCHAR uni03A9
ENCODING 937
SWIDTH 877 0
DWIDTH 16 0
BBX 16 16 0 -2
BITMAP
07F8
0804
13F2
240A
64EA
64EA
64EA
64EA
64EA
74EA
64C9
6251
EC4D
E041
FFFE
FFFC
ENDCHAR
STARTCHAR uni03BC
ENCODING 956
SWIDTH 813 0
DWIDTH 15 0
BBX 13 15 1 -3
BITMAP
3C78
4288
C388
CBA8
CBA8
CBA8
CBA8
CBA8
C828
CFC8
C808
C810
C3E0
FF80
F800
ENDCHAR
STARTCHAR pi
ENCODING 960
SWIDTH 821 0
DWIDTH 15 0
BBX 13 13 1 -2
BITMAP
3FF8
4008
CFE8
C828
CBA8
CBA8
CBA8
CBA8
CBA8
C388
C388
FFF0
F3E0
ENDCHAR
STARTCHAR Ddotbelow
ENCODING 7692
SWIDTH 846 0
DWIDTH 15 0
BBX 14 20 1 -6
BITMAP
3FF0
4008
CFE4
C814
CB94
CB94
CB94
CB94
CB94
CB94
CB94
CFE4
C008
C018
FFE0
FC40
0D40
1C40
1F80
1F00
ENDCHAR
STARTCHAR ddotbelow
ENCODING 7693
SWIDTH 846 0
DWIDTH 15 0
BBX 14 20 1 -6
BITMAP
3FF0
4008
CFE4
C814
CB94
CB94
CB94
CB94
CB94
CB94
CB94
CFE4
C008
C018
FFE0
FC40
0D40
1C40
1F80
1F00
ENDCHAR
STARTCHAR Dlinebelow
ENCODING 7694
SWIDTH 846 0
DWIDTH 15 0
BBX 14 20 1 -6
BITMAP
3FF0
4008
CFE4
C814
CB94
CB94
CB94
CB94
CB94
CB94
CB94
CFE4
C008
C010
FFE0
F010
33D0
7010
7FE0
7FC0
ENDCHAR
STARTCHAR dlinebelow
ENCODING 7695
SWIDTH 846 0
DWIDTH 15 0
BBX 14 20 1 -6
BITMAP
3FF0
4008
CFE4
C814
CB94
CB94
CB94
CB94
CB94
CB94
CB94
CFE4
C008
C010
FFE0
F010
33D0
7010
7FE0
7FC0
ENDCHAR
STARTCHAR Gmacron
ENCODING 7712
SWIDTH 808 0
DWIDTH 15 0
BBX 13 20 1 -2
BITMAP
0FF0
13D0
3010
3010
3FF0
2010
27D0
4810
CBE0
CBC0
CA78
CA88
CBA8
CBA8
C828
C7E8
E008
F008
7FF0
3FE0
ENDCHAR
STARTCHAR gmacron
ENCODING 7713
SWIDTH 808 0
DWIDTH 15 0
BBX 13 20 1 -2
BITMAP
0FF0
13D0
3010
3010
3FF0
2010
27D0
4810
CBE0
CBC0
CA78
CA88
CBA8
CBA8
C828
C7E8
E008
F008
7FF0
3FE0
ENDCHAR
STARTCHAR Hdotbelow
ENCODING 7716
SWIDTH 859 0
DWIDTH 15 0
BBX 14 20 1 -6
BITMAP
3E7C
4284
CB94
CB94
CB94
C814
C814
CFF4
C814
CB94
CB94
CB94
C384
C384
FFF8
F420
0D20
1C20
1FC0
1F00
ENDCHAR
STARTCHAR hdotbelow
ENCODING 7717
SWIDTH 859 0
DWIDTH 15 0
BBX 14 20 1 -6
BITMAP
3E7C
4284
CB94
CB94
CB94
C814
C814
CFF4
C814
CB94
CB94
CB94
C384
C384
FFF8
F420
0D20
1C20
1FC0
1F00
ENDCHAR
STARTCHAR Hbrevebelow
ENCODING 7722
SWIDTH 859 0
DWIDTH 15 0
BBX 14 21 1 -7
BITMAP
3E7C
4284
CB94
CB94
CB94
C814
CFF4
C814
C814
CB94
CB94
CB94
C384
C384
FFF8
F190
3430
73D0
3C20
3FC0
1F00
ENDCHAR
STARTCHAR hbrevebelow
ENCODING 7723
SWIDTH 859 0
DWIDTH 15 0
BBX 14 21 1 -7
BITMAP
3E7C
4284
CB94
CB94
CB94
C814
CFF4
C814
C814
CB94
CB94
CB94
C384
C384
FFF8
F190
3430
73D0
3C20
3FC0
1F00
ENDCHAR
STARTCHAR Ldotbelow
ENCODING 7734
SWIDTH 795 0
DWIDTH 14 0
BBX 13 20 1 -6
BITMAP
3E00
4200
CA00
CA00
CA00
CA00
CA78
CA88
CBA8
CBA8
C828
CFE8
C008
C008
FFF0
FC20
1D40
1C40
1F80
1F00
ENDCHAR
STARTCHAR ldotbelow
ENCODING 7735
SWIDTH 795 0
DWIDTH 14 0
BBX 13 20 1 -6
BITMAP
3E00
4200
CA00
CA00
CA00
CA00
CA78
CA88
CBA8
CBA8
C828
CFE8
C008
C008
FFF0
FC20
1D40
1C40
1F80
1F00
ENDCHAR
STARTCHAR Ldotbelowmacron
ENCODING 7736
SWIDTH 795 0
DWIDTH 14 0
BBX 13 24 1 -6
BITMAP
0FE0
17D0
7010
7010
7FE0
4380
CA00
CA00
CA00
CA00
CA78
CA88
CBA8
CBA8
C828
CFE8
C008
C008
FFF0
FC20
1D40
1C40
1F80
1F00
ENDCHAR
STARTCHAR ldotbelowmacron
ENCODING 7737
SWIDTH 795 0
DWIDTH 14 0
BBX 13 24 1 -6
BITMAP
0FE0
17D0
7010
7010
7FE0
4380
CA00
CA00
CA00
CA00
CA78
CA88
CBA8
CBA8
C828
CFE8
C008
C008
FFF0
FC20
1D40
1C40
1F80
1F00
ENDCHAR
STARTCHAR Llinebelow
ENCODING 7738
SWIDTH 795 0
DWIDTH 14 0
BBX 13 20 1 -6
BITMAP
3E00
4200
CA00
CA00
CA00
CA00
CA78
CA88
CBA8
CBA8
C828
CFE8
C008
FFF8
F010
F790
7010
7020
7FC0
7F80
ENDCHAR
STARTCHAR llinebelow
ENCODING 7739
SWIDTH 795 0
DWIDTH 14 0
BBX 13 20 1 -6
BITMAP
3E00
4200
CA00
CA00
CA00
CA00
CA78
CA88
CBA8
CBA8
C828
CFE8
C008
FFF8
F010
F790
7010
7020
7FC0
7F80
ENDCHAR
STARTCHAR Mdotbelow
ENCODING 7746
SWIDTH 949 0
DWIDTH 17 0
BBX 15 20 1 -6
BITMAP
3E3E
4142
C94A
CC9A
CA2A
C94A
CA9A
CA2A
CA2A
CBEA
CB6A
CA6A
C262
C262
FDFC
F218
0EA0
0E20
0FC0
0F80
ENDCHAR
STARTCHAR mdotbelow
ENCODING 7747
SWIDTH 949 0
DWIDTH 17 0
BBX 15 20 1 -6
BITMAP
3E3E
4142
C94A
CC9A
CA2A
C94A
CA9A
CA2A
CA2A
CBEA
CB6A
CA6A
C262
C262
FDFC
F218
0EA0
0E20
0FC0
0F80
ENDCHAR
STARTCHAR Ndotaccent
ENCODING 7748
SWIDTH 853 0
DWIDTH 15 0
BBX 14 21 1 -2
BITMAP
03C0
0420
0D20
1C20
1C40
23BC
4184
C994
CC94
CA54
C914
C894
CA54
CB54
CB24
CB94
CB94
C384
C384
FDF8
F1E0
ENDCHAR
STARTCHAR ndotaccent
ENCODING 7749
SWIDTH 853 0
DWIDTH 15 0
BBX 14 21 1 -2
BITMAP
03C0
0420
0D20
1C20
1C40
23BC
4184
C994
CC94
CA54
C914
C894
CA54
CB54
CB24
CB94
CB94
C384
C384
FDF8
F1E0
ENDCHAR
STARTCHAR Ndotbelow
ENCODING 7750
SWIDTH 853 0
DWIDTH 15 0
BBX 14 20 1 -6
BITMAP
3C7C
4284
C994
CC94
CA54
C914
C894
CA54
CB54
CB24
CB94
CB94
C384
C384
FFF8
F420
0D20
1C20
1FC0
1F00
ENDCHAR
STARTCHAR ndotbelow
ENCODING 7751
SWIDTH 853 0
DWIDTH 15 0
BBX 14 20 1 -6
BITMAP
3C7C
4284
C994
CC94
CA54
C914
C894
CA54
CB54
CB24
CB94
CB94
C384
C384
FFF8
F420
0D20
1C20
1FC0
1F00
ENDCHAR
STARTCHAR Nlinebelow
ENCODING 7752
SWIDTH 853 0
DWIDTH 15 0
BBX 14 20 1 -6
BITMAP
3C7C
4284
C994
CC94
CA54
C914
C894
CA54
CB24
CB24
CB94
CB94
C384
C384
FFF8
F3D0
3010
3010
3FE0
3FC0
ENDCHAR
STARTCHAR nlinebelow
ENCODING 7753
SWIDTH 853 0
DWIDTH 15 0
BBX 14 20 1 -6
BITMAP
3C7C
4284
C994
CC94
CA54
C914
C894
CA54
CB24
CB24
CB94
CB94
C384
C384
FFF8
F3D0
3010
3010
3FE0
3FC0
ENDCHAR
STARTCHAR Rdotbelow
ENCODING 7770
SWIDTH 843 0
DWIDTH 15 0
BBX 14 20 1 -6
BITMAP
3FF0
4008
CFC8
C828
CBA8
CB28
C838
CFE4
C814
C814
CBD4
CBD4
C3C4
C3C4
FFF8
F430
0CA0
1C20
1FC0
1F00
ENDCHAR
STARTCHAR rdotbelow
ENCODING 7771
SWIDTH 843 0
DWIDTH 15 0
BBX 14 20 1 -6
BITMAP
3FF0
4008
CFC8
C828
CBA8
CB28
C838
CFE4
C814
C814
CBD4
CBD4
C3C4
C3C4
FFF8
F430
0CA0
1C20
1FC0
1F00
ENDCHAR
STARTCHAR Rdotbelowmacron
ENCODING 7772
SWIDTH 843 0
DWIDTH 15 0
BBX 14 24 1 -6
BITMAP
1FE0
27A0
6020
6020
7FE0
4010
CFC8
C828
CBA8
CB28
C838
CFE4
C814
C814
CBD4
CBD4
C3C4
C3C4
FFF8
F430
0CA0
1C20
1FC0
1F00
ENDCHAR
STARTCHAR rdotbelowmacron
ENCODING 7773
SWIDTH 843 0
DWIDTH 15 0
BBX 14 24 1 -6
BITMAP
1FE0
27A0
6020
6020
7FE0
4010
CFC8
C828
CBA8
CB28
C838
CFE4
C814
C814
CBD4
CBD4
C3C4
C3C4
FFF8
F430
0CA0
1C20
1FC0
1F00
ENDCHAR
STARTCHAR Rlinebelow
ENCODING 7774
SWIDTH 843 0
DWIDTH 15 0
BBX 14 20 1 -6
BITMAP
3FF0
4FC8
C828
C828
CBA8
CB28
C838
CFE4
C814
CB94
CBD4
CBD4
C3C4
C3C4
FFF8
F3D0
3010
7010
7FE0
3F80
ENDCHAR
STARTCHAR rlinebelow
ENCODING 7775
SWIDTH 843 0
DWIDTH 15 0
BBX 14 20 1 -6
BITMAP
3FF0
4FC8
C828
C828
CBA8
CB28
C838
CFE4
C814
CB94
CBD4
CBD4
C3C4
C3C4
FFF8
F3D0
3010
7010
7FE0
3F80
ENDCHAR
STARTCHAR Sdotaccent
ENCODING 7776
SWIDTH 750 0
DWIDTH 14 0
BBX 13 21 0 -2
BITMAP
03C0
0420
0CA0
1C20
1C20
1BD8
1008
23E8
6408
65F0
E430
E708
E0E8
7828
7FA8
2028
27C8
6008
E010
FFE0
7F80
ENDCHAR
STARTCHAR sdotaccent
ENCODING 7777
SWIDTH 750 0
DWIDTH 14 0
BBX 13 21 0 -2
BITMAP
03C0
0420
0CA0
1C20
1C20
1BD8
1008
23E8
6408
65F0
E430
E708
E0E8
7828
7FA8
2028
27C8
6008
E010
FFE0
7F80
ENDCHAR
STARTCHAR Sdotbelow
ENCODING 7778
SWIDTH 750 0
DWIDTH 14 0
BBX 13 20 0 -6
BITMAP
0FF8
1008
23E8
6408
65F0
E430
E708
E0E8
7828
7FA8
2028
27C8
6008
E010
FFE0
7C20
0CA0
0C20
0FC0
0F00
ENDCHAR
STARTCHAR sdotbelow
ENCODING 7779
SWIDTH 750 0
DWIDTH 14 0
BBX 13 20 0 -6
BITMAP
0FF8
1008
23E8
6408
65F0
E430
E708
E0E8
7828
7FA8
2028
27C8
6008
E010
FFE0
7C20
0CA0
0C20
0FC0
0F00
ENDCHAR
STARTCHAR Tdotbelow
ENCODING 7788
SWIDTH 756 0
DWIDTH 14 0
BBX 14 20 0 -6
BITMAP
3FFC
6004
EFF4
E104
FD38
FD30
1D20
1D20
1D20
1D20
1D20
1D20
1C20
1C20
1FC0
1C20
0D20
1C20
1FC0
1F00
ENDCHAR
STARTCHAR tdotbelow
ENCODING 7789
SWIDTH 756 0
DWIDTH 14 0
BBX 14 20 0 -6
BITMAP
3FFC
6004
EFF4
E104
FD38
FD30
1D20
1D20
1D20
1D20
1D20
1D20
1C20
1C20
1FC0
1C20
0D20
1C20
1FC0
1F00
ENDCHAR
STARTCHAR Tlinebelow
ENCODING 7790
SWIDTH 756 0
DWIDTH 14 0
BBX 14 20 0 -6
BITMAP
3FFC
6FF4
E104
E104
FD38
FD20
1D20
1D20
1D20
1D20
1D20
1D20
1C20
1C20
1FF0
13D0
3010
3010
3FE0
3FC0
ENDCHAR
STARTCHAR tlinebelow
ENCODING 7791
SWIDTH 756 0
DWIDTH 14 0
BBX 14 20 0 -6
BITMAP
3FFC
6FF4
E104
E104
FD38
FD20
1D20
1D20
1D20
1D20
1D20
1D20
1C20
1C20
1FF0
13D0
3010
3010
3FE0
3FC0
ENDCHAR
STARTCHAR Wgrave
ENCODING 7808
SWIDTH 931 0
DWIDTH 17 0
BBX 15 20 1 -2
BITMAP
0FF0
19F0
3808
3C08
23F6
43E2
CAEA
CAEA
CBEA
CA2A
CA2A
CAAA
C94A
CA2A
CAAA
E492
E1C2
F1C4
7FF8
79F0
ENDCHAR
STARTCHAR wgrave
ENCODING 7809
SWIDTH 931 0
DWIDTH 17 0
BBX 15 20 1 -2
BITMAP
0FF0
19F0
3808
3C08
23F6
43E2
CAEA
CAEA
CBEA
CA2A
CA2A
CAAA
C94A
CA2A
CAAA
E492
E1C2
F1C4
7FF8
79F0
ENDCHAR
STARTCHAR Wacute
ENCODING 7810
SWIDTH 931 0
DWIDTH 17 0
BBX 15 20 1 -2
BITMAP
07F8
09C8
1808
3810
27EE
4262
CAEA
CAEA
CBEA
CA2A
CA2A
CAAA
C94A
CA2A
CAAA
E492
E1C2
F1C4
7FF8
79F0
ENDCHAR
STARTCHAR wacute
ENCODING 7811
SWIDTH 931 0
DWIDTH 17 0
BBX 15 20 1 -2
BITMAP
07F8
09C8
1808
3810
27EE
4262
CAEA
CAEA
CBEA
CA2A
CA2A
CAAA
C94A
CA2A
CAAA
E492
E1C2
F1C4
7FF8
79F0
ENDCHAR
STARTCHAR Wdieresis
ENCODING 7812
SWIDTH 931 0
DWIDTH 17 0
BBX 15 21 1 -2
BITMAP
0F78
1088
12A8
3088
3088
3FFE
43E2
CA6A
CAEA
CBEA
CA2A
CA2A
CAAA
C94A
CA2A
CAAA
E492
E1C2
F1C4
7FF8
79F0
ENDCHAR
STARTCHAR wdieresis
ENCODING 7813
SWIDTH 931 0
DWIDTH 17 0
BBX 15 21 1 -2
BITMAP
0F78
1088
12A8
3088
3088
3FFE
43E2
CA6A
CAEA
CBEA
CA2A
CA2A
CAAA
C94A
CA2A
CAAA
E492
E1C2
F1C4
7FF8
79F0
ENDCHAR
STARTCHAR Ydotaccent
ENCODING 7822
SWIDTH 805 0
DWIDTH 14 0
BBX 14 21 0 -2
BITMAP
03C0
0420
0CA0
0C20
0C20
33DC
61C4
E9D4
E9D4
E9D4
E494
E424
F228
79C8
7C90
3CA0
1CA0
0C20
0C20
0FC0
0F00
ENDCHAR
STARTCHAR ydotaccent
ENCODING 7823
SWIDTH 805 0
DWIDTH 14 0
BBX 14 21 0 -2
BITMAP
03C0
0420
0CA0
0C20
0C20
33DC
61C4
E9D4
E9D4
E9D4
E494
E424
F228
79C8
7C90
3CA0
1CA0
0C20
0C20
0FC0
0F00
ENDCHAR
STARTCHAR Zdotbelow
ENCODING 7826
SWIDTH 760 0
DWIDTH 14 0
BBX 13 20 0 -6
BITMAP
1FF8
2008
67E8
6028
7F48
7E48
0490
0920
1240
2440
24F8
67F8
E008
E008
FFF0
FC20
0CA0
0C20
0FC0
0F80
ENDCHAR
STARTCHAR zdotbelow
ENCODING 7827
SWIDTH 760 0
DWIDTH 14 0
BBX 13 20 0 -6
BITMAP
1FF8
2008
67E8
6028
7F48
7E48
0490
0920
1240
2440
24F8
67F8
E008
E008
FFF0
FC20
0CA0
0C20
0FC0
0F80
ENDCHAR
STARTCHAR tdieresis
ENCODING 7831
SWIDTH 756 0
DWIDTH 14 0
BBX 14 21 0 -2
BITMAP
0EF0
1108
3528
7108
7188
6E74
6004
EFF4
E104
FD38
FD30
1D20
1D20
1D20
1D20
1D20
1D20
1C20
1C20
1FC0
1F00
ENDCHAR
STARTCHAR Germandbls
ENCODING 7838
SWIDTH 859 0
DWIDTH 15 0
BBX 14 16 1 -2
BITMAP
3FF0
4008
CFC8
C828
CB48
CB48
CB64
CB14
CBCC
CBCC
CA14
CA64
C204
C308
FFF0
F7C0
ENDCHAR
STARTCHAR Adotbelow
ENCODING 7840
SWIDTH 830 0
DWIDTH 15 0
BBX 13 20 1 -6
BITMAP
0FE0
1010
3390
2448
6528
69A8
4BA8
C818
CFE8
C818
C818
CB98
C388
C388
FFF0
F420
1D40
1C40
1F80
1F00
ENDCHAR
STARTCHAR adotbelow
ENCODING 7841
SWIDTH 830 0
DWIDTH 15 0
BBX 13 20 1 -6
BITMAP
0FE0
1010
3390
2448
6528
69A8
4BA8
C818
CFE8
C818
C818
CB98
C388
C388
FFF0
F420
1D40
1C40
1F80
1F00
ENDCHAR
STARTCHAR Ahookabove
ENCODING 7842
SWIDTH 830 0
DWIDTH 15 0
BBX 13 22 1 -2
BITMAP
07C0
0BA0
1B60
1C60
1DA0
0FC0
1020
1010
3390
2448
6528
69A8
4BA8
C818
CFE8
C818
C818
CB98
C388
C388
FDF0
F1E0
ENDCHAR
STARTCHAR ahookabove
ENCODING 7843
SWIDTH 830 0
DWIDTH 15 0
BBX 13 22 1 -2
BITMAP
07C0
0BA0
1B60
1C60
1DA0
0FC0
1020
1010
3390
2448
6528
69A8
4BA8
C818
CFE8
C818
C818
CB98
C388
C388
FDF0
F1E0
ENDCHAR
STARTCHAR Acircumflexacute
ENCODING 7844
SWIDTH 830 0
DWIDTH 15 0
BBX 13 25 1 -2
BITMAP
0010
00E8
0108
0308
0390
0C60
1390
3450
73D0
7FE0
7010
3390
2450
6528
69A8
4BA8
C818
CFE8
C818
C818
CB98
C388
C388
FDF0
F1E0
ENDCHAR
STARTCHAR acircumflexacute
ENCODING 7845
SWIDTH 830 0
DWIDTH 15 0
BBX 13 25 1 -2
BITMAP
0010
00E8
0108
0308
0390
0C60
1390
3450
73D0
7FE0
7010
3390
2450
6528
69A8
4BA8
C818
CFE8
C818
C818
CB98
C388
C388
FDF0
F1E0
ENDCHAR
STARTCHAR Acircumflexgrave
ENCODING 7846
SWIDTH 830 0
DWIDTH 15 0
BBX 13 24 1 -2
BITMAP
01E0
0370
0310
0390
0C70
1390
3450
73D0
7FE0
7010
3390
2450
6528
69A8
4BA8
C818
CFE8
C818
C818
CB98
C388
C388
FDF0
F1E0
ENDCHAR
STARTCHAR acircumflexgrave
ENCODING 7847
SWIDTH 830 0
DWIDTH 15 0
BBX 13 24 1 -2
BITMAP
01E0
0370
0310
0390
0C70
1390
3450
73D0
7FE0
7010
3390
2450
6528
69A8
4BA8
C818
CFE8
C818
C818
CB98
C388
C388
FDF0
F1E0
ENDCHAR
STARTCHAR Acircumflexhookabove
ENCODING 7848
SWIDTH 830 0
DWIDTH 15 0
BBX 14 26 1 -2
BITMAP
00F8
0174
032C
03CC
03B4
03F8
0C30
1390
3450
73D0
7FE0
7010
3390
2450
6528
69A8
4BA4
C814
CFE4
C814
C814
CB94
C384
C384
FDF8
F1E0
ENDCHAR
STARTCHAR acircumflexhookabove
ENCODING 7849
SWIDTH 830 0
DWIDTH 15 0
BBX 14 26 1 -2
BITMAP
00F8
0174
032C
03CC
03B4
03F8
0C30
1390
3450
73D0
7FE0
7010
3390
2450
6528
69A8
4BA4
C814
CFE4
C814
C814
CB94
C384
C384
FDF8
F1E0
ENDCHAR
STARTCHAR Acircumflextilde
ENCODING 7850
SWIDTH 830 0
DWIDTH 15 0
BBX 13 25 1 -2
BITMAP
0FF0
1010
37D0
7010
7FE0
7820
5390
3450
73D0
7FE0
7010
3390
2450
6528
69A8
4BA8
C818
CFE8
C818
C818
CB98
C388
C388
FDF0
F1E0
ENDCHAR
STARTCHAR acircumflextilde
ENCODING 7851
SWIDTH 830 0
DWIDTH 15 0
BBX 13 25 1 -2
BITMAP
0FF0
1010
37D0
7010
7FE0
7820
5390
3450
73D0
7FE0
7010
3390
2450
6528
69A8
4BA8
C818
CFE8
C818
C818
CB98
C388
C388
FDF0
F1E0
ENDCHAR
STARTCHAR Acircumflexdotbelow
ENCODING 7852
SWIDTH 830 0
DWIDTH 15 0
BBX 13 25 1 -6
BITMAP
0380
0C60
1390
3450
73D0
7FE0
7010
3390
2450
6528
69A8
4BA8
C818
CFE8
C818
C818
CB98
C388
C388
FFF0
F420
1D40
1C40
1F80
1F00
ENDCHAR
STARTCHAR acircumflexdotbelow
ENCODING 7853
SWIDTH 830 0
DWIDTH 15 0
BBX 13 25 1 -6
BITMAP
0380
0C60
1390
3450
73D0
7FE0
7010
3390
2450
6528
69A8
4BA8
C818
CFE8
C818
C818
CB98
C388
C388
FFF0
F420
1D40
1C40
1F80
1F00
ENDCHAR
STARTCHAR Abreveacute
ENCODING 7854
SWIDTH 830 0
DWIDTH 15 0
BBX 13 25 1 -2
BITMAP
0040
03A0
0720
0E20
0E60
1190
3430
73D0
7820
7FE0
3010
3390
2450
6528
69A8
4BA8
C818
CFE8
C818
C818
CB98
C388
C388
FDF0
F1E0
ENDCHAR
STARTCHAR abreveacute
ENCODING 7855
SWIDTH 830 0
DWIDTH 15 0
BBX 13 25 1 -2
BITMAP
0040
03A0
0720
0E20
0E60
1190
3430
73D0
7820
7FE0
3010
3390
2450
6528
69A8
4BA8
C818
CFE8
C818
C818
CB98
C388
C388
FDF0
F1E0
ENDCHAR
STARTCHAR Abrevegrave
ENCODING 7856
SWIDTH 830 0
DWIDTH 15 0
BBX 13 25 1 -2
BITMAP
0400
0B80
1980
3880
3CE0
3390
3430
73D0
7820
7FE0
3010
3390
2450
6528
69A8
4BA8
C818
CFE8
C818
C818
CB98
C388
C388
FDF0
F1E0
ENDCHAR
STARTCHAR abrevegrave
ENCODING 7857
SWIDTH 830 0
DWIDTH 15 0
BBX 13 25 1 -2
BITMAP
0400
0B80
1980
3880
3CE0
3390
3430
73D0
7820
7FE0
3010
3390
2450
6528
69A8
4BA8
C818
CFE8
C818
C818
CB98
C388
C388
FDF0
F1E0
ENDCHAR
STARTCHAR Abrevehookabove
ENCODING 7858
SWIDTH 830 0
DWIDTH 15 0
BBX 13 27 1 -2
BITMAP
03C0
05A0
0C50
1FD0
1DD0
0620
0FE0
1190
3430
73D0
7820
7FE0
3010
3390
2450
6528
69A8
4BA8
C818
CFE8
C818
C818
CB98
C388
C388
FDF0
F1E0
ENDCHAR
STARTCHAR abrevehookabove
ENCODING 7859
SWIDTH 830 0
DWIDTH 15 0
BBX 13 27 1 -2
BITMAP
03C0
05A0
0C50
1FD0
1DD0
0620
0FE0
1190
3430
73D0
7820
7FE0
3010
3390
2450
6528
69A8
4BA8
C818
CFE8
C818
C818
CB98
C388
C388
FDF0
F1E0
ENDCHAR
STARTCHAR Abrevetilde
ENCODING 7860
SWIDTH 830 0
DWIDTH 15 0
BBX 13 25 1 -2
BITMAP
0FE0
1010
37D0
7010
7FE0
7190
3430
73D0
7820
7FE0
3010
3390
2450
6528
69A8
4BA8
C818
CFE8
C818
C818
CB98
C388
C388
FDF0
F1E0
ENDCHAR
STARTCHAR abrevetilde
ENCODING 7861
SWIDTH 830 0
DWIDTH 15 0
BBX 13 25 1 -2
BITMAP
0FE0
1010
37D0
7010
7FE0
7190
3430
73D0
7820
7FE0
3010
3390
2450
6528
69A8
4BA8
C818
CFE8
C818
C818
CB98
C388
C388
FDF0
F1E0
ENDCHAR
STARTCHAR Abrevedotbelow
ENCODING 7862
SWIDTH 830 0
DWIDTH 15 0
BBX 13 25 1 -6
BITMAP
0E60
1390
3430
73D0
7820
7FE0
3010
3390
2450
6528
69A8
4BA8
C818
CFE8
C818
C818
CB98
C388
C388
FFF0
F420
1D40
1C40
1F80
1F00
ENDCHAR
STARTCHAR abrevedotbelow
ENCODING 7863
SWIDTH 830 0
DWIDTH 15 0
BBX 13 25 1 -6
BITMAP
0E60
1390
3430
73D0
7820
7FE0
3010
3390
2450
6528
69A8
4BA8
C818
CFE8
C818
C818
CB98
C388
C388
FFF0
F420
1D40
1C40
1F80
1F00
ENDCHAR
STARTCHAR Edotbelow
ENCODING 7864
SWIDTH 754 0
DWIDTH 14 0
BBX 12 20 1 -6
BITMAP
3FF0
4010
CFD0
C810
CBE0
C820
CFA0
C820
C820
CBC0
CBF0
CFD0
C010
C010
FFE0
F840
1940
1840
1F80
1F00
ENDCHAR
STARTCHAR edotbelow
ENCODING 7865
SWIDTH 754 0
DWIDTH 14 0
BBX 12 20 1 -6
BITMAP
3FF0
4010
CFD0
C810
CBE0
C820
CFA0
C820
C820
CBC0
CBF0
CFD0
C010
C010
FFE0
F840
1940
1840
1F80
1F00
ENDCHAR
STARTCHAR Ehookabove
ENCODING 7866
SWIDTH 754 0
DWIDTH 14 0
BBX 12 22 1 -2
BITMAP
0780
1F40
3BC0
3CC0
3B40
1F80
2070
4010
CFD0
C810
CBE0
C820
CFA0
C820
C820
CBC0
CBF0
CFD0
C010
C010
FFE0
FFC0
ENDCHAR
STARTCHAR ehookabove
ENCODING 7867
SWIDTH 754 0
DWIDTH 14 0
BBX 12 22 1 -2
BITMAP
0780
1F40
3BC0
3CC0
3B40
1F80
2070
4010
CFD0
C810
CBE0
C820
CFA0
C820
C820
CBC0
CBF0
CFD0
C010
C010
FFE0
FFC0
ENDCHAR
STARTCHAR Etilde
ENCODING 7868
SWIDTH 754 0
DWIDTH 14 0
BBX 12 21 1 -2
BITMAP
0FE0
1020
2720
60A0
6E20
51D0
4010
CFD0
C810
CBE0
C820
CFA0
C820
C820
CBC0
CBF0
CFD0
C010
C010
FFE0
FFC0
ENDCHAR
STARTCHAR etilde
ENCODING 7869
SWIDTH 754 0
DWIDTH 14 0
BBX 12 21 1 -2
BITMAP
0FE0
1020
2720
60A0
6E20
51D0
4010
CFD0
C810
CBE0
C820
CFA0
C820
C820
CBC0
CBF0
CFD0
C010
C010
FFE0
FFC0
ENDCHAR
STARTCHAR Ecircumflexacute
ENCODING 7870
SWIDTH 754 0
DWIDTH 14 0
BBX 12 25 1 -2
BITMAP
0030
00D0
0330
0710
0720
18E0
27A0
6020
7FE0
4010
4010
CFD0
C810
CBE0
C820
CFA0
C820
C820
CBC0
CBF0
CFD0
C010
C010
FFE0
FFC0
ENDCHAR
STARTCHAR ecircumflexacute
ENCODING 7871
SWIDTH 754 0
DWIDTH 14 0
BBX 12 25 1 -2
BITMAP
0030
00D0
0330
0710
0720
18E0
27A0
6020
7FE0
4010
4010
CFD0
C810
CBE0
C820
CFA0
C820
C820
CBC0
CBF0
CFD0
C010
C010
FFE0
FFC0
ENDCHAR
STARTCHAR Ecircumflexgrave
ENCODING 7872
SWIDTH 754 0
DWIDTH 14 0
BBX 12 24 1 -2
BITMAP
01E0
03D0
0710
0790
1860
27A0
6020
7FE0
4010
4010
CFD0
C810
CBE0
C820
CFA0
C820
C820
CBC0
CBF0
CFD0
C010
C010
FFE0
FFC0
ENDCHAR
STARTCHAR ecircumflexgrave
ENCODING 7873
SWIDTH 754 0
DWIDTH 14 0
BBX 12 24 1 -2
BITMAP
01E0
03D0
0710
0790
1860
27A0
6020
7FE0
4010
4010
CFD0
C810
CBE0
C820
CFA0
C820
C820
CBC0
CBF0
CFD0
C010
C010
FFE0
FFC0
ENDCHAR
STARTCHAR Ecircumflexhookabove
ENCODING 7874
SWIDTH 754 0
DWIDTH 14 0
BBX 13 26 1 -2
BITMAP
00F0
0178
0378
0798
07A8
03F8
0C60
17A0
2020
7FE0
4010
4008
CFC8
C810
CBE0
C820
CFA0
C820
C820
CBC0
CBF0
CFC8
C008
C008
FFF0
FFC0
ENDCHAR
STARTCHAR ecircumflexhookabove
ENCODING 7875
SWIDTH 754 0
DWIDTH 14 0
BBX 13 26 1 -2
BITMAP
00F0
0178
0378
0798
07A8
03F8
0C60
17A0
2020
7FE0
4010
4008
CFC8
C810
CBE0
C820
CFA0
C820
C820
CBC0
CBF0
CFC8
C008
C008
FFF0
FFC0
ENDCHAR
STARTCHAR Ecircumflextilde
ENCODING 7876
SWIDTH 754 0
DWIDTH 14 0
BBX 12 25 1 -2
BITMAP
0FE0
1020
27A0
6020
7FC0
7840
57A0
2020
7FE0
4010
4010
CFD0
C810
CBE0
C820
CFA0
C820
C820
CBC0
CBF0
CFD0
C010
C010
FFE0
FFC0
ENDCHAR
STARTCHAR ecircumflextilde
ENCODING 7877
SWIDTH 754 0
DWIDTH 14 0
BBX 12 25 1 -2
BITMAP
0FE0
1020
27A0
6020
7FC0
7840
57A0
2020
7FE0
4010
4010
CFD0
C810
CBE0
C820
CFA0
C820
C820
CBC0
CBF0
CFD0
C010
C010
FFE0
FFC0
ENDCHAR
STARTCHAR Ecircumflexdotbelow
ENCODING 7878
SWIDTH 754 0
DWIDTH 14 0
BBX 12 25 1 -6
BITMAP
0380
1C60
27A0
6020
7FE0
4010
4010
CFD0
C810
CBE0
C820
CFA0
C820
C820
CBC0
CBF0
CFD0
C010
C010
FFE0
F840
1A40
3840
3F80
3E00
ENDCHAR
STARTCHAR ecircumflexdotbelow
ENCODING 7879
SWIDTH 754 0
DWIDTH 14 0
BBX 12 25 1 -6
BITMAP
0380
1C60
27A0
6020
7FE0
4010
4010
CFD0
C810
CBE0
C820
CFA0
C820
C820
CBC0
CBF0
CFD0
C010
C010
FFE0
F840
1A40
3840
3F80
3E00
ENDCHAR
STARTCHAR Ihookabove
ENCODING 7880
SWIDTH 705 0
DWIDTH 13 0
BBX 11 22 1 -2
BITMAP
0F80
1740
3680
7940
7E40
3F80
40E0
4020
CFA0
C220
F260
F240
F280
3280
3280
3280
3260
4FA0
C020
C020
FFC0
FF80
ENDCHAR
STARTCHAR ihookabove
ENCODING 7881
SWIDTH 705 0
DWIDTH 13 0
BBX 11 22 1 -2
BITMAP
0F80
1740
3680
7940
7E40
3F80
40E0
4020
CFA0
C220
F260
F240
F280
3280
3280
3280
3260
4FA0
C020
C020
FFC0
FF80
ENDCHAR
STARTCHAR Idotbelow
ENCODING 7882
SWIDTH 705 0
DWIDTH 13 0
BBX 11 20 1 -6
BITMAP
7FE0
4020
CFA0
C220
F260
F240
F280
3280
3280
3280
3260
4FA0
C020
C020
FFC0
F080
3280
3080
3F00
3E00
ENDCHAR
STARTCHAR idotbelow
ENCODING 7883
SWIDTH 705 0
DWIDTH 13 0
BBX 11 20 1 -6
BITMAP
7FE0
4020
CFA0
C220
F260
F240
F280
3280
3280
3280
3260
4FA0
C020
C020
FFC0
F080
3280
3080
3F00
3E00
ENDCHAR
STARTCHAR Odotbelow
ENCODING 7884
SWIDTH 837 0
DWIDTH 15 0
BBX 13 21 1 -7
BITMAP
1FF0
2008
47C8
C828
CB98
CB98
CB98
CB98
CB98
CB98
CB98
C828
E7C8
F010
FFE0
7C40
0D40
1C40
1C40
1F80
1F00
ENDCHAR
STARTCHAR odotbelow
ENCODING 7885
SWIDTH 837 0
DWIDTH 15 0
BBX 13 21 1 -7
BITMAP
1FF0
2008
47C8
C828
CB98
CB98
CB98
CB98
CB98
CB98
CB98
C828
E7C8
F010
FFE0
7C40
0D40
1C40
1C40
1F80
1F00
ENDCHAR
STARTCHAR Ohookabove
ENCODING 7886
SWIDTH 837 0
DWIDTH 15 0
BBX 13 22 1 -2
BITMAP
07C0
0BA0
1860
1F60
1DA0
0FC0
1030
27C8
4828
CB98
CB98
CB98
CB98
CB98
CB98
CB98
C828
C7C8
E008
F830
7FC0
3F80
ENDCHAR
STARTCHAR ohookabove
ENCODING 7887
SWIDTH 837 0
DWIDTH 15 0
BBX 13 22 1 -2
BITMAP
07C0
0BA0
1860
1F60
1DA0
0FC0
1030
27C8
4828
CB98
CB98
CB98
CB98
CB98
CB98
CB98
C828
C7C8
E008
F830
7FC0
3F80
ENDCHAR
STARTCHAR Ocircumflexacute
ENCODING 7888
SWIDTH 837 0
DWIDTH 15 0
BBX 13 25 1 -2
BITMAP
0070
01E8
0308
0310
0CB0
13D0
3010
77D0
7830
6008
47C8
4828
CB98
CB98
CB98
CB98
CB98
CB98
CB98
C828
C7C8
E008
F830
7FC0
3F80
ENDCHAR
STARTCHAR ocircumflexacute
ENCODING 7889
SWIDTH 837 0
DWIDTH 15 0
BBX 13 25 1 -2
BITMAP
0070
01E8
0308
0310
0CB0
13D0
3010
77D0
7830
6008
47C8
4828
CB98
CB98
CB98
CB98
CB98
CB98
CB98
C828
C7C8
E008
F830
7FC0
3F80
ENDCHAR
STARTCHAR Ocircumflexgrave
ENCODING 7890
SWIDTH 837 0
DWIDTH 15 0
BBX 13 25 1 -2
BITMAP
00C0
01F0
0310
0310
0C90
13F0
3010
77D0
7830
6008
47C8
4828
CB98
CB98
CB98
CB98
CB98
CB98
CB98
C828
C7C8
E008
F830
7FC0
3F80
ENDCHAR
STARTCHAR ocircumflexgrave
ENCODING 7891
SWIDTH 837 0
DWIDTH 15 0
BBX 13 25 1 -2
BITMAP
00C0
01F0
0310
0310
0C90
13F0
3010
77D0
7830
6008
47C8
4828
CB98
CB98
CB98
CB98
CB98
CB98
CB98
C828
C7C8
E008
F830
7FC0
3F80
ENDCHAR
STARTCHAR Ocircumflexhookabove
ENCODING 7892
SWIDTH 837 0
DWIDTH 15 0
BBX 14 26 1 -2
BITMAP
00F8
0174
03EC
039C
01A4
0678
1BD0
1010
37D0
7830
6008
47C4
4824
CB94
CB94
CB94
CB94
CB94
CB94
CB94
C824
C7C4
E008
F830
7FC0
3F80
ENDCHAR
STARTCHAR ocircumflexhookabove
ENCODING 7893
SWIDTH 837 0
DWIDTH 15 0
BBX 14 26 1 -2
BITMAP
00F8
0174
03EC
039C
01A4
0678
1BD0
1010
37D0
7830
6008
47C4
4824
CB94
CB94
CB94
CB94
CB94
CB94
CB94
C824
C7C4
E008
F830
7FC0
3F80
ENDCHAR
STARTCHAR Ocircumflextilde
ENCODING 7894
SWIDTH 837 0
DWIDTH 15 0
BBX 13 25 1 -2
BITMAP
0FF0
1210
31D0
77A0
7C60
53D0
3010
77D0
7830
6008
47C8
4828
CB98
CB98
CB98
CB98
CB98
CB98
CB98
C828
C7C8
E008
F830
7FC0
3F80
ENDCHAR
STARTCHAR ocircumflextilde
ENCODING 7895
SWIDTH 837 0
DWIDTH 15 0
BBX 13 25 1 -2
BITMAP
0FF0
1210
31D0
77A0
7C60
53D0
3010
77D0
7830
6008
47C8
4828
CB98
CB98
CB98
CB98
CB98
CB98
CB98
C828
C7C8
E008
F830
7FC0
3F80
ENDCHAR
STARTCHAR Ocircumflexdotbelow
ENCODING 7896
SWIDTH 837 0
DWIDTH 15 0
BBX 13 26 1 -7
BITMAP
0380
0C60
13D0
3010
77D0
7830
6008
47C8
4828
CB98
CB98
CB98
CB98
CB98
CB98
CB98
C828
E7C8
F010
FFE0
7C40
0D40
1C40
1C40
1F80
1F00
ENDCHAR
STARTCHAR ocircumflexdotbelow
ENCODING 7897
SWIDTH 837 0
DWIDTH 15 0
BBX 13 26 1 -7
BITMAP
0380
0C60
13D0
3010
77D0
7830
6008
47C8
4828
CB98
CB98
CB98
CB98
CB98
CB98
CB98
C828
E7C8
F010
FFE0
7C40
0D40
1C40
1C40
1F80
1F00
ENDCHAR
STARTCHAR Ohornacute
ENCODING 7898
SWIDTH 847 0
DWIDTH 15 0
BBX 15 20 1 -2
BITMAP
0FE0
3720
601C
60A2
7F4A
67F4
4824
CB94
CB94
CB94
CB94
CB94
CB94
CB94
C824
C7C4
E008
F830
FFC0
3F80
ENDCHAR
STARTCHAR ohornacute
ENCODING 7899
SWIDTH 847 0
DWIDTH 15 0
BBX 15 20 1 -2
BITMAP
0FE0
3720
601C
60A2
7F4A
67F4
4824
CB94
CB94
CB94
CB94
CB94
CB94
CB94
C824
C7C4
E008
F830
FFC0
3F80
ENDCHAR
STARTCHAR Ohorngrave
ENCODING 7900
SWIDTH 847 0
DWIDTH 15 0
BBX 15 21 1 -2
BITMAP
1000
3FE0
61A0
601C
7F22
70CA
27F4
4824
CB94
CB94
CB94
CB94
CB94
CB94
CB94
C824
C7C4
E008
F830
FFC0
3F80
ENDCHAR
STARTCHAR ohorngrave
ENCODING 7901
SWIDTH 847 0
DWIDTH 15 0
BBX 15 21 1 -2
BITMAP
1000
3FE0
61A0
601C
7F22
70CA
27F4
4824
CB94
CB94
CB94
CB94
CB94
CB94
CB94
C824
C7C4
E008
F830
FFC0
3F80
ENDCHAR
STARTCHAR Ohornhookabove
ENCODING 7902
SWIDTH 847 0
DWIDTH 15 0
BBX 15 22 1 -2
BITMAP
07C0
0BA0
1860
1F60
1FBC
1FE2
100A
27F4
4824
CB94
CB94
CB94
CB94
CB94
CB94
CB94
C824
C7C4
E008
F830
FFC0
3F80
ENDCHAR
STARTCHAR ohornhookabove
ENCODING 7903
SWIDTH 847 0
DWIDTH 15 0
BBX 15 22 1 -2
BITMAP
07C0
0BA0
1860
1F60
1FBC
1FE2
100A
27F4
4824
CB94
CB94
CB94
CB94
CB94
CB94
CB94
C824
C7C4
E008
F830
FFC0
3F80
ENDCHAR
STARTCHAR Ohorntilde
ENCODING 7904
SWIDTH 847 0
DWIDTH 15 0
BBX 15 21 1 -2
BITMAP
0FE0
1020
27A0
601C
6762
788A
27F4
4824
CB94
CB94
CB94
CB94
CB94
CB94
CB94
C824
C7C4
E008
F830
FFC0
3F80
ENDCHAR
STARTCHAR ohorntilde
ENCODING 7905
SWIDTH 847 0
DWIDTH 15 0
BBX 15 21 1 -2
BITMAP
0FE0
1020
27A0
601C
6762
788A
27F4
4824
CB94
CB94
CB94
CB94
CB94
CB94
CB94
C824
C7C4
E008
F830
FFC0
3F80
ENDCHAR
STARTCHAR Ohorndotbelow
ENCODING 7906
SWIDTH 847 0
DWIDTH 15 0
BBX 15 22 1 -6
BITMAP
001C
0022
1FCA
27CA
4834
C814
CB94
CB94
CB94
CB94
CB94
CB94
CB94
C824
E7C8
F010
FFE0
7C40
0D40
1C40
1F80
1F00
ENDCHAR
STARTCHAR ohorndotbelow
ENCODING 7907
SWIDTH 847 0
DWIDTH 15 0
BBX 15 22 1 -6
BITMAP
001C
0022
1FCA
27CA
4834
C814
CB94
CB94
CB94
CB94
CB94
CB94
CB94
C824
E7C8
F010
FFE0
7C40
0D40
1C40
1F80
1F00
ENDCHAR
STARTCHAR Udotbelow
ENCODING 7908
SWIDTH 846 0
DWIDTH 15 0
BBX 14 20 1 -6
BITMAP
3E7C
4284
CB94
CB94
CB94
CB94
CB94
CB94
CB94
CB94
C994
C824
E7C8
F010
FFE0
7C40
0D40
1C40
1F80
1F00
ENDCHAR
STARTCHAR udotbelow
ENCODING 7909
SWIDTH 846 0
DWIDTH 15 0
BBX 14 20 1 -6
BITMAP
3E7C
4284
CB94
CB94
CB94
CB94
CB94
CB94
CB94
CB94
C994
C824
E7C8
F010
FFE0
7C40
0D40
1C40
1F80
1F00
ENDCHAR
STARTCHAR Uhookabove
ENCODING 7910
SWIDTH 846 0
DWIDTH 15 0
BBX 14 22 1 -2
BITMAP
03C0
05A0
1DD0
1E50
1FA0
0FC0
33BC
4284
CB94
CB94
CB94
CB94
CB94
CB94
CB94
C994
C824
C7C4
E008
F810
7FE0
3F80
ENDCHAR
STARTCHAR uhookabove
ENCODING 7911
SWIDTH 846 0
DWIDTH 15 0
BBX 14 22 1 -2
BITMAP
03C0
05A0
1DD0
1E50
1FA0
0FC0
33BC
4284
CB94
CB94
CB94
CB94
CB94
CB94
CB94
C994
C824
C7C4
E008
F810
7FE0
3F80
ENDCHAR
STARTCHAR Uhornacute
ENCODING 7912
SWIDTH 856 0
DWIDTH 15 0
BBX 15 20 1 -2
BITMAP
0FE0
3720
601C
6022
5FCA
428A
CB94
CB94
CB94
CB94
CB94
CB94
CB94
C994
C824
C7C4
E008
F830
7FC0
3F80
ENDCHAR
STARTCHAR uhornacute
ENCODING 7913
SWIDTH 856 0
DWIDTH 15 0
BBX 15 20 1 -2
BITMAP
0FE0
3720
601C
6022
5FCA
428A
CB94
CB94
CB94
CB94
CB94
CB94
CB94
C994
C824
C7C4
E008
F830
7FC0
3F80
ENDCHAR
STARTCHAR Uhorngrave
ENCODING 7914
SWIDTH 856 0
DWIDTH 15 0
BBX 15 20 1 -2
BITMAP
3FC0
63A0
601C
7022
4FCA
438A
CB94
CB94
CB94
CB94
CB94
CB94
CB94
C994
C824
C7C4
E008
F830
7FC0
3F80
ENDCHAR
STARTCHAR uhorngrave
ENCODING 7915
SWIDTH 856 0
DWIDTH 15 0
BBX 15 20 1 -2
BITMAP
3FC0
63A0
601C
7022
4FCA
438A
CB94
CB94
CB94
CB94
CB94
CB94
CB94
C994
C824
C7C4
E008
F830
7FC0
3F80
ENDCHAR
STARTCHAR Uhornhookabove
ENCODING 7916
SWIDTH 856 0
DWIDTH 15 0
BBX 15 22 1 -2
BITMAP
07C0
0BA0
1F60
1C60
1D9C
0FE2
338A
428A
CB94
CB94
CB94
CB94
CB94
CB94
CB94
C994
C824
C7C4
E008
F830
7FC0
3F80
ENDCHAR
STARTCHAR uhornhookabove
ENCODING 7917
SWIDTH 856 0
DWIDTH 15 0
BBX 15 22 1 -2
BITMAP
07C0
0BA0
1F60
1C60
1D9C
0FE2
338A
428A
CB94
CB94
CB94
CB94
CB94
CB94
CB94
C994
C824
C7C4
E008
F830
7FC0
3F80
ENDCHAR
STARTCHAR Uhorntilde
ENCODING 7918
SWIDTH 856 0
DWIDTH 15 0
BBX 15 21 1 -2
BITMAP
0FE0
1020
27A0
601C
6C22
53CA
C38A
CB94
CB94
CB94
CB94
CB94
CB94
CB94
C994
C824
C7C4
E008
F830
7FC0
3F80
ENDCHAR
STARTCHAR uhorntilde
ENCODING 7919
SWIDTH 856 0
DWIDTH 15 0
BBX 15 21 1 -2
BITMAP
0FE0
1020
27A0
601C
6C22
53CA
C38A
CB94
CB94
CB94
CB94
CB94
CB94
CB94
C994
C824
C7C4
E008
F830
7FC0
3F80
ENDCHAR
STARTCHAR Uhorndotbelow
ENCODING 7920
SWIDTH 856 0
DWIDTH 15 0
BBX 15 22 1 -6
BITMAP
001C
0022
3E4A
428A
CB94
CB94
CB94
CB94
CB94
CB94
CB94
CB94
C994
C824
E7C8
F010
FFE0
7C40
0D40
1C40
1F80
1F00
ENDCHAR
STARTCHAR uhorndotbelow
ENCODING 7921
SWIDTH 856 0
DWIDTH 15 0
BBX 15 22 1 -6
BITMAP
001C
0022
3E4A
428A
CB94
CB94
CB94
CB94
CB94
CB94
CB94
CB94
C994
C824
E7C8
F010
FFE0
7C40
0D40
1C40
1F80
1F00
ENDCHAR
STARTCHAR Ygrave
ENCODING 7922
SWIDTH 805 0
DWIDTH 14 0
BBX 14 20 0 -2
BITMAP
0FF0
31D0
3008
3C08
23F4
61C4
E9D4
E9D4
E9D4
E494
E224
F228
79C8
7C90
3CA0
1CA0
0C20
0C20
0FC0
0F00
ENDCHAR
STARTCHAR ygrave
ENCODING 7923
SWIDTH 805 0
DWIDTH 14 0
BBX 14 20 0 -2
BITMAP
0FF0
31D0
3008
3C08
23F4
61C4
E9D4
E9D4
E9D4
E494
E224
F228
79C8
7C90
3CA0
1CA0
0C20
0C20
0FC0
0F00
ENDCHAR
STARTCHAR Ydotbelow
ENCODING 7924
SWIDTH 805 0
DWIDTH 14 0
BBX 14 20 0 -6
BITMAP
3E7C
61C4
E9D4
E9D4
E9D4
E494
E224
F228
79C8
7890
3CA0
1CA0
1C20
0C20
0FC0
0C20
0CA0
0C20
0FC0
0F80
ENDCHAR
STARTCHAR ydotbelow
ENCODING 7925
SWIDTH 805 0
DWIDTH 14 0
BBX 14 20 0 -6
BITMAP
3E7C
61C4
E9D4
E9D4
E9D4
E494
E224
F228
79C8
7890
3CA0
1CA0
1C20
0C20
0FC0
0C20
0CA0
0C20
0FC0
0F80
ENDCHAR
STARTCHAR Yhookabove
ENCODING 7926
SWIDTH 805 0
DWIDTH 14 0
BBX 14 22 0 -2
BITMAP
03E0
05D0
0DA0
1E20
1FD0
0FE0
31FC
61C4
E9D4
E9D4
E9D4
E494
E224
F228
79C8
7C90
3CA0
1CA0
0C20
0C20
0FC0
0F00
ENDCHAR
STARTCHAR yhookabove
ENCODING 7927
SWIDTH 805 0
DWIDTH 14 0
BBX 14 22 0 -2
BITMAP
03E0
05D0
0DA0
1E20
1FD0
0FE0
31FC
61C4
E9D4
E9D4
E9D4
E494
E224
F228
79C8
7C90
3CA0
1CA0
0C20
0C20
0FC0
0F00
ENDCHAR
STARTCHAR Ytilde
ENCODING 7928
SWIDTH 805 0
DWIDTH 14 0
BBX 14 21 0 -2
BITMAP
07F0
0808
1B88
3868
3E10
21EC
61C4
E9D4
E9D4
E9D4
E494
E224
F228
79C8
7C90
3CA0
1CA0
0C20
0C20
0FC0
0F00
ENDCHAR
STARTCHAR ytilde
ENCODING 7929
SWIDTH 805 0
DWIDTH 14 0
BBX 14 21 0 -2
BITMAP
07F0
0808
1B88
3868
3E10
21EC
61C4
E9D4
E9D4
E9D4
E494
E224
F228
79C8
7C90
3CA0
1CA0
0C20
0C20
0FC0
0F00
ENDCHAR
STARTCHAR enspace
ENCODING 8192
SWIDTH 500 0
DWIDTH 9 0
BBX 1 1 0 0
BITMAP
00
ENDCHAR
STARTCHAR emspace
ENCODING 8193
SWIDTH 1000 0
DWIDTH 18 0
BBX 1 1 0 0
BITMAP
00
ENDCHAR
STARTCHAR uni2002
ENCODING 8194
SWIDTH 500 0
DWIDTH 9 0
BBX 1 1 0 0
BITMAP
00
ENDCHAR
STARTCHAR uni2003
ENCODING 8195
SWIDTH 1000 0
DWIDTH 18 0
BBX 1 1 0 0
BITMAP
00
ENDCHAR
STARTCHAR space.tab_en
ENCODING 8199
SWIDTH 1100 0
DWIDTH 20 0
BBX 1 1 0 0
BITMAP
00
ENDCHAR
STARTCHAR uni2010
ENCODING 8208
SWIDTH 520 0
DWIDTH 9 0
BBX 9 7 0 3
BITMAP
1F80
2080
6E80
E080
E080
FF00
FE00
ENDCHAR
STARTCHAR figuredash
ENCODING 8210
SWIDTH 834 0
DWIDTH 15 0
BBX 13 7 1 3
BITMAP
3FF8
4008
CFE8
C008
C008
FFF0
FFE0
ENDCHAR
STARTCHAR endash
ENCODING 8211
SWIDTH 834 0
DWIDTH 15 0
BBX 13 7 1 3
BITMAP
3FF8
4008
CFE8
C008
C008
FFF0
FFE0
ENDCHAR
STARTCHAR emdash
ENCODING 8212
SWIDTH 1234 0
DWIDTH 22 0
BBX 20 7 1 3
BITMAP
3FFFF0
400010
CFFFF0
C00010
C00010
FFFFE0
FFFFC0
ENDCHAR
STARTCHAR horizontalbar
ENCODING 8213
SWIDTH 1234 0
DWIDTH 22 0
BBX 20 7 1 3
BITMAP
3FFFF0
400010
CFFFF0
C00010
C00010
FFFFE0
FFFFC0
ENDCHAR
STARTCHAR quoteleft
ENCODING 8216
SWIDTH 484 0
DWIDTH 9 0
BBX 7 9 1 5
BITMAP
1E
2E
5C
D2
D2
DE
C2
FC
F8
ENDCHAR
STARTCHAR quoteright
ENCODING 8217
SWIDTH 484 0
DWIDTH 9 0
BBX 7 10 1 4
BITMAP
7E
42
DE
C6
FE
C6
DA
E4
F8
E0
ENDCHAR
STARTCHAR quotesinglbase
ENCODING 8218
SWIDTH 484 0
DWIDTH 9 0
BBX 7 10 1 -4
BITMAP
3E
42
DE
C6
C6
FE
DA
C4
F8
F0
ENDCHAR
STARTCHAR quotedblleft
ENCODING 8220
SWIDTH 784 0
DWIDTH 14 0
BBX 14 9 0 5
BITMAP
1F7C
2694
6FB8
68C4
E8C4
EEB4
E084
FFF8
FFF0
ENDCHAR
STARTCHAR quotedblright
ENCODING 8221
SWIDTH 784 0
DWIDTH 14 0
BBX 14 10 0 4
BITMAP
3FFC
2084
6EB4
E28C
FAEC
E28C
EDB4
6398
7FE0
71C0
ENDCHAR
STARTCHAR quotedblbase
ENCODING 8222
SWIDTH 784 0
DWIDTH 14 0
BBX 14 10 0 -4
BITMAP
1F78
2084
6EB4
E28C
E28C
FAEC
EDB4
6388
7FF0
7BC0
ENDCHAR
STARTCHAR dagger
ENCODING 8224
SWIDTH 818 0
DWIDTH 15 0
BBX 14 16 0 -2
BITMAP
03E0
0620
0EA0
36BC
2084
67F4
E084
FEBC
FEB8
6EB0
0EA0
0EA0
0E20
0E20
0FC0
0F80
ENDCHAR
STARTCHAR daggerdbl
ENCODING 8225
SWIDTH 818 0
DWIDTH 15 0
BBX 14 16 0 -2
BITMAP
03E0
1E38
2084
67F4
E084
FEBC
FE98
5EBC
2084
67F4
E084
E084
FE38
7E30
0FC0
0F80
ENDCHAR
STARTCHAR bullet
ENCODING 8226
SWIDTH 543 0
DWIDTH 10 0
BBX 9 9 0 1
BITMAP
1F80
2F80
6980
E980
EF80
E080
E080
FF00
FE00
ENDCHAR
STARTCHAR ellipsis
ENCODING 8230
SWIDTH 1210 0
DWIDTH 22 0
BBX 20 8 1 -2
BITMAP
3E7DF0
418210
C99250
C99250
C18210
C18610
FFFFE0
FBE7C0
ENDCHAR
STARTCHAR perthousand
ENCODING 8240
SWIDTH 1517 0
DWIDTH 27 0
BBX 27 16 0 -2
BITMAP
1F9E0000
26620000
696A0000
EF6C0000
EF4C0000
EB57E3C0
E6541420
F0D5C9A0
7F96ABE0
7DAEABE0
01AEABE0
01AE2A60
038DC9A0
031E1C60
03FFFF80
038F9F00
ENDCHAR
STARTCHAR minute
ENCODING 8242
SWIDTH 456 0
DWIDTH 8 0
BBX 7 9 1 5
BITMAP
3E
42
CA
CA
CA
C2
C2
FC
F0
ENDCHAR
STARTCHAR second
ENCODING 8243
SWIDTH 766 0
DWIDTH 14 0
BBX 12 9 1 5
BITMAP
3FF0
4110
C950
CB50
CB50
C310
C310
FFE0
F7C0
ENDCHAR
STARTCHAR guilsinglleft
ENCODING 8249
SWIDTH 663 0
DWIDTH 12 0
BBX 10 11 1 0
BITMAP
0FC0
3040
4740
C840
CB80
C840
C740
E040
FE40
FF80
1F00
ENDCHAR
STARTCHAR guilsinglright
ENCODING 8250
SWIDTH 663 0
DWIDTH 12 0
BBX 10 11 1 0
BITMAP
3F80
6840
E740
E0C0
FCC0
E0C0
6F40
E040
E380
FE00
F800
ENDCHAR
STARTCHAR fraction
ENCODING 8260
SWIDTH 417 0
DWIDTH 8 0
BBX 8 16 0 -2
BITMAP
0F
11
35
35
35
75
66
6A
6A
6A
6A
EC
C4
C4
F8
F0
ENDCHAR
STARTCHAR zero.sups
ENCODING 8304
SWIDTH 656 0
DWIDTH 12 0
BBX 10 12 1 2
BITMAP
3F80
4E40
D140
EF40
EF40
EF40
EF40
DD40
C640
C080
FF00
7E00
ENDCHAR
STARTCHAR foursuperior
ENCODING 8308
SWIDTH 608 0
DWIDTH 11 0
BBX 11 12 0 2
BITMAP
3DE0
6220
EAA0
EAA0
EAA0
E8A0
E7A0
F0A0
FEA0
7E20
07C0
0780
ENDCHAR
STARTCHAR five.sups
ENCODING 8309
SWIDTH 593 0
DWIDTH 11 0
BBX 9 12 1 2
BITMAP
7F80
4F80
D080
D700
CE80
C180
FD80
C180
5E80
C080
FF00
FC00
ENDCHAR
STARTCHAR six.sups
ENCODING 8310
SWIDTH 628 0
DWIDTH 11 0
BBX 10 12 1 2
BITMAP
1F80
2F80
5080
D700
DFC0
D0C0
D6C0
D6C0
CF40
F080
FF00
7E00
ENDCHAR
STARTCHAR seven.sups
ENCODING 8311
SWIDTH 577 0
DWIDTH 10 0
BBX 10 12 0 2
BITMAP
3FC0
6F40
E0C0
FEC0
F8C0
1340
3480
7500
7600
7200
7C00
7800
ENDCHAR
STARTCHAR eight.sups
ENCODING 8312
SWIDTH 638 0
DWIDTH 11 0
BBX 11 13 0 1
BITMAP
0FC0
1720
3BA0
7BA0
78C0
67A0
6B60
6B60
E860
E7A0
F8C0
7F00
1E00
ENDCHAR
STARTCHAR nine.sups
ENCODING 8313
SWIDTH 628 0
DWIDTH 11 0
BBX 11 12 0 2
BITMAP
1FC0
27A0
6860
6B60
EB60
E7E0
F060
7F60
37A0
7040
7F80
7F00
ENDCHAR
STARTCHAR parenleft.sups
ENCODING 8317
SWIDTH 434 0
DWIDTH 8 0
BBX 6 14 1 2
BITMAP
2C
44
9C
A4
A8
A8
A8
A8
A8
A8
A4
DC
FC
78
ENDCHAR
STARTCHAR parenright.sups
ENCODING 8318
SWIDTH 435 0
DWIDTH 8 0
BBX 6 14 1 2
BITMAP
78
84
94
EC
EC
6C
6C
6C
6C
6C
4C
B4
F8
E0
ENDCHAR
STARTCHAR n.sups
ENCODING 8319
SWIDTH 673 0
DWIDTH 12 0
BBX 10 12 1 2
BITMAP
3F80
4F40
D0C0
D6C0
D6C0
D6C0
D6C0
D6C0
D6C0
CE40
F780
E700
ENDCHAR
STARTCHAR zero.sinf
ENCODING 8320
SWIDTH 656 0
DWIDTH 12 0
BBX 10 12 1 -2
BITMAP
3F80
4E40
D140
EF40
EF40
EF40
EF40
DD40
C640
C080
FF00
7E00
ENDCHAR
STARTCHAR one.sinf
ENCODING 8321
SWIDTH 557 0
DWIDTH 10 0
BBX 10 12 0 -2
BITMAP
1F00
2D00
6300
7B00
7B00
3B00
3B00
3AC0
2F40
6040
FF80
FF00
ENDCHAR
STARTCHAR two.sinf
ENCODING 8322
SWIDTH 585 0
DWIDTH 11 0
BBX 10 12 0 -2
BITMAP
1FC0
2F40
60C0
7EC0
7340
2C40
6980
6BC0
EFC0
E040
FF80
FF00
ENDCHAR
STARTCHAR three.sinf
ENCODING 8323
SWIDTH 584 0
DWIDTH 11 0
BBX 10 12 0 -2
BITMAP
3F80
2E40
6140
FD40
F180
1740
3EC0
20C0
6F40
6040
FF80
FE00
ENDCHAR
STARTCHAR four.sinf
ENCODING 8324
SWIDTH 620 0
DWIDTH 11 0
BBX 10 12 0 -2
BITMAP
3DC0
6240
EAC0
EAC0
EAC0
E8C0
E7C0
F0C0
FEC0
7E40
07C0
0700
ENDCHAR
STARTCHAR five.sinf
ENCODING 8325
SWIDTH 593 0
DWIDTH 11 0
BBX 9 12 1 -2
BITMAP
7F80
4F80
D080
D700
CE80
C180
FD80
C180
5E80
C080
FF00
FC00
ENDCHAR
STARTCHAR six.sinf
ENCODING 8326
SWIDTH 628 0
DWIDTH 11 0
BBX 10 12 1 -2
BITMAP
1F80
2F80
5080
D700
DFC0
D0C0
D6C0
D6C0
CF40
F080
FF00
7E00
ENDCHAR
STARTCHAR seven.sinf
ENCODING 8327
SWIDTH 577 0
DWIDTH 10 0
BBX 10 12 0 -2
BITMAP
3FC0
6F40
E0C0
FEC0
F8C0
1340
3480
7500
7600
7200
7C00
7800
ENDCHAR
STARTCHAR eight.sinf
ENCODING 8328
SWIDTH 638 0
DWIDTH 11 0
BBX 11 13 0 -3
BITMAP
0FC0
1720
3BA0
7BA0
78C0
67A0
6B60
6B60
E860
E7A0
F8C0
7F00
1E00
ENDCHAR
STARTCHAR nine.sinf
ENCODING 8329
SWIDTH 628 0
DWIDTH 11 0
BBX 11 12 0 -2
BITMAP
1FC0
27A0
6860
6B60
EB60
E7E0
F060
7F60
37A0
7040
7F80
7F00
ENDCHAR
STARTCHAR parenleft.sinf
ENCODING 8333
SWIDTH 434 0
DWIDTH 8 0
BBX 6 14 1 -2
BITMAP
2C
44
9C
A4
A8
A8
A8
A8
A8
A8
A4
DC
FC
78
ENDCHAR
STARTCHAR parenright.sinf
ENCODING 8334
SWIDTH 435 0
DWIDTH 8 0
BBX 6 14 1 -2
BITMAP
78
84
94
EC
EC
6C
6C
6C
6C
6C
4C
B4
F8
E0
ENDCHAR
STARTCHAR colonsign
ENCODING 8353
SWIDTH 728 0
DWIDTH 13 0
BBX 12 18 1 -3
BITMAP
02C0
0D20
1250
27D0
4810
C810
CBE0
CB80
CA00
CA00
C9E0
C810
E7D0
F250
FD20
7D20
1FC0
1B00
ENDCHAR
STARTCHAR lira
ENCODING 8356
SWIDTH 795 0
DWIDTH 14 0
BBX 14 16 0 -2
BITMAP
0FF0
1010
13D0
2410
65E0
4E40
4480
E5BC
CE44
E5D4
E414
67F4
6004
6004
7FF8
7FF0
ENDCHAR
STARTCHAR naira
ENCODING 8358
SWIDTH 853 0
DWIDTH 15 0
BBX 15 16 0 -2
BITMAP
1E3E
2142
64CA
664A
652A
488E
444A
E52A
C92E
E592
E5CA
E5CA
61C2
61C2
7EFC
78F0
ENDCHAR
STARTCHAR peseta
ENCODING 8359
SWIDTH 812 0
DWIDTH 15 0
BBX 15 16 0 -2
BITMAP
1FF8
2004
67E4
6412
45D2
4DCA
E5D2
E414
E7E4
6408
65F0
65C0
6100
6100
7E00
7800
ENDCHAR
STARTCHAR dong
ENCODING 8363
SWIDTH 782 0
DWIDTH 14 0
BBX 14 19 0 -5
BITMAP
00F8
0184
02F4
0624
0FA8
0828
17E8
2828
6BA8
EBA8
EBA8
E828
E7D0
F820
7FE0
37D0
3010
7FE0
7FC0
ENDCHAR
STARTCHAR Euro
ENCODING 8364
SWIDTH 748 0
DWIDTH 13 0
BBX 13 16 0 -2
BITMAP
07F8
0808
13E8
3408
64F0
6FD0
E410
E5E0
EFD0
E410
E5F8
73E8
7008
7C08
3FF0
1FE0
ENDCHAR
STARTCHAR peso
ENCODING 8369
SWIDTH 812 0
DWIDTH 15 0
BBX 15 16 0 -2
BITMAP
1FF8
2004
67E4
6412
4DCA
E5D4
CC0A
E412
E7E4
E408
65F0
65C0
6100
6100
7E00
7800
ENDCHAR
STARTCHAR guarani
ENCODING 8370
SWIDTH 788 0
DWIDTH 14 0
BBX 13 18 1 -3
BITMAP
0380
0440
1930
2110
47D0
C810
CBE0
CBC0
CAB8
CB88
CBA8
C828
C7E8
E108
FC38
7C20
3FC0
1F00
ENDCHAR
STARTCHAR cedi
ENCODING 8373
SWIDTH 728 0
DWIDTH 13 0
BBX 12 18 1 -3
BITMAP
03C0
0C20
1110
27D0
4810
C810
CBE0
CB80
CA00
CA00
C9E0
C810
E7D0
F110
FC20
7C40
1F80
1F00
ENDCHAR
STARTCHAR indianrupee
ENCODING 8377
SWIDTH 713 0
DWIDTH 13 0
BBX 13 16 0 -2
BITMAP
3FF8
2FE8
6088
FE90
E088
6FE8
7E90
E0A0
6FD0
E028
FF28
FF28
0308
0308
03F0
03C0
ENDCHAR
STARTCHAR turkishlira
ENCODING 8378
SWIDTH 795 0
DWIDTH 14 0
BBX 14 16 0 -2
BITMAP
1F00
2100
6500
6480
5E80
4500
E6BC
DC44
C5C4
E5D4
E594
67E4
6008
6010
7FE0
7F80
ENDCHAR
STARTCHAR ruble
ENCODING 8381
SWIDTH 782 0
DWIDTH 14 0
BBX 14 16 0 -2
BITMAP
1FF8
2004
67E4
6414
65D4
65D4
6414
67E4
6418
65E0
4E40
C480
E100
E100
7E00
7800
ENDCHAR
STARTCHAR liter
ENCODING 8467
SWIDTH 749 0
DWIDTH 13 0
BBX 12 16 1 -2
BITMAP
1FE0
2710
48D0
CA50
CB50
CB50
C850
CF90
C820
CBC0
C820
C820
E7A0
F020
FFC0
7F80
ENDCHAR
STARTCHAR uni2117
ENCODING 8471
SWIDTH 967 0
DWIDTH 17 0
BBX 16 19 1 -4
BITMAP
1FFC
2C0E
57FB
D81F
D9EF
DA17
DAD7
DAD7
DA37
DBCF
DAFF
DADF
D89F
DF1B
F215
FFFA
FC0C
7FF0
1FC0
ENDCHAR
STARTCHAR uni2120
ENCODING 8480
SWIDTH 1003 0
DWIDTH 18 0
BBX 18 11 0 3
BITMAP
1FFBC0
26DD40
68EEC0
EFEAC0
E664C0
F16AC0
ED6EC0
6E4E40
E1DE40
FFEF80
FDCE00
ENDCHAR
STARTCHAR trademark
ENCODING 8482
SWIDTH 1003 0
DWIDTH 18 0
BBX 18 11 0 3
BITMAP
3FFBC0
5B5D40
C46EC0
F5EAC0
F5E4C0
35EAC0
35EEC0
31CE40
33DE40
3DEF80
39CE00
ENDCHAR
STARTCHAR Omega
ENCODING 8486
SWIDTH 877 0
DWIDTH 16 0
BBX 16 16 0 -2
BITMAP
07F8
0804
13F2
240A
64EA
64EA
64EA
64EA
64EA
74EA
64C9
6251
EC4D
E041
FFFE
FFFC
ENDCHAR
STARTCHAR estimated
ENCODING 8494
SWIDTH 815 0
DWIDTH 15 0
BBX 13 16 1 -2
BITMAP
1FF0
2008
47C8
C828
D398
D018
D018
DFE8
D008
D3F0
C810
C810
E7D0
F010
FFE0
7FC0
ENDCHAR
STARTCHAR onethird
ENCODING 8531
SWIDTH 1269 0
DWIDTH 23 0
BBX 23 16 0 -2
BITMAP
1F1F00
2D1100
633500
7B65F8
7B6A04
3B6AF4
3B6A0C
3AEBEC
2F2B34
604B0A
FFD3FA
FFD60A
00C6F2
01C604
01FFF8
01E7E0
ENDCHAR
STARTCHAR twothirds
ENCODING 8532
SWIDTH 1269 0
DWIDTH 23 0
BBX 23 16 0 -2
BITMAP
1FDF00
2F3100
72B500
7CA5F8
732A04
2C6AF4
69EA0C
6BEBEC
E42D34
E02B0A
FFD3FA
FFD60A
00C6F2
00C604
01FFF8
01E7E0
ENDCHAR
STARTCHAR oneeighth
ENCODING 8539
SWIDTH 1283 0
DWIDTH 23 0
BBX 23 16 0 -2
BITMAP
3F1F00
6D1100
633500
7B66F8
3B6974
3B6A8C
3B6AAC
3AEBAC
6F2A7A
E04A86
FFD376
FFD736
00C6FA
00C704
01FFF8
01E7E0
ENDCHAR
STARTCHAR threeeighths
ENCODING 8540
SWIDTH 1293 0
DWIDTH 23 0
BBX 23 16 0 -2
BITMAP
3F9F00
6E5100
E17500
FDF5F8
172574
30AA8A
3EAABA
20ABAC
6F2A7A
E06A86
FFCAB6
FED2B6
00C67A
00C704
01FFF8
01E7E0
ENDCHAR
STARTCHAR fiveeighths
ENCODING 8541
SWIDTH 1303 0
DWIDTH 23 0
BBX 22 16 1 -2
BITMAP
7F9E00
4FA200
D06A00
D7EBF0
CE6AEC
C14B14
FD5374
C15754
5E54F4
C0D50C
FFD56C
FD956C
0184F4
018E08
01FFF0
01CFC0
ENDCHAR
STARTCHAR seveneighths
ENCODING 8542
SWIDTH 1241 0
DWIDTH 22 0
BBX 22 16 0 -2
BITMAP
3FDE00
6F2200
E0AA00
FEABF0
78AAE8
135314
34D574
75D75C
76D4F4
73D50C
7D956C
79A56C
018CF4
018E08
01FFF0
03CFC0
ENDCHAR
STARTCHAR arrowleft
ENCODING 8592
SWIDTH 1100 0
DWIDTH 20 0
BBX 14 13 3 -1
BITMAP
01E0
0220
0420
193C
2684
44F4
E284
F938
7C30
3F20
1FC0
0780
0300
ENDCHAR
STARTCHAR arrowup
ENCODING 8593
SWIDTH 1100 0
DWIDTH 20 0
BBX 13 15 4 -2
BITMAP
0300
0480
0840
1B40
12A0
2490
67D0
4108
FD70
FD60
F940
1840
1F80
1F00
0C00
ENDCHAR
STARTCHAR arrowright
ENCODING 8594
SWIDTH 1100 0
DWIDTH 20 0
BBX 14 13 3 -1
BITMAP
0780
0C40
0C30
35C8
4124
CF34
C14C
FD90
FC20
0CC0
0D00
0E00
0800
ENDCHAR
STARTCHAR arrowdown
ENCODING 8595
SWIDTH 1100 0
DWIDTH 20 0
BBX 14 15 3 -2
BITMAP
03C0
0440
0CC0
0EC0
30BC
6084
F368
7A50
7990
3CA0
1E40
1E40
0F80
0600
0400
ENDCHAR
STARTCHAR arrowupleft
ENCODING 8598
SWIDTH 1100 0
DWIDTH 20 0
BBX 12 12 4 0
BITMAP
3E00
41E0
EE10
E9A0
E940
EB40
E4A0
6250
7310
77A0
7FC0
6300
ENDCHAR
STARTCHAR arrowupright
ENCODING 8599
SWIDTH 1100 0
DWIDTH 20 0
BBX 12 12 4 0
BITMAP
01F0
1E10
21D0
6650
F250
7B50
24A0
2920
6320
F7A0
FBC0
7100
ENDCHAR
STARTCHAR arrowdownright
ENCODING 8600
SWIDTH 1100 0
DWIDTH 20 0
BBX 12 12 4 0
BITMAP
0C40
12A0
2920
6420
F290
F950
7250
21D0
6010
FE10
FFE0
0FC0
ENDCHAR
STARTCHAR arrowdownleft
ENCODING 8601
SWIDTH 1100 0
DWIDTH 20 0
BBX 12 12 4 0
BITMAP
08C0
1520
3250
6090
6520
6A40
6920
6F90
C010
C1E0
FF80
FC00
ENDCHAR
STARTCHAR uni21AA
ENCODING 8618
SWIDTH 1100 0
DWIDTH 20 0
BBX 15 17 3 -3
BITMAP
1FF8
27E8
4808
D7F0
D7E0
D640
D720
D718
D064
EFD2
E062
FF0C
7F10
1E20
06C0
0700
0400
ENDCHAR
STARTCHAR uni21AB
ENCODING 8619
SWIDTH 1100 0
DWIDTH 20 0
BBX 15 17 2 -3
BITMAP
0FFE
1BFA
3806
3FF6
3FF6
01B6
0236
0436
1946
27FA
6302
F87C
7C30
3F20
0FA0
07C0
0300
ENDCHAR
STARTCHAR uni21B0
ENCODING 8624
SWIDTH 1100 0
DWIDTH 20 0
BBX 15 16 2 -2
BITMAP
0040
01A0
0240
0440
193C
2302
67FA
F166
FC36
3E36
1FB6
07F6
0372
0072
007C
0078
ENDCHAR
STARTCHAR uni21B1
ENCODING 8625
SWIDTH 1100 0
DWIDTH 20 0
BBX 15 15 3 -2
BITMAP
03C0
0620
0718
1844
2062
2FF2
CB4C
D710
D620
D6C0
D700
C400
C400
F800
F000
ENDCHAR
STARTCHAR uni21B2
ENCODING 8626
SWIDTH 1100 0
DWIDTH 20 0
BBX 15 15 2 -2
BITMAP
001E
0032
0076
00B6
0336
0436
1946
27FA
6302
F14C
FC30
3E20
1FA0
0FC0
0300
ENDCHAR
STARTCHAR uni21B3
ENCODING 8627
SWIDTH 1100 0
DWIDTH 20 0
BBX 14 15 3 -2
BITMAP
7C00
C400
D500
D680
D660
D610
D148
CC64
E3E4
F948
FE10
3E60
0680
0700
0C00
ENDCHAR
STARTCHAR partialdiff
ENCODING 8706
SWIDTH 792 0
DWIDTH 14 0
BBX 14 17 0 -3
BITMAP
0FF0
1008
33E4
3014
3F94
3854
13D4
2434
6994
6994
E994
E414
E3E4
F008
7FF0
3FC0
0600
ENDCHAR
STARTCHAR Delta
ENCODING 8710
SWIDTH 830 0
DWIDTH 15 0
BBX 13 16 1 -2
BITMAP
0FE0
1010
3390
3450
6548
6928
6928
6BA8
CBA8
CB98
C818
C818
C7E8
C008
FFF8
FFE0
ENDCHAR
STARTCHAR product
ENCODING 8719
SWIDTH 859 0
DWIDTH 15 0
BBX 14 16 1 -2
BITMAP
3FFC
4004
CFF4
C814
CB94
CB94
CB94
CB94
CB94
CB94
CB94
CB94
C384
C384
FDF8
F9F0
ENDCHAR
STARTCHAR summation
ENCODING 8721
SWIDTH 750 0
DWIDTH 14 0
BBX 13 18 0 -4
BITMAP
1FF8
2008
67E8
6408
64F0
7220
7920
7CA0
3EA0
1920
1240
2480
2878
6FE8
E008
E008
FFF0
FFE0
ENDCHAR
STARTCHAR minus
ENCODING 8722
SWIDTH 834 0
DWIDTH 15 0
BBX 13 6 1 3
BITMAP
3FF8
4008
CFE8
C008
FFF0
FFE0
ENDCHAR
STARTCHAR uni2215
ENCODING 8725
SWIDTH 417 0
DWIDTH 8 0
BBX 8 16 0 -2
BITMAP
0F
11
35
35
35
75
66
6A
6A
6A
6A
EC
C4
C4
F8
F0
ENDCHAR
STARTCHAR uni2219
ENCODING 8729
SWIDTH 464 0
DWIDTH 8 0
BBX 8 8 0 2
BITMAP
1F
21
65
E5
E1
E1
FE
FC
ENDCHAR
STARTCHAR radical
ENCODING 8730
SWIDTH 841 0
DWIDTH 15 0
BBX 16 17 0 -2
BITMAP
001F
0025
006A
006A
00EA
1ECA
21D4
6CD4
E2D4
F294
FA18
F928
3D28
1CC8
1C08
1FF0
0FC0
ENDCHAR
STARTCHAR infinity
ENCODING 8734
SWIDTH 978 0
DWIDTH 18 0
BBX 17 12 0 0
BITMAP
1FFF00
279E80
286180
6B4D80
EB4D80
EB4D80
EB4D80
E86180
E79E80
F04180
7FFE00
7EFC00
ENDCHAR
STARTCHAR integral
ENCODING 8747
SWIDTH 574 0
DWIDTH 10 0
BBX 11 19 0 -4
BITMAP
07E0
09A0
1220
3240
3280
3280
3280
3280
3280
3280
3280
3280
3280
2280
4C80
C100
C200
FC00
F000
ENDCHAR
STARTCHAR approxequal
ENCODING 8776
SWIDTH 834 0
DWIDTH 15 0
BBX 13 12 1 0
BITMAP
1FF8
2008
4FF8
C008
FFF0
FFF0
A008
4F88
C068
CE08
FFF0
FFC0
ENDCHAR
STARTCHAR notequal
ENCODING 8800
SWIDTH 834 0
DWIDTH 15 0
BBX 13 15 1 -2
BITMAP
03E0
3E30
4088
CFE8
C108
FD38
FD60
2118
4108
CFE8
C208
F870
FFE0
1E00
1C00
ENDCHAR
STARTCHAR lessequal
ENCODING 8804
SWIDTH 814 0
DWIDTH 15 0
BBX 12 16 1 -2
BITMAP
0070
0390
1C70
2390
6C30
EBE0
E980
EC70
E390
F870
FF10
6010
EFF0
E010
FFF0
FFE0
ENDCHAR
STARTCHAR greaterequal
ENCODING 8805
SWIDTH 814 0
DWIDTH 15 0
BBX 13 16 1 -2
BITMAP
3C00
6380
EC70
E388
F868
FFA8
7F28
1068
2388
6C30
E1F0
E008
EFE8
E008
FFF0
FFE0
ENDCHAR
STARTCHAR block
ENCODING 9608
SWIDTH 1000 0
DWIDTH 18 0
BBX 20 20 -1 -3
BITMAP
FFFFF0
FFFFF0
FFFFF0
FFFFF0
FFFFF0
FFFFF0
FFFFF0
FFFFF0
FFFFF0
FFFFF0
FFFFF0
FFFFF0
FFFFF0
FFFFF0
FFFFF0
FFFFF0
FFFFF0
FFFFF0
FFFFF0
FFFFF0
ENDCHAR
STARTCHAR blacksquare
ENCODING 9632
SWIDTH 1100 0
DWIDTH 20 0
BBX 10 11 5 0
BITMAP
7FC0
4040
C640
C940
C940
CF40
C040
C040
FFC0
FF80
FF00
ENDCHAR
STARTCHAR blackuppointingtriangle
ENCODING 9650
SWIDTH 1100 0
DWIDTH 20 0
BBX 12 11 4 0
BITMAP
0380
0480
0840
1940
1320
2290
2110
4010
FFF0
FFE0
FFC0
ENDCHAR
STARTCHAR whiteuppointingtriangle
ENCODING 9651
SWIDTH 1100 0
DWIDTH 20 0
BBX 10 9 6 2
BITMAP
0C00
1200
1100
2100
4080
4080
8040
8040
FFC0
ENDCHAR
STARTCHAR blackrightpointingtriangle
ENCODING 9654
SWIDTH 1100 0
DWIDTH 20 0
BBX 10 13 5 -1
BITMAP
7800
C400
C300
C880
CC40
CE40
C8C0
C100
C200
CC00
F000
C000
8000
ENDCHAR
STARTCHAR whiterightpointingtriangle
ENCODING 9655
SWIDTH 1100 0
DWIDTH 20 0
BBX 8 11 7 1
BITMAP
C0
B0
88
86
81
81
82
84
98
E0
80
ENDCHAR
STARTCHAR blackdownpointingtriangle
ENCODING 9660
SWIDTH 1100 0
DWIDTH 20 0
BBX 12 11 4 0
BITMAP
7FF0
E010
E790
F320
7140
7840
3C80
3C80
1F00
0C00
0800
ENDCHAR
STARTCHAR whitedownpointingtriangle
ENCODING 9661
SWIDTH 1100 0
DWIDTH 20 0
BBX 10 9 6 2
BITMAP
FFC0
8040
4080
4080
2100
2100
1200
0A00
0400
ENDCHAR
STARTCHAR blackleftpointingtriangle
ENCODING 9664
SWIDTH 1100 0
DWIDTH 20 0
BBX 10 13 5 -1
BITMAP
00C0
0340
0C40
1140
2340
4740
E140
F840
7C40
3F40
0FC0
0780
0100
ENDCHAR
STARTCHAR whiteleftpointingtriangle
ENCODING 9665
SWIDTH 1100 0
DWIDTH 20 0
BBX 8 11 7 1
BITMAP
03
0D
11
61
81
81
41
31
09
07
01
ENDCHAR
STARTCHAR blackdiamond
ENCODING 9670
SWIDTH 1100 0
DWIDTH 20 0
BBX 14 14 3 -1
BITMAP
0180
0240
0420
0810
1188
1244
2244
7188
F890
7C20
3E40
1F80
0F00
0600
ENDCHAR
STARTCHAR lozenge
ENCODING 9674
SWIDTH 831 0
DWIDTH 15 0
BBX 13 16 1 -2
BITMAP
07E0
0820
13D0
3450
2528
6928
4BA8
CB98
E9A8
E528
E450
F450
7390
7820
3FC0
3F80
ENDCHAR
STARTCHAR uni25D6
ENCODING 9686
SWIDTH 546 0
DWIDTH 10 0
BBX 11 20 0 -3
BITMAP
01E0
0FE0
1FE0
3FE0
3FE0
7FE0
7FE0
FFE0
FFE0
FFE0
FFE0
FFE0
FFE0
FFE0
7FE0
7FE0
3FE0
1FE0
0FE0
03E0
ENDCHAR
STARTCHAR uni25D7
ENCODING 9687
SWIDTH 546 0
DWIDTH 10 0
BBX 11 20 -1 -3
BITMAP
F000
FC00
FF00
FF80
FF80
FFC0
FFC0
FFE0
FFE0
FFE0
FFE0
FFE0
FFE0
FFC0
FFC0
FFC0
FF80
FF00
FE00
F800
ENDCHAR
STARTCHAR uni25DC
ENCODING 9692
SWIDTH 1280 0
DWIDTH 23 0
BBX 19 20 2 -3
BITMAP
000FE0
00FFE0
03FFE0
07FFE0
0FFFE0
1FFFE0
3FFFE0
3FFFE0
7FFFE0
7FFFE0
7FFFE0
FFFFE0
FFFFE0
FFFFE0
FFFFE0
FFFFE0
FFFFE0
FFFFE0
FFFFE0
FFFFE0
ENDCHAR
STARTCHAR uni25DD
ENCODING 9693
SWIDTH 1280 0
DWIDTH 23 0
BBX 19 20 2 -3
BITMAP
FE0000
FFE000
FFF800
FFFC00
FFFE00
FFFF00
FFFF80
FFFF80
FFFFC0
FFFFC0
FFFFC0
FFFFE0
FFFFE0
FFFFE0
FFFFE0
FFFFE0
FFFFE0
FFFFE0
FFFFE0
FFFFE0
ENDCHAR
STARTCHAR uni25DE
ENCODING 9694
SWIDTH 1280 0
DWIDTH 23 0
BBX 19 20 2 -3
BITMAP
FFFFE0
FFFFE0
FFFFE0
FFFFE0
FFFFE0
FFFFE0
FFFFE0
FFFFE0
FFFFE0
FFFFE0
FFFFC0
FFFFC0
FFFFC0
FFFF80
FFFF00
FFFF00
FFFE00
FFFC00
FFF000
FF8000
ENDCHAR
STARTCHAR uni25DF
ENCODING 9695
SWIDTH 1280 0
DWIDTH 23 0
BBX 19 20 2 -3
BITMAP
FFFFE0
FFFFE0
FFFFE0
FFFFE0
FFFFE0
FFFFE0
FFFFE0
FFFFE0
FFFFE0
FFFFE0
7FFFE0
7FFFE0
7FFFE0
3FFFE0
1FFFE0
1FFFE0
0FFFE0
07FFE0
01FFE0
003FE0
ENDCHAR
STARTCHAR uni261A
ENCODING 9754
SWIDTH 1100 0
DWIDTH 20 0
BBX 16 12 2 0
BITMAP
000F
3FF9
4009
FF09
FC09
FF09
1C09
0F89
0E09
0FF9
0FFE
003C
ENDCHAR
STARTCHAR uni261B
ENCODING 9755
SWIDTH 1100 0
DWIDTH 20 0
BBX 16 12 2 0
BITMAP
3C00
27FF
E401
E43F
E40C
E438
E410
E430
E410
E7E0
FF80
F000
ENDCHAR
STARTCHAR uni261C
ENCODING 9756
SWIDTH 1100 0
DWIDTH 20 0
BBX 14 10 4 2
BITMAP
0018
7FEC
802C
7C2C
102C
0C2C
0C2C
0A2C
0FEC
003C
ENDCHAR
STARTCHAR uni261D
ENCODING 9757
SWIDTH 1100 0
DWIDTH 20 0
BBX 10 14 6 0
BITMAP
2000
5000
5000
5000
5F00
5A80
4280
4080
4080
4080
4080
FFC0
8040
FFC0
ENDCHAR
STARTCHAR uni261E
ENCODING 9758
SWIDTH 1100 0
DWIDTH 20 0
BBX 13 10 5 2
BITMAP
C000
BFF8
A008
A1F0
A040
A180
A180
A080
BF80
E000
ENDCHAR
STARTCHAR uni261F
ENCODING 9759
SWIDTH 1100 0
DWIDTH 20 0
BBX 10 14 6 0
BITMAP
FFC0
8040
BF40
4080
4080
4080
4080
4080
5680
3E80
0680
0280
0280
0380
ENDCHAR
STARTCHAR uni27A1
ENCODING 10145
SWIDTH 650 0
DWIDTH 12 0
BBX 13 28 -1 -7
BITMAP
2000
7000
7800
7C00
BC00
FE00
FF00
FF80
FF80
FFC0
FFE0
FFE0
FFF0
FFF0
FFF8
FFF0
FFF0
FFE0
FFC0
FFC0
FF80
FF00
FE00
FE00
7C00
7800
7000
7000
ENDCHAR
STARTCHAR uni2B1B
ENCODING 11035
SWIDTH 1280 0
DWIDTH 23 0
BBX 19 20 2 -3
BITMAP
FFFFE0
FFFFE0
FFFFE0
FFFFE0
FFFFE0
FFFFE0
FFFFE0
FFFFE0
FFFFE0
FFFFE0
FFFFE0
FFFFE0
FFFFE0
FFFFE0
FFFFE0
FFFFE0
FFFFE0
FFFFE0
FFFFE0
FFFFE0
ENDCHAR
STARTCHAR uni2B24
ENCODING 11044
SWIDTH 1280 0
DWIDTH 23 0
BBX 21 21 1 -4
BITMAP
03FE00
0FFF80
1FFFC0
3FFFE0
3FFFE0
7FFFF0
7FFFF0
7FFFF0
FFFFF8
FFFFF8
FFFFF8
FFFFF8
FFFFF8
7FFFF0
7FFFF0
7FFFF0
3FFFE0
1FFFC0
1FFFC0
07FF00
01FC00
ENDCHAR
STARTCHAR A.salt
ENCODING 57600
SWIDTH 836 0
DWIDTH 15 0
BBX 13 16 1 -2
BITMAP
1FF0
2008
47E8
C828
CB98
CB98
CB98
C818
CFF8
C818
C818
CB98
C388
C388
FDF8
F1E0
ENDCHAR
STARTCHAR Agrave.salt
ENCODING 57601
SWIDTH 836 0
DWIDTH 15 0
BBX 13 20 1 -2
BITMAP
1FE0
3310
70D0
7FD0
7830
2008
47E8
C828
CB98
CB98
CB98
C818
CFF8
C818
C818
CB98
C388
C388
FDF8
F1E0
ENDCHAR
STARTCHAR Aacute.salt
ENCODING 57602
SWIDTH 836 0
DWIDTH 15 0
BBX 13 20 1 -2
BITMAP
0FF0
11D0
3210
33E0
3C30
2008
47E8
C828
CB98
CB98
CB98
C818
CFF8
C818
C818
CB98
C388
C388
FDF8
F1E0
ENDCHAR
STARTCHAR Acircumflex.salt
ENCODING 57603
SWIDTH 836 0
DWIDTH 15 0
BBX 13 21 1 -2
BITMAP
0380
0C60
13D0
3010
77D0
7830
6008
47E8
C828
CB98
CB98
CB98
C818
CFF8
C818
C818
CB98
C388
C388
FDF8
F1E0
ENDCHAR
STARTCHAR Atilde.salt
ENCODING 57604
SWIDTH 836 0
DWIDTH 15 0
BBX 13 20 1 -2
BITMAP
0FF0
1210
31D0
7390
7870
6008
47E8
C828
CB98
CB98
CB98
C818
CFF8
C818
C818
CB98
C388
C388
FDF8
F1E0
ENDCHAR
STARTCHAR Adieresis.salt
ENCODING 57605
SWIDTH 836 0
DWIDTH 15 0
BBX 13 20 1 -2
BITMAP
1FF0
2110
6110
7390
7C70
6008
47E8
C828
CB98
CB98
CB98
C818
CFF8
C818
C818
CB98
C388
C388
FDF8
F1E0
ENDCHAR
STARTCHAR Aring.salt
ENCODING 57606
SWIDTH 836 0
DWIDTH 15 0
BBX 13 20 1 -2
BITMAP
0FE0
17D0
35B0
75B0
7450
6388
4468
C828
CB98
CB98
CB98
C818
CFF8
C818
C818
CB98
C388
C388
FDF8
F1E0
ENDCHAR
STARTCHAR Amacron.salt
ENCODING 57607
SWIDTH 836 0
DWIDTH 15 0
BBX 13 20 1 -2
BITMAP
0FE0
1010
33D0
7390
7C70
6008
47E8
C828
CB98
CB98
CB98
C818
CFF8
C818
C818
CB98
C388
C388
FDF8
F1E0
ENDCHAR
STARTCHAR Abreve.salt
ENCODING 57608
SWIDTH 836 0
DWIDTH 15 0
BBX 13 21 1 -2
BITMAP
0E60
1390
3430
73D0
7C60
3BB0
2008
47E8
C828
CB98
CB98
CB98
C818
CFF8
C818
C818
CB98
C388
C388
FDF8
F1E0
ENDCHAR
STARTCHAR Aogonek.salt
ENCODING 57609
SWIDTH 836 0
DWIDTH 15 0
BBX 13 20 1 -6
BITMAP
1FF0
2008
47E8
C828
CB98
CB98
CB98
C818
CFF8
C818
C818
CB98
C3A8
C3A8
FDA8
F3A8
0398
03F8
03F0
01E0
ENDCHAR
STARTCHAR E.salt
ENCODING 57610
SWIDTH 743 0
DWIDTH 13 0
BBX 12 16 1 -2
BITMAP
0FF0
3010
27D0
4810
CBE0
C820
C820
CFA0
C820
CBC0
C830
C810
E7D0
F010
FFE0
7FC0
ENDCHAR
STARTCHAR Egrave.salt
ENCODING 57611
SWIDTH 743 0
DWIDTH 13 0
BBX 12 20 1 -2
BITMAP
1FC0
2720
60A0
7F20
7CD0
2010
27D0
4810
CBE0
C820
C820
CFA0
C820
CBC0
C830
C810
E7D0
F010
FFE0
7FC0
ENDCHAR
STARTCHAR Eacute.salt
ENCODING 57612
SWIDTH 743 0
DWIDTH 13 0
BBX 12 20 1 -2
BITMAP
0FF0
11D0
3610
71E0
7E10
6010
27D0
4810
CBE0
C820
C820
CFA0
C820
CBC0
C830
C810
E7D0
F010
FFE0
7FC0
ENDCHAR
STARTCHAR Ecircumflex.salt
ENCODING 57613
SWIDTH 743 0
DWIDTH 13 0
BBX 12 21 1 -2
BITMAP
0380
0C60
1790
3010
7790
7C70
6010
27D0
4810
CBE0
C820
C820
CFA0
C820
CBC0
C830
C810
E7D0
F010
FFE0
7FC0
ENDCHAR
STARTCHAR Edieresis.salt
ENCODING 57614
SWIDTH 743 0
DWIDTH 13 0
BBX 12 20 1 -2
BITMAP
1FF0
2110
6110
6110
7EF0
6010
27D0
4810
CBE0
C820
C820
CFA0
C820
CBC0
C830
C810
E7D0
F010
FFE0
7FC0
ENDCHAR
STARTCHAR Emacron.salt
ENCODING 57615
SWIDTH 743 0
DWIDTH 13 0
BBX 12 20 1 -2
BITMAP
0FE0
1010
37D0
7010
7FF0
6010
27D0
4810
CBE0
C820
C820
CFA0
C820
CBC0
C830
C810
E7D0
F010
FFE0
7FC0
ENDCHAR
STARTCHAR Ebreve.salt
ENCODING 57616
SWIDTH 743 0
DWIDTH 13 0
BBX 12 21 1 -2
BITMAP
0C60
1390
3450
7390
7820
7FD0
2010
27D0
4810
CBE0
C820
C820
CFA0
C820
CBC0
C830
C810
E7D0
F010
FFE0
7FC0
ENDCHAR
STARTCHAR Edotaccent.salt
ENCODING 57617
SWIDTH 743 0
DWIDTH 13 0
BBX 12 20 1 -2
BITMAP
07C0
0940
1840
1C40
1FB0
2010
27D0
4810
CBE0
C820
C820
CFA0
C820
CBC0
C830
C810
E7D0
F010
FFE0
7FC0
ENDCHAR
STARTCHAR Eogonek.salt
ENCODING 57618
SWIDTH 743 0
DWIDTH 13 0
BBX 12 20 1 -6
BITMAP
0FF0
3010
27D0
4810
CBE0
C820
C820
CFA0
C820
CBC0
C870
C810
E7D0
F050
FFA0
7E90
0650
07F0
07E0
0380
ENDCHAR
STARTCHAR Ecaron.salt
ENCODING 57619
SWIDTH 743 0
DWIDTH 13 0
BBX 12 21 1 -2
BITMAP
0C60
1390
74D0
7310
7C60
7FB0
2010
27D0
4810
CBE0
C820
C820
CFA0
C820
CBC0
C830
C810
E7D0
F010
FFE0
7FC0
ENDCHAR
STARTCHAR I.salt
ENCODING 57620
SWIDTH 471 0
DWIDTH 8 0
BBX 7 16 1 -2
BITMAP
3E
42
CA
CA
CA
CA
CA
CA
CA
CA
CA
CA
C2
C2
FC
F8
ENDCHAR
STARTCHAR Igrave.salt
ENCODING 57621
SWIDTH 471 0
DWIDTH 8 0
BBX 9 20 0 -2
BITMAP
3F00
6C80
E280
FC80
F300
2100
6500
6500
6500
6500
6500
6500
6500
6500
6500
6500
6100
6100
7E00
7C00
ENDCHAR
STARTCHAR Iacute.salt
ENCODING 57622
SWIDTH 471 0
DWIDTH 8 0
BBX 9 20 0 -2
BITMAP
1F80
2E80
6080
E700
F900
E100
6500
6500
6500
6500
6500
6500
6500
6500
6500
6500
6100
6100
7E00
7C00
ENDCHAR
STARTCHAR Icircumflex.salt
ENCODING 57623
SWIDTH 471 0
DWIDTH 8 0
BBX 9 21 0 -2
BITMAP
0E00
3180
4E80
C080
DF80
F100
A100
6500
6500
6500
6500
6500
6500
6500
6500
6500
6500
6100
6100
7E00
7C00
ENDCHAR
STARTCHAR Idieresis.salt
ENCODING 57624
SWIDTH 471 0
DWIDTH 8 0
BBX 10 20 0 -2
BITMAP
7FC0
D440
C440
C440
FB80
2100
6500
6500
6500
6500
6500
6500
6500
6500
6500
6500
6100
6100
7E00
7C00
ENDCHAR
STARTCHAR Itilde.salt
ENCODING 57625
SWIDTH 471 0
DWIDTH 8 0
BBX 9 20 0 -2
BITMAP
3F80
4880
C680
D080
FF00
2100
6500
6500
6500
6500
6500
6500
6500
6500
6500
6500
6100
6100
7E00
7C00
ENDCHAR
STARTCHAR Imacron.salt
ENCODING 57626
SWIDTH 471 0
DWIDTH 8 0
BBX 8 20 0 -2
BITMAP
1F
21
EF
E1
FF
E1
65
65
65
65
65
65
65
65
65
65
61
61
7E
7C
ENDCHAR
STARTCHAR Ibreve.salt
ENCODING 57627
SWIDTH 471 0
DWIDTH 8 0
BBX 9 21 0 -2
BITMAP
3B00
4480
D180
CE80
E100
FF00
6100
6500
6500
6500
6500
6500
6500
6500
6500
6500
6500
6100
6100
7E00
7C00
ENDCHAR
STARTCHAR Iogonek.salt
ENCODING 57628
SWIDTH 471 0
DWIDTH 8 0
BBX 7 20 1 -6
BITMAP
3E
42
CA
CA
CA
CA
CA
CA
CA
CA
CA
CA
CA
D2
D4
D2
CA
FE
F8
F0
ENDCHAR
STARTCHAR Idotaccent.salt
ENCODING 57629
SWIDTH 471 0
DWIDTH 8 0
BBX 7 20 1 -2
BITMAP
3E
4A
C2
C2
FE
C2
CA
CA
CA
CA
CA
CA
CA
CA
CA
CA
C2
C2
FC
F8
ENDCHAR
STARTCHAR L.salt
ENCODING 57630
SWIDTH 715 0
DWIDTH 13 0
BBX 12 16 1 -2
BITMAP
3E00
4200
CA00
CA00
CA00
CA00
CA00
CA00
CA00
CA00
C9F0
C810
C7D0
C010
FFE0
FFC0
ENDCHAR
STARTCHAR Lacute.salt
ENCODING 57631
SWIDTH 715 0
DWIDTH 13 0
BBX 12 20 1 -2
BITMAP
3FC0
4740
C840
C380
FF00
C200
CA00
CA00
CA00
CA00
CA00
CA00
CA00
CA00
C9F0
C810
C7D0
C010
FFE0
FFC0
ENDCHAR
STARTCHAR Lcommaaccent.salt
ENCODING 57632
SWIDTH 715 0
DWIDTH 13 0
BBX 12 23 1 -9
BITMAP
3E00
4200
CA00
CA00
CA00
CA00
CA00
CA00
CA00
CA00
C9F0
C810
C7D0
C010
FFE0
F840
1B40
3880
3E80
3B40
1880
1F00
1C00
ENDCHAR
STARTCHAR Lcaron.salt
ENCODING 57633
SWIDTH 715 0
DWIDTH 13 0
BBX 12 16 1 -2
BITMAP
3EF0
4310
CB50
CB50
CB10
CBE0
CBC0
CB80
CA00
CA00
C9F0
C810
C7D0
C010
FFE0
FFC0
ENDCHAR
STARTCHAR Ldot.salt
ENCODING 57634
SWIDTH 715 0
DWIDTH 13 0
BBX 12 16 1 -2
BITMAP
3E00
4200
CA00
CAE0
CB10
CB50
CB10
CB10
CBE0
CBC0
C830
C810
C7D0
C010
FFE0
FFC0
ENDCHAR
STARTCHAR Lslash.salt
ENCODING 57635
SWIDTH 725 0
DWIDTH 13 0
BBX 13 16 0 -2
BITMAP
1F00
2100
6500
6500
65C0
6440
4F40
C440
E580
E500
E4F8
6408
63E8
6008
7FF0
7FE0
ENDCHAR
STARTCHAR M.salt
ENCODING 57636
SWIDTH 1170 0
DWIDTH 21 0
BBX 19 16 1 -2
BITMAP
1FFFC0
200020
47DFA0
C820A0
CBA660
CBA660
CBA660
CBA660
CBA660
CBA660
CBA660
CBA660
C38620
C38620
FFFFE0
F3E780
ENDCHAR
STARTCHAR N.salt
ENCODING 57637
SWIDTH 846 0
DWIDTH 15 0
BBX 14 16 1 -2
BITMAP
0FF0
3008
27E4
4814
CB94
CB94
CB94
CB94
CB94
CB94
CB94
CB94
C384
C384
FDF8
F1F0
ENDCHAR
STARTCHAR Ntilde.salt
ENCODING 57638
SWIDTH 846 0
DWIDTH 15 0
BBX 14 20 1 -2
BITMAP
0FF0
1210
31D0
7790
7870
2008
27E4
4814
CB94
CB94
CB94
CB94
CB94
CB94
CB94
CB94
C384
C384
FDF8
F1F0
ENDCHAR
STARTCHAR Nacute.salt
ENCODING 57639
SWIDTH 846 0
DWIDTH 15 0
BBX 14 20 1 -2
BITMAP
0FF0
11D0
3210
33E0
3C30
2008
27E4
4814
CB94
CB94
CB94
CB94
CB94
CB94
CB94
CB94
C384
C384
FDF8
F1F0
ENDCHAR
STARTCHAR Ncommaaccent.salt
ENCODING 57640
SWIDTH 846 0
DWIDTH 15 0
BBX 14 23 1 -9
BITMAP
0FF0
3008
27E4
4814
CB94
CB94
CB94
CB94
CB94
CB94
CB94
CB94
C384
C384
FFF8
F430
0DC0
1CC0
1FC0
1DC0
0CC0
1F00
1E00
ENDCHAR
STARTCHAR Ncaron.salt
ENCODING 57641
SWIDTH 846 0
DWIDTH 15 0
BBX 14 21 1 -2
BITMAP
0C30
13D0
3650
7190
7EE0
3930
2008
27E4
4814
CB94
CB94
CB94
CB94
CB94
CB94
CB94
CB94
C384
C384
FDF8
F1F0
ENDCHAR
STARTCHAR W.salt
ENCODING 57642
SWIDTH 1170 0
DWIDTH 21 0
BBX 19 17 1 -3
BITMAP
3CF9E0
428A20
CBA660
CBA660
CBA660
CBA660
CBA660
CBA660
CBA660
CBA660
C92660
C830A0
E7CF20
F02060
FFFF80
7FFF00
080800
ENDCHAR
STARTCHAR Wcircumflex.salt
ENCODING 57643
SWIDTH 1170 0
DWIDTH 21 0
BBX 19 22 1 -3
BITMAP
007000
018C00
027A00
060200
0E7A00
338DE0
428A20
CBA660
CBA660
CBA660
CBA660
CBA660
CBA660
CBA660
CBA660
C92660
C830A0
E7CF20
F02060
FFFF80
7FFF00
080800
ENDCHAR
STARTCHAR Wgrave.salt
ENCODING 57644
SWIDTH 1170 0
DWIDTH 21 0
BBX 19 21 1 -3
BITMAP
03FC00
06E200
0E1A00
0FE200
339DE0
438A20
CBA660
CBA660
CBA660
CBA660
CBA660
CBA660
CBA660
CBA660
C92660
C830A0
E7CF20
F02060
FFFF80
7FFF00
080800
ENDCHAR
STARTCHAR Wacute.salt
ENCODING 57645
SWIDTH 1170 0
DWIDTH 21 0
BBX 19 21 1 -3
BITMAP
01FE00
023A00
064200
063C00
3BC9E0
438A20
CBA660
CBA660
CBA660
CBA660
CBA660
CBA660
CBA660
CBA660
C92660
C830A0
E7CF20
F02060
FFFF80
7FFF00
080800
ENDCHAR
STARTCHAR Wdieresis.salt
ENCODING 57646
SWIDTH 1170 0
DWIDTH 21 0
BBX 19 21 1 -3
BITMAP
03FE00
042200
0C2200
0E2200
33DDE0
438A20
CBA660
CBA660
CBA660
CBA660
CBA660
CBA660
CBA660
CBA660
C92660
C830A0
E7CF20
F02060
FFFF80
7FFF00
080800
ENDCHAR
STARTCHAR X.salt
ENCODING 57647
SWIDTH 837 0
DWIDTH 15 0
BBX 13 16 1 -2
BITMAP
3E78
6288
E9A8
E528
E528
7450
6448
4BA8
C818
CB98
CB98
CB98
C388
C388
FDF8
F1E0
ENDCHAR
STARTCHAR Y.salt
ENCODING 57648
SWIDTH 806 0
DWIDTH 15 0
BBX 14 16 0 -2
BITMAP
1E3C
2144
69D4
E9D4
E9D4
E9D4
E894
E414
E3E4
7088
7C90
3CA0
0C20
0C20
0FC0
0F80
ENDCHAR
STARTCHAR Yacute.salt
ENCODING 57649
SWIDTH 806 0
DWIDTH 15 0
BBX 14 20 0 -2
BITMAP
07F8
08E8
1B08
38F0
3FFC
2144
69D4
E9D4
E9D4
E9D4
E894
E414
E3E4
7088
7C90
3CA0
0C20
0C20
0FC0
0F80
ENDCHAR
STARTCHAR Ycircumflex.salt
ENCODING 57650
SWIDTH 806 0
DWIDTH 15 0
BBX 14 21 0 -2
BITMAP
01C0
0630
0BE8
1808
3BE8
3FFC
21C4
69D4
E9D4
E9D4
E9D4
E894
E414
E3E4
7088
7C90
3CA0
0C20
0C20
0FC0
0F80
ENDCHAR
STARTCHAR Ydieresis.salt
ENCODING 57651
SWIDTH 806 0
DWIDTH 15 0
BBX 14 20 0 -2
BITMAP
0FF8
1088
3088
3088
3FFC
21C4
69D4
E9D4
E9D4
E9D4
E894
E414
E3E4
7088
7C90
3CA0
0C20
0C20
0FC0
0F80
ENDCHAR
STARTCHAR Ygrave.salt
ENCODING 57652
SWIDTH 806 0
DWIDTH 15 0
BBX 14 20 0 -2
BITMAP
0FF0
1388
3048
3F88
3FFC
21C4
69D4
E9D4
E9D4
E9D4
E894
E414
E3E4
7088
7C90
3CA0
0C20
0C20
0FC0
0F80
ENDCHAR
STARTCHAR AE.salt
ENCODING 57653
SWIDTH 1113 0
DWIDTH 20 0
BBX 19 16 1 -2
BITMAP
0FFFE0
100020
27FFA0
481020
CB97C0
CB9080
CB9040
C81E40
CFF040
C81780
C810E0
CB9020
C38FA0
C38020
FDFFC0
F1FF80
ENDCHAR
STARTCHAR IJ.salt
ENCODING 57654
SWIDTH 1133 0
DWIDTH 20 0
BBX 19 17 1 -3
BITMAP
3E03E0
420420
CA0CA0
CA0CA0
CA0CA0
CA0CA0
CAFCA0
CB0CA0
CB0CA0
CB4CA0
CB2CA0
CB2120
C31E20
C38040
FFFF80
F9FE00
002000
ENDCHAR
STARTCHAR IJ.stack
ENCODING 57655
SWIDTH 1363 0
DWIDTH 25 0
BBX 23 17 1 -3
BITMAP
3FE03E
401062
CF90EA
C210EA
F260EA
F280EA
328FEA
3290EA
32B0EA
32B2EA
22524A
42120A
CD99F2
C01C04
FFFFF8
FF9FE0
000100
ENDCHAR
STARTCHAR quoteleft.salt
ENCODING 57656
SWIDTH 407 0
DWIDTH 7 0
BBX 6 8 1 6
BITMAP
3C
5C
5C
D4
CC
C4
F8
E0
ENDCHAR
STARTCHAR quoteright.salt
ENCODING 57657
SWIDTH 407 0
DWIDTH 7 0
BBX 6 8 1 6
BITMAP
3C
54
CC
FC
DC
C8
F0
E0
ENDCHAR
STARTCHAR ampersand.salt
ENCODING 57658
SWIDTH 732 0
DWIDTH 13 0
BBX 13 19 0 -4
BITMAP
03E0
0698
0888
1368
3408
34F0
7420
7A10
25D0
6810
69E0
E838
EC08
E3E8
F088
7E10
3E20
0FC0
0F00
ENDCHAR
STARTCHAR caron.2
ENCODING 57659
SWIDTH 600 0
DWIDTH 11 0
BBX 7 8 2 6
BITMAP
1E
22
6A
CA
C4
FC
F8
E0
ENDCHAR
STARTCHAR indexup
ENCODING 57660
SWIDTH 1100 0
DWIDTH 20 0
BBX 12 16 4 -2
BITMAP
1C00
3400
6400
6600
65C0
65A0
60A0
6020
6020
7020
7020
7FF0
4010
C010
FFE0
FFC0
ENDCHAR
STARTCHAR indexdown
ENCODING 57661
SWIDTH 1100 0
DWIDTH 20 0
BBX 12 16 4 -2
BITMAP
3FF0
4010
C010
FFE0
F020
6020
6020
6020
65A0
66E0
6780
6700
6400
7400
7800
7000
ENDCHAR
STARTCHAR indexupleft
ENCODING 57662
SWIDTH 1100 0
DWIDTH 20 0
BBX 14 18 3 -3
BITMAP
1800
2400
7200
7900
7C80
3240
3820
3428
4814
6024
F048
F890
7D20
3E40
1C80
0F00
1E00
0C00
ENDCHAR
STARTCHAR indexupright
ENCODING 57663
SWIDTH 1100 0
DWIDTH 20 0
BBX 14 18 3 -3
BITMAP
0018
0024
0048
0090
0120
0250
0418
1C28
2414
6404
E208
F110
78A0
3C40
1E20
0F40
0780
0200
ENDCHAR
STARTCHAR indexdownleft
ENCODING 57664
SWIDTH 1100 0
DWIDTH 20 0
BBX 18 14 1 -1
BITMAP
003000
004800
00C400
01E200
011100
020880
040440
080240
110380
128600
276C00
7FD000
E3E000
418000
ENDCHAR
STARTCHAR indexdownright
ENCODING 57665
SWIDTH 1100 0
DWIDTH 20 0
BBX 18 14 1 -1
BITMAP
00C000
012000
022000
046000
089800
110400
220200
640900
FC0500
7E5480
5F2E40
0F9F80
07E700
038200
ENDCHAR
STARTCHAR indexdownleft.outline
ENCODING 57666
SWIDTH 1100 0
DWIDTH 20 0
BBX 15 12 4 1
BITMAP
0180
02C0
0260
0320
0C90
1048
2026
2814
5018
B520
CE40
8380
ENDCHAR
STARTCHAR indexdownright.outline
ENCODING 57667
SWIDTH 1100 0
DWIDTH 20 0
BBX 15 12 4 1
BITMAP
0200
0500
0900
1300
24C0
4820
9010
A050
6028
12B4
094A
0784
ENDCHAR
STARTCHAR indexupleft.outline
ENCODING 57668
SWIDTH 1100 0
DWIDTH 20 0
BBX 12 16 5 -1
BITMAP
2000
5000
4800
2400
1200
2900
5100
40A0
A050
80B0
4160
22C0
1580
0B00
0E00
0400
ENDCHAR
STARTCHAR indexupright.outline
ENCODING 57669
SWIDTH 1100 0
DWIDTH 20 0
BBX 12 16 5 -1
BITMAP
0020
00D0
0120
0240
0480
0940
0860
50A0
A050
D010
6820
3440
1A80
0D00
0680
0300
ENDCHAR
STARTCHAR uni261A.salt
ENCODING 57670
SWIDTH 1100 0
DWIDTH 20 0
BBX 16 12 2 0
BITMAP
03C6
3C39
4009
FF09
FE89
FE49
0E49
0F99
0799
033E
03F8
0300
ENDCHAR
STARTCHAR uni261B.salt
ENCODING 57671
SWIDTH 1100 0
DWIDTH 20 0
BBX 16 12 2 0
BITMAP
18F0
270F
6401
E43F
E45C
E498
E4A0
E640
E640
FF40
E780
0300
ENDCHAR
STARTCHAR indexdown.salt
ENCODING 57672
SWIDTH 1100 0
DWIDTH 20 0
BBX 12 16 4 -2
BITMAP
0FF0
1010
3010
7FE0
7820
1010
2210
6D90
FC90
DF90
1F90
0390
03A0
03A0
01C0
0180
ENDCHAR
STARTCHAR indexdownleft.salt
ENCODING 57673
SWIDTH 1100 0
DWIDTH 20 0
BBX 16 14 2 -1
BITMAP
0020
0050
0088
01C4
0222
0411
0809
1986
1244
2228
4FE8
77EC
E3F0
C060
ENDCHAR
STARTCHAR indexdownright.salt
ENCODING 57674
SWIDTH 1100 0
DWIDTH 20 0
BBX 16 14 2 -1
BITMAP
0100
0280
0440
08C0
1130
2208
6404
EC64
FC92
5911
19F9
19BE
1F1C
1808
ENDCHAR
STARTCHAR indexup.salt
ENCODING 57675
SWIDTH 1100 0
DWIDTH 20 0
BBX 12 16 4 -2
BITMAP
1800
2400
6400
6400
6400
6780
E4A0
E3D0
E010
E060
F080
7FC0
6020
E020
FFC0
FF00
ENDCHAR
STARTCHAR indexupleft.salt
ENCODING 57676
SWIDTH 1100 0
DWIDTH 20 0
BBX 14 17 3 -3
BITMAP
1800
2400
7300
F880
7C40
3A40
1220
1218
3C24
6044
2088
7F10
FE20
8640
0F80
0600
0400
ENDCHAR
STARTCHAR indexupright.salt
ENCODING 57677
SWIDTH 1100 0
DWIDTH 20 0
BBX 14 17 3 -3
BITMAP
0018
0024
00C8
0110
0220
0450
0C48
1428
2430
6208
F104
78F8
3C70
3E60
1F80
0E00
0400
ENDCHAR
STARTCHAR uni261C.salt
ENCODING 57678
SWIDTH 1100 0
DWIDTH 20 0
BBX 14 10 4 2
BITMAP
0718
78EC
802C
7E2C
092C
092C
052C
026C
0298
0380
ENDCHAR
STARTCHAR uni261D.salt
ENCODING 57679
SWIDTH 1100 0
DWIDTH 20 0
BBX 10 14 6 0
BITMAP
6000
5000
5000
5000
9000
9C00
9280
8F40
8080
4100
4200
FF00
8080
FF00
ENDCHAR
STARTCHAR uni261E.salt
ENCODING 57680
SWIDTH 1100 0
DWIDTH 20 0
BBX 13 10 5 2
BITMAP
C700
B8F8
A008
A3F0
A280
A480
A500
B200
CA00
0600
ENDCHAR
STARTCHAR uni261F.salt
ENCODING 57681
SWIDTH 1100 0
DWIDTH 20 0
BBX 10 14 6 0
BITMAP
3FC0
2040
2F40
1080
3080
4040
8840
F640
1240
0E40
0140
0180
0180
0180
ENDCHAR
STARTCHAR indexdownleft.salt_outline
ENCODING 57682
SWIDTH 1100 0
DWIDTH 20 0
BBX 14 12 4 1
BITMAP
0080
01C0
0160
03B0
0C58
102C
1034
2628
4920
54A0
A360
4060
ENDCHAR
STARTCHAR indexdownright.salt_outline
ENCODING 57683
SWIDTH 1100 0
DWIDTH 20 0
BBX 14 12 4 1
BITMAP
0400
0E00
1A00
3700
68C0
C820
9020
7190
1248
14A4
1714
1808
ENDCHAR
STARTCHAR indexupleft.salt_outline
ENCODING 57684
SWIDTH 1100 0
DWIDTH 20 0
BBX 12 14 5 0
BITMAP
6000
5000
4C00
2200
1100
1900
2880
28E0
3090
4120
8A40
7480
0900
0600
ENDCHAR
STARTCHAR indexupright.salt_outline
ENCODING 57685
SWIDTH 1100 0
DWIDTH 20 0
BBX 11 14 6 0
BITMAP
00C0
0120
0240
0C80
1100
1280
2240
6240
A180
9040
4B20
24C0
1200
0C00
ENDCHAR
STARTCHAR block.v
ENCODING 57687
SWIDTH 1000 0
DWIDTH 18 0
BBX 20 20 -1 -3
BITMAP
FFFFF0
FFFFF0
FFFFF0
FFFFF0
FFFFF0
FFFFF0
FFFFF0
FFFFF0
FFFFF0
FFFFF0
FFFFF0
FFFFF0
FFFFF0
FFFFF0
FFFFF0
FFFFF0
FFFFF0
FFFFF0
FFFFF0
FFFFF0
ENDCHAR
STARTCHAR uni25D6.v
ENCODING 57688
SWIDTH 1335 0
DWIDTH 24 0
BBX 20 11 2 1
BITMAP
03FC00
0FFF00
1FFF80
3FFFC0
3FFFC0
7FFFE0
7FFFE0
7FFFF0
FFFFF0
FFFFF0
FFFFF0
ENDCHAR
STARTCHAR uni25D7.v
ENCODING 57689
SWIDTH 1335 0
DWIDTH 24 0
BBX 20 11 2 1
BITMAP
FFFFF0
FFFFF0
FFFFF0
7FFFE0
7FFFE0
7FFFE0
3FFFC0
1FFF80
1FFF80
07FE00
00F000
ENDCHAR
STARTCHAR uni27A1.w
ENCODING 57690
SWIDTH 650 0
DWIDTH 12 0
BBX 12 28 0 -7
BITMAP
0060
00F0
00F0
01F0
03E0
03F0
07F0
0FF0
1FF0
1FF0
3FF0
7FF0
7FF0
FFF0
FFF0
FFF0
7FF0
3FF0
3FF0
1FF0
0FF0
07F0
07F0
03F0
01F0
01F0
00F0
0060
ENDCHAR
STARTCHAR uni27A1.n
ENCODING 57691
SWIDTH 1000 0
DWIDTH 18 0
BBX 26 13 -4 0
BITMAP
1FFFFE00
FFFFFFC0
FFFFFFC0
FFFFFFC0
3FFFFF00
1FFFFE00
0FFFFC00
07FFF800
03FFF000
00FFC000
007F8000
003F0000
000C0000
ENDCHAR
STARTCHAR uni27A1.s
ENCODING 57692
SWIDTH 1000 0
DWIDTH 18 0
BBX 26 13 -4 0
BITMAP
001E0000
003F0000
007F8000
01FFE000
03FFF000
07FFF800
1FFFFE00
3FFFFF00
7FFFFF80
FFFFFFC0
FFFFFFC0
FFFFFFC0
1FFFFE00
ENDCHAR
STARTCHAR uni2B24.salt
ENCODING 57693
SWIDTH 1280 0
DWIDTH 23 0
BBX 19 21 2 -4
BITMAP
07FE00
3FFF80
7FFFC0
FFFFE0
FFFFE0
FFFFE0
FFFFE0
FFFFE0
FFFFE0
FFFFE0
FFFFE0
FFFFE0
FFFFE0
FFFFE0
FFFFE0
FFFFE0
FFFFE0
FFFFC0
3FFF80
1FFF00
03F800
ENDCHAR
STARTCHAR uni25DD.curve
ENCODING 57694
SWIDTH 1280 0
DWIDTH 23 0
BBX 19 20 2 -3
BITMAP
FFFC00
FFFF00
FFFF80
FFFFC0
FFFFC0
FFFFE0
FFFFE0
FFFFE0
FFFFE0
FFFFE0
FFFFE0
FFFFE0
FFFFE0
FFFFE0
FFFFE0
FFFFE0
FFFFE0
FFFFE0
FFFFE0
FFFFE0
ENDCHAR
STARTCHAR uni2B1B.trapezoid_e
ENCODING 57695
SWIDTH 1280 0
DWIDTH 23 0
BBX 21 20 2 -3
BITMAP
FFFFF8
FFFFF8
FFFFF8
FFFFF8
FFFFF0
FFFFF0
FFFFF0
FFFFF0
FFFFF0
FFFFE0
FFFFE0
FFFFE0
FFFFE0
FFFFE0
FFFFC0
FFFFC0
FFFFC0
FFFFC0
FFFFC0
FFFF80
ENDCHAR
STARTCHAR uni2B1B.trapezoid_w
ENCODING 57696
SWIDTH 1280 0
DWIDTH 23 0
BBX 21 20 0 -3
BITMAP
FFFFF8
FFFFF8
FFFFF8
7FFFF8
7FFFF8
7FFFF8
7FFFF8
7FFFF8
3FFFF8
3FFFF8
3FFFF8
3FFFF8
3FFFF8
3FFFF8
1FFFF8
1FFFF8
1FFFF8
1FFFF8
1FFFF8
0FFFF8
ENDCHAR
STARTCHAR arrowleft.chevron
ENCODING 57697
SWIDTH 1330 0
DWIDTH 24 0
BBX 24 27 0 -7
BITMAP
002000
006000
00E000
01FFFF
01FFFF
03FFFE
07FFFE
0FFFFC
1FFFFC
1FFFFC
3FFFF8
7FFFF8
FFFFF8
FFFFF0
7FFFF8
3FFFF8
3FFFFC
1FFFFC
0FFFFC
07FFFE
07FFFE
03FFFE
01FFFF
00E000
006000
006000
002000
ENDCHAR
STARTCHAR arrowup.chevron
ENCODING 57698
SWIDTH 1280 0
DWIDTH 23 0
BBX 26 27 -1 -7
BITMAP
001C0000
003E0000
007F0000
00FF8000
01FFC000
03FFE000
0FFFF800
0FFFFC00
3FFFFE00
7FFFFF00
FFFFFFC0
FFFFFF80
1FFFFC00
1FFFFC00
1FFFFC00
1FFFFC00
1FFFFC00
1FFFFC00
1FFFFC00
1FFFFC00
1FFFFC00
1FFFFC00
1FFFFC00
1FE3FC00
1F807C00
1C001C00
10000400
ENDCHAR
STARTCHAR arrowright.chevron
ENCODING 57699
SWIDTH 1330 0
DWIDTH 24 0
BBX 24 27 0 -7
BITMAP
000400
000600
000700
FFFF80
FFFF80
7FFFC0
7FFFE0
3FFFF0
3FFFF8
3FFFF8
1FFFFC
1FFFFE
1FFFFF
0FFFFF
1FFFFE
1FFFFC
3FFFFC
3FFFF8
3FFFF0
7FFFE0
7FFFE0
7FFFC0
FFFF80
000700
000600
000600
000400
ENDCHAR
STARTCHAR arrowdown.chevron
ENCODING 57700
SWIDTH 1280 0
DWIDTH 23 0
BBX 25 27 -1 -7
BITMAP
18000400
1E003C00
1F80FC00
1FF7FC00
1FFFFC00
1FFFFC00
1FFFFC00
1FFFFC00
1FFFFC00
1FFFFC00
1FFFFC00
1FFFFC00
1FFFFC00
1FFFFC00
1FFFFC00
FFFFFF80
FFFFFF80
3FFFFF00
3FFFFE00
0FFFF800
07FFF000
03FFE000
01FFC000
007F8000
003F0000
001C0000
00080000
ENDCHAR
STARTCHAR uni25D6.deco
ENCODING 57701
SWIDTH 560 0
DWIDTH 10 0
BBX 10 24 1 -5
BITMAP
0300
0380
0F40
1FC0
3FC0
7FC0
7FC0
FFC0
FFC0
FFC0
FFC0
FFC0
FFC0
FFC0
FFC0
FFC0
FFC0
7FC0
7FC0
3FC0
1FC0
0FC0
0F80
0380
ENDCHAR
STARTCHAR uni25D7.deco
ENCODING 57702
SWIDTH 560 0
DWIDTH 10 0
BBX 10 24 -1 -5
BITMAP
3000
3000
FC00
FE00
FD00
FF80
FF80
FFC0
FFC0
FFC0
FFC0
FFC0
FFC0
FFC0
FFC0
FFC0
FFC0
FFC0
FF80
FF80
FE00
FC00
3C00
3000
ENDCHAR
STARTCHAR uni25D6.v_deco
ENCODING 57703
SWIDTH 1280 0
DWIDTH 23 0
BBX 23 10 0 1
BITMAP
03FF80
0FFFE0
0FFFE0
1FFFF0
3FFFF8
7FFFFC
FFFFFE
FFFFFE
FFFFFE
3FFFF8
ENDCHAR
STARTCHAR uni25D7.v_deco
ENCODING 57704
SWIDTH 1280 0
DWIDTH 23 0
BBX 23 11 0 2
BITMAP
3FFFF8
3FFFF8
FFFFFE
FFFFFE
7FFFFE
7FFFFC
3FFFF8
0FFFE0
0FFFE0
07FFC0
00FE00
ENDCHAR
STARTCHAR uni25D6.bevel
ENCODING 57705
SWIDTH 350 0
DWIDTH 6 0
BBX 6 20 1 -3
BITMAP
0C
1C
3C
7C
FC
FC
FC
FC
FC
FC
FC
FC
FC
FC
FC
FC
FC
7C
3C
0C
ENDCHAR
STARTCHAR uni25D7.bevel
ENCODING 57706
SWIDTH 350 0
DWIDTH 6 0
BBX 6 20 -1 -3
BITMAP
E0
F0
F8
F8
FC
FC
FC
FC
FC
FC
FC
FC
FC
FC
FC
FC
F4
F8
F0
C0
ENDCHAR
STARTCHAR uni25D6.v_bevel
ENCODING 57707
SWIDTH 1280 0
DWIDTH 23 0
BBX 19 6 2 4
BITMAP
1FFF00
1FFF00
7FFFC0
7FFFC0
FFFFE0
FFFFE0
ENDCHAR
STARTCHAR uni25D7.v_bevel
ENCODING 57708
SWIDTH 1280 0
DWIDTH 23 0
BBX 19 6 2 4
BITMAP
FFFFE0
FFFFE0
7FFFC0
7FFFC0
3FFF80
1FFF00
ENDCHAR
STARTCHAR uni25D6.spike
ENCODING 57709
SWIDTH 350 0
DWIDTH 6 0
BBX 6 21 1 -4
BITMAP
7C
7C
3C
3C
3C
1C
3C
3C
7C
FC
FC
FC
7C
3C
1C
3C
3C
3C
7C
7C
70
ENDCHAR
STARTCHAR uni25D7.spike
ENCODING 57710
SWIDTH 350 0
DWIDTH 6 0
BBX 7 21 -1 -4
BITMAP
FC
F8
F8
F0
F0
F0
F0
F8
FC
FC
FE
FC
F8
F0
F0
F0
F0
F8
F8
F8
1C
ENDCHAR
STARTCHAR uni25D6.v_spike
ENCODING 57711
SWIDTH 1280 0
DWIDTH 23 0
BBX 21 7 1 3
BITMAP
003000
C0F818
79FCF8
7FFFF0
7FFFF0
7FFFF0
7FFFF0
ENDCHAR
STARTCHAR uni25D7.v_spike
ENCODING 57712
SWIDTH 1280 0
DWIDTH 23 0
BBX 21 7 1 3
BITMAP
7FFFF0
7FFFF0
7FFFF0
7FFDF8
E0F838
807008
002000
ENDCHAR
STARTCHAR uni25D6.square
ENCODING 57713
SWIDTH 350 0
DWIDTH 6 0
BBX 5 20 2 -3
BITMAP
F8
F8
F8
F8
F8
F8
F8
F8
F8
F8
F8
F8
F8
F8
F8
F8
F8
F8
F8
F8
ENDCHAR
STARTCHAR uni25D7.square
ENCODING 57714
SWIDTH 350 0
DWIDTH 6 0
BBX 6 20 -1 -3
BITMAP
F8
FC
FC
FC
FC
FC
FC
FC
FC
FC
FC
FC
FC
FC
FC
FC
FC
FC
FC
F8
ENDCHAR
STARTCHAR uni25D6.v_square
ENCODING 57715
SWIDTH 1280 0
DWIDTH 23 0
BBX 19 5 2 4
BITMAP
FFFFE0
FFFFE0
FFFFE0
FFFFE0
FFFFE0
ENDCHAR
STARTCHAR uni25D7.v_square
ENCODING 57716
SWIDTH 1280 0
DWIDTH 23 0
BBX 19 5 2 4
BITMAP
FFFFE0
FFFFE0
FFFFE0
FFFFE0
FFFFE0
ENDCHAR
STARTCHAR uni25D6.rounded
ENCODING 57717
SWIDTH 350 0
DWIDTH 6 0
BBX 6 20 1 -3
BITMAP
1C
3C
7C
7C
7C
7C
FC
FC
FC
FC
FC
FC
FC
FC
FC
7C
7C
7C
3C
3C
ENDCHAR
STARTCHAR uni25D7.rounded
ENCODING 57718
SWIDTH 350 0
DWIDTH 6 0
BBX 6 20 -1 -3
BITMAP
E0
F0
F8
F8
FC
FC
FC
FC
FC
FC
FC
FC
FC
FC
FC
FC
F8
F8
F8
F0
ENDCHAR
STARTCHAR uni25D6.v_rounded
ENCODING 57719
SWIDTH 1280 0
DWIDTH 23 0
BBX 19 6 2 4
BITMAP
07FC00
3FFF80
7FFFC0
FFFFE0
FFFFE0
FFFFE0
ENDCHAR
STARTCHAR uni25D7.v_rounded
ENCODING 57720
SWIDTH 1280 0
DWIDTH 23 0
BBX 19 6 2 4
BITMAP
FFFFE0
FFFFE0
FFFFE0
FFFFE0
7FFFC0
1FFF00
ENDCHAR
STARTCHAR uni21AB.arrow
ENCODING 57721
SWIDTH 1000 0
DWIDTH 18 0
BBX 22 34 -1 -17
BITMAP
FFC000
FFF000
FFFC00
FFFE00
FFFF00
FFFF80
FFFF80
FFFFC0
FFFFC0
FFFFC0
FFFFE0
FFFFE0
FFFFE0
FFFFE0
FFFFE0
FFFFE0
FFFFE0
FFFFE0
FFFFE0
FFFFE0
3FFFE0
1FFFE0
FFFFDC
FFFFFC
BFFFF8
5FFFE8
2FFFF0
17FFC0
0BFF80
05FF00
02FE00
017C00
00B800
007000
ENDCHAR
STARTCHAR uni21AC.arrow
ENCODING 57722
SWIDTH 1000 0
DWIDTH 18 0
BBX 22 34 -1 -3
BITMAP
003000
007800
00FC00
01FE00
03FF00
07FF80
0FFFC0
1FFFE0
3FFFF0
7FFFF8
FFFFFC
FFFFFC
1FFFE0
1FFFE0
FFFFE0
FFFFE0
FFFFE0
FFFFE0
FFFFE0
FFFFE0
FFFFE0
FFFFE0
FFFFE0
FFFFE0
FFFFC0
FFFFC0
FFFFC0
FFFF80
FFFF80
FFFF00
FFFF00
FFFE00
FFF800
FFE000
ENDCHAR
STARTCHAR uni21AB.v_arrow
ENCODING 57723
SWIDTH 1335 0
DWIDTH 24 0
BBX 33 24 -11 -6
BITMAP
0020000000
0067FFFF80
00E7FFFF80
00E7FFFF80
01FFFFFF80
07FFFFFF80
0BFFFFFF80
0FFFFFFF80
1FFFFFFF80
3FFFFFFF80
7FFFFFFF00
FFFFFFFF00
FFFFFFFF00
7FFFFFFE00
3FFFFFFE00
1FFFFFFC00
0FFFFFFC00
07FFFFF800
07FFFFE000
03FFFF8000
01FFC00000
00E0000000
0060000000
0020000000
ENDCHAR
STARTCHAR uni21AC.v_arrow
ENCODING 57724
SWIDTH 1335 0
DWIDTH 24 0
BBX 33 24 2 -6
BITMAP
0000020000
FFFFF30000
FFFFF38000
FFFFEBC000
FFFFFFC000
FFFFFFE000
FFFFFFF000
FFFFFFF800
FFFFFFFC00
FFFFFFFE00
7FFFFFFF00
7FFFFFFF80
7FFFFFFF80
3FFFFFFF00
3FFFFFFE00
1FFFFFFC00
0FFFFFF800
0FFFFFF800
03FFFFF000
00FFFFE000
0001FFC000
0000038000
0000030000
0000060000
ENDCHAR
STARTCHAR uni25D6.wings
ENCODING 57725
SWIDTH 900 0
DWIDTH 16 0
BBX 17 27 0 -7
BITMAP
0FF800
0FFC00
0FFC00
FFFF80
FFFF80
FFFF80
FFFF80
FFFF80
FFFF80
FFFF80
FFFF80
FFFF80
FFFF80
FFFF80
FFFF80
FFFF80
FFFF80
FFFF80
FFFF80
FFFF80
FFFF80
FFFF80
FFFF80
0FFE00
0FFC00
0FF800
1FFC00
ENDCHAR
STARTCHAR uni25D7.wings
ENCODING 57726
SWIDTH 900 0
DWIDTH 16 0
BBX 17 27 -1 -7
BITMAP
0FFC00
0FFC00
1FFC00
FFFB80
FFFF80
FFFF80
FFFF80
FFFF80
FFFF80
FFFF80
FFFF80
FFFF80
FFFF80
FFFF80
FFFF80
FFFF80
FFFF80
FFFF80
FFFF80
FFFF80
FFFF80
FFFF80
FFFF80
3FFC00
1FFC00
0FFC00
0FFC00
ENDCHAR
STARTCHAR uni25D6.v_wings
ENCODING 57727
SWIDTH 1280 0
DWIDTH 23 0
BBX 27 17 -2 -2
BITMAP
0FFFFE00
0FFFFE00
0FFFFE00
FFFFFFE0
FFFFFFE0
FFFFFFE0
FFFFFFE0
FFFFFFE0
FFFFFFE0
FFFFFFE0
FFFFFFE0
FFFFFFE0
FFFFFFE0
1FFFFF80
1FFFFF00
0FFFFE00
0FFFFE00
ENDCHAR
STARTCHAR uni25D7.v_wings
ENCODING 57728
SWIDTH 1280 0
DWIDTH 23 0
BBX 27 17 -2 -2
BITMAP
0FFFFE00
0FFFFE00
1FFFFF00
FFFFFFE0
FFFFFFE0
FFFFFFE0
FFFFFFE0
FFFFFFE0
FFFFFFE0
FFFFFFE0
FFFFFFE0
FFFFFFE0
FFFFFFE0
7FFFFFC0
0FFFFE00
0FFFFE00
0FFFFE00
ENDCHAR
STARTCHAR uni2B1B.chevron_e
ENCODING 57729
SWIDTH 1280 0
DWIDTH 23 0
BBX 23 20 0 -3
BITMAP
FFFFF0
FFFFF0
7FFFF0
7FFFF8
3FFFF8
3FFFF8
3FFFFC
1FFFFC
1FFFFC
1FFFFE
0FFFFE
1FFFFE
1FFFFC
3FFFFC
3FFFFC
3FFFF8
7FFFF8
7FFFF0
7FFFF0
FFFFF0
ENDCHAR
STARTCHAR uni2B1B.chevron_n
ENCODING 57730
SWIDTH 1280 0
DWIDTH 23 0
BBX 19 24 2 -5
BITMAP
004000
03F800
0FFE00
7FFFC0
FFFFE0
FFFFE0
FFFFE0
FFFFE0
FFFFE0
FFFFE0
FFFFE0
FFFFE0
FFFFE0
FFFFE0
FFFFE0
FFFFE0
FFFFE0
FFFFE0
FFFFE0
FFFFE0
FFBFE0
FE0FE0
F803E0
C00060
ENDCHAR
STARTCHAR uni2B1B.chevron_s
ENCODING 57731
SWIDTH 1280 0
DWIDTH 23 0
BBX 19 24 2 -5
BITMAP
800020
F001E0
FC07E0
FFBFE0
FFFFE0
FFFFE0
FFFFE0
FFFFE0
FFFFE0
FFFFE0
FFFFE0
FFFFE0
FFFFE0
FFFFE0
FFFFE0
FFFFE0
FFFFE0
FFFFE0
FFFFE0
FFFFE0
7FFFC0
1FFF00
07FC00
00E000
ENDCHAR
STARTCHAR uni2B1B.chevron_w
ENCODING 57732
SWIDTH 1280 0
DWIDTH 23 0
BBX 23 20 0 -3
BITMAP
1FFFFE
1FFFFE
1FFFFC
1FFFFC
3FFFFC
3FFFF8
7FFFF8
7FFFF0
7FFFF0
FFFFF0
FFFFF0
FFFFF0
7FFFF0
7FFFF8
3FFFF8
3FFFF8
3FFFFC
1FFFFC
1FFFFE
0FFFFE
ENDCHAR
STARTCHAR uni2B1B.semichevron_e
ENCODING 57733
SWIDTH 650 0
DWIDTH 12 0
BBX 13 20 0 -3
BITMAP
FFF8
FFF8
7FF8
7FF8
7FF8
3FF8
3FF8
1FF8
1FF8
1FF8
0FF8
1FF8
1FF8
3FF8
3FF8
3FF8
7FF8
7FF8
7FF8
FFF8
ENDCHAR
STARTCHAR uni2B1B.semichevron_w
ENCODING 57734
SWIDTH 650 0
DWIDTH 12 0
BBX 13 20 -1 -3
BITMAP
FFF8
FFF0
FFF0
FFF0
FFE0
FFE0
FFE0
FFC0
FFC0
FF80
FF80
FFC0
FFC0
FFC0
FFE0
FFE0
FFF0
FFF0
FFF0
FFF8
ENDCHAR
STARTCHAR uni2B1B.semichevron_n
ENCODING 57735
SWIDTH 1000 0
DWIDTH 18 0
BBX 20 13 -1 0
BITMAP
E00070
F801F0
FF0FF0
FFFFF0
FFFFF0
FFFFF0
FFFFF0
FFFFF0
FFFFF0
FFFFF0
FFFFF0
FFFFF0
FFFFF0
ENDCHAR
STARTCHAR uni2B1B.semichevron_s
ENCODING 57736
SWIDTH 1000 0
DWIDTH 18 0
BBX 20 13 -1 0
BITMAP
FFFFF0
FFFFF0
FFFFF0
FFFFF0
FFFFF0
FFFFF0
FFFFF0
FFFFF0
FFFFF0
FF9FF0
FC03F0
F000F0
C00030
ENDCHAR
STARTCHAR space.v
ENCODING 57737
SWIDTH 1000 0
DWIDTH 18 0
BBX 1 1 0 0
BITMAP
00
ENDCHAR
STARTCHAR Agrave.v
ENCODING 57738
SWIDTH 1000 0
DWIDTH 18 0
BBX 14 20 2 -2
BITMAP
0F00
10F0
33C8
3008
3FF0
3810
0810
13C8
3428
34A8
6594
6994
6814
EFF4
E814
E9D4
E1C4
E1C4
FFF8
F9F0
ENDCHAR
STARTCHAR Aacute.v
ENCODING 57739
SWIDTH 1000 0
DWIDTH 18 0
BBX 14 20 2 -2
BITMAP
00F0
0F08
13C8
3010
3FE0
3810
3810
13C8
3428
34A8
6594
6994
6814
EFF4
E814
E9D4
E1C4
E1C4
FFF8
F9F0
ENDCHAR
STARTCHAR Acircumflex.v
ENCODING 57740
SWIDTH 1000 0
DWIDTH 18 0
BBX 14 20 2 -2
BITMAP
03C0
0C30
13C8
3008
3FF0
3810
3810
13C8
3428
34A8
6594
6994
6814
EFF4
E814
E9D4
E1C4
E1C4
FFF8
F9F0
ENDCHAR
STARTCHAR Atilde.v
ENCODING 57741
SWIDTH 1000 0
DWIDTH 18 0
BBX 14 19 2 -2
BITMAP
0FF8
1388
3048
3FF0
3810
3810
13C8
3428
34A8
6594
6994
6814
EFF4
E814
E9D4
E1C4
E1C4
FFF8
F9F0
ENDCHAR
STARTCHAR Adieresis.v
ENCODING 57742
SWIDTH 1000 0
DWIDTH 18 0
BBX 14 19 2 -2
BITMAP
1FF8
34A8
7088
7FF0
7810
3810
13C8
3428
34A8
6594
6994
6814
EFF4
E814
E9D4
E1C4
E1C4
FFF8
F9F0
ENDCHAR
STARTCHAR Aring.v
ENCODING 57743
SWIDTH 1000 0
DWIDTH 18 0
BBX 14 20 2 -2
BITMAP
07E0
09D0
1628
35A8
35A8
3A70
3990
3248
3428
25A8
6594
6994
6FF4
E814
E814
E9D4
E1C4
E3C4
FDF8
F9F0
ENDCHAR
STARTCHAR Amacron.v
ENCODING 57744
SWIDTH 1000 0
DWIDTH 18 0
BBX 14 19 2 -2
BITMAP
0FF0
13C8
3008
3FF0
3810
3810
13C8
3428
34A8
6594
6994
6814
EFF4
E814
E9D4
E1C4
E1C4
FFF8
F9F0
ENDCHAR
STARTCHAR Abreve.v
ENCODING 57745
SWIDTH 1000 0
DWIDTH 18 0
BBX 14 20 2 -2
BITMAP
0F70
1188
3428
3BD0
3FE0
3810
1810
13C8
3428
34A8
6594
6994
6814
EFF4
E814
E9D4
E1C4
E1C4
FFF8
F9F0
ENDCHAR
STARTCHAR Aogonek.v
ENCODING 57746
SWIDTH 1000 0
DWIDTH 18 0
BBX 14 19 2 -5
BITMAP
07E0
0810
13C8
3428
34A8
25A4
6994
6814
EFF4
E814
E9D4
E9D4
E1A4
FFA8
F9A4
0194
01C4
01F8
01F0
ENDCHAR
STARTCHAR Ccedilla.v
ENCODING 57747
SWIDTH 1000 0
DWIDTH 18 0
BBX 14 18 2 -4
BITMAP
0FFC
1004
27F4
6804
69F8
E9F0
EA00
EA00
EA00
E9F8
E804
E7F4
F084
7EB8
3C30
0C40
0F80
1E00
ENDCHAR
STARTCHAR Cacute.v
ENCODING 57748
SWIDTH 1000 0
DWIDTH 18 0
BBX 14 20 2 -2
BITMAP
00F0
0F08
0BC8
3808
3FF0
381C
2004
27F4
6804
E9F8
E9E0
EA00
EA00
EA00
E9FC
E404
E3F4
F004
7FF8
3FF0
ENDCHAR
STARTCHAR Ccircumflex.v
ENCODING 57749
SWIDTH 1000 0
DWIDTH 18 0
BBX 14 20 2 -2
BITMAP
03C0
0C30
0BC8
3808
3FF8
3804
2004
27F4
6804
E9F8
E9E0
EA00
EA00
EA00
E9FC
E404
E3F4
F004
7FF8
3FF0
ENDCHAR
STARTCHAR Cdotaccent.v
ENCODING 57750
SWIDTH 1000 0
DWIDTH 18 0
BBX 14 19 2 -2
BITMAP
07E0
0CA0
0C20
0FC0
083C
1004
27F4
6804
E9F8
E9E0
EA00
EA00
EA00
E9FC
E404
E3F4
F004
7FF8
3FF0
ENDCHAR
STARTCHAR Ccaron.v
ENCODING 57751
SWIDTH 1000 0
DWIDTH 18 0
BBX 14 20 2 -2
BITMAP
0E70
1988
3BC8
3810
3FE0
381C
1004
27F4
6804
E9F8
E9E0
EA00
EA00
EA00
E9FC
E404
E3F4
F004
7FF8
3FF0
ENDCHAR
STARTCHAR Dcaron.v
ENCODING 57752
SWIDTH 1000 0
DWIDTH 18 0
BBX 14 20 2 -2
BITMAP
0E70
1188
33C8
3810
3FE0
2018
6004
EFE4
E814
E9D4
E9D4
E9D4
E9D4
E9D4
E814
E834
E7C4
E018
FFE0
FFC0
ENDCHAR
STARTCHAR Egrave.v
ENCODING 57753
SWIDTH 1000 0
DWIDTH 18 0
BBX 14 20 2 -2
BITMAP
0F00
10F0
33C8
3008
3FF0
200C
6004
EFF4
E804
E9F8
E808
E7C8
E808
E9F0
E9F8
E804
E7F4
E004
FFF8
FFF0
ENDCHAR
STARTCHAR Eacute.v
ENCODING 57754
SWIDTH 1000 0
DWIDTH 18 0
BBX 14 20 2 -2
BITMAP
00F0
0F08
13C8
3010
3FE0
201C
6004
EFF4
E804
E9F8
E808
E7C8
E808
E9F0
E9F8
E804
E7F4
E004
FFF8
FFF0
ENDCHAR
STARTCHAR Ecircumflex.v
ENCODING 57755
SWIDTH 1000 0
DWIDTH 18 0
BBX 14 20 2 -2
BITMAP
03C0
0C30
13C8
3008
3FF0
200C
6004
EFF4
E804
E9F8
E808
E7C8
E808
E9F0
E9F8
E804
E7F4
E004
FFF8
FFF0
ENDCHAR
STARTCHAR Edieresis.v
ENCODING 57756
SWIDTH 1000 0
DWIDTH 18 0
BBX 14 19 2 -2
BITMAP
1FF8
34A8
7088
7FF0
600C
6004
EFF4
E804
E9F8
E808
E7C8
E808
E9F0
E9F8
E804
E7F4
E004
FFF8
FFF0
ENDCHAR
STARTCHAR Emacron.v
ENCODING 57757
SWIDTH 1000 0
DWIDTH 18 0
BBX 14 19 2 -2
BITMAP
0FF0
13C8
3008
3FF0
200C
6004
EFF4
E804
E9F8
E808
E7C8
E808
E9F0
E9F8
E804
E7F4
E004
FFF8
FFF0
ENDCHAR
STARTCHAR Ebreve.v
ENCODING 57758
SWIDTH 1000 0
DWIDTH 18 0
BBX 14 20 2 -2
BITMAP
0F70
1188
3428
3BD0
3FE0
201C
6004
EFF4
E804
E9F8
E808
E7C8
E808
E9F0
E9F8
E804
E7F4
E004
FFF8
FFF0
ENDCHAR
STARTCHAR Edotaccent.v
ENCODING 57759
SWIDTH 1000 0
DWIDTH 18 0
BBX 14 19 2 -2
BITMAP
07E0
0CA0
0C20
0FC0
303C
6004
EFF4
E804
E9F8
E808
E7C8
E808
E9F0
E9F8
E804
E7F4
E004
FFF8
FFF0
ENDCHAR
STARTCHAR Eogonek.v
ENCODING 57760
SWIDTH 1000 0
DWIDTH 18 0
BBX 14 19 2 -5
BITMAP
1FFC
2004
6FF4
E804
E9F8
E810
EFC8
E808
E9F0
E9F8
E804
E7F4
E024
FFA8
FFA4
0194
03C4
03F8
01E0
ENDCHAR
STARTCHAR Ecaron.v
ENCODING 57761
SWIDTH 1000 0
DWIDTH 18 0
BBX 14 20 2 -2
BITMAP
0E70
1188
33C8
3810
3FE0
201C
6004
EFF4
E804
E9F8
E808
E7C8
E808
E9F0
E9F8
E804
E7F4
E004
FFF8
FFF0
ENDCHAR
STARTCHAR Gcircumflex.v
ENCODING 57762
SWIDTH 1000 0
DWIDTH 18 0
BBX 14 20 2 -2
BITMAP
03C0
0C30
13C8
3008
37F0
3808
2008
27E8
6808
E9F0
E9C0
EA7C
EA84
E994
E814
E414
E3E4
F004
7FF8
3FF0
ENDCHAR
STARTCHAR Gbreve.v
ENCODING 57763
SWIDTH 1000 0
DWIDTH 18 0
BBX 14 20 2 -2
BITMAP
0F70
1188
3428
3BD0
3FE0
3818
1008
27E8
6808
E9F0
E9C0
EA7C
EA84
E994
E814
E414
E3E4
F004
7FF8
3FF0
ENDCHAR
STARTCHAR Gdotaccent.v
ENCODING 57764
SWIDTH 1000 0
DWIDTH 18 0
BBX 14 19 2 -2
BITMAP
07E0
0CA0
0C20
0FC0
0838
1008
27E8
6808
E9F0
E9C0
EA7C
EA84
E994
E814
E414
E3E4
F004
7FF8
3FF0
ENDCHAR
STARTCHAR Gcommaaccent.v
ENCODING 57765
SWIDTH 1000 0
DWIDTH 18 0
BBX 14 22 2 -8
BITMAP
0FF8
1008
27E8
6808
E9F0
E9E0
EA5C
EA84
E994
E994
E814
E7F4
F004
7FF8
3C30
05A0
0C40
0F40
0CA0
0FC0
0F00
0E00
ENDCHAR
STARTCHAR Hcircumflex.v
ENCODING 57766
SWIDTH 1000 0
DWIDTH 18 0
BBX 14 20 2 -2
BITMAP
03C0
0C30
13C8
3008
3FF0
21CC
6284
E994
E994
E994
E814
EFF4
E814
E814
E994
E994
E184
E184
FFF8
F9F0
ENDCHAR
STARTCHAR Igrave.v
ENCODING 57767
SWIDTH 1000 0
DWIDTH 18 0
BBX 14 20 2 -2
BITMAP
0F00
10F0
33C8
3008
3FF0
200C
2004
67F4
E084
FCB8
FCA0
1CA0
1CA0
1CA0
109C
2084
6774
E004
FFF8
FFF0
ENDCHAR
STARTCHAR Iacute.v
ENCODING 57768
SWIDTH 1000 0
DWIDTH 18 0
BBX 14 20 2 -2
BITMAP
00F0
0F08
13C8
3010
3FE0
201C
2004
67F4
E084
FCB8
FCA0
1CA0
1CA0
1CA0
109C
2084
6774
E004
FFF8
FFF0
ENDCHAR
STARTCHAR Icircumflex.v
ENCODING 57769
SWIDTH 1000 0
DWIDTH 18 0
BBX 14 20 2 -2
BITMAP
03C0
0C30
13C8
3008
3FF0
200C
2004
67F4
E084
FCB8
FCA0
1CA0
1CA0
1CA0
109C
2084
6774
E004
FFF8
FFF0
ENDCHAR
STARTCHAR Idieresis.v
ENCODING 57770
SWIDTH 1000 0
DWIDTH 18 0
BBX 14 19 2 -2
BITMAP
1FF8
34A8
7088
7FF0
600C
2004
67F4
E084
FCB8
FCA0
1CA0
1CA0
1CA0
109C
2084
6774
E004
FFF8
FFF0
ENDCHAR
STARTCHAR Itilde.v
ENCODING 57771
SWIDTH 1000 0
DWIDTH 18 0
BBX 14 19 2 -2
BITMAP
0FF0
1390
3050
3FF0
200C
2004
67F4
E084
FCB8
FCA0
1CA0
1CA0
1CA0
109C
2084
6774
E004
FFF8
FFF0
ENDCHAR
STARTCHAR Imacron.v
ENCODING 57772
SWIDTH 1000 0
DWIDTH 18 0
BBX 14 19 2 -2
BITMAP
0FF0
13C8
3008
3FF0
200C
2004
67F4
E084
FCB8
FCA0
1CA0
1CA0
1CA0
109C
2084
6774
E004
FFF8
FFF0
ENDCHAR
STARTCHAR Ibreve.v
ENCODING 57773
SWIDTH 1000 0
DWIDTH 18 0
BBX 14 20 2 -2
BITMAP
0F70
1188
3428
3BD0
3FE0
201C
2004
67F4
E084
FCB8
FCA0
1CA0
1CA0
1CA0
109C
2084
6774
E004
FFF8
FFF0
ENDCHAR
STARTCHAR Iogonek.v
ENCODING 57774
SWIDTH 1000 0
DWIDTH 18 0
BBX 14 19 2 -5
BITMAP
1FFC
2004
67F4
E084
FCB8
FCB0
1CA0
1CA0
1CA0
1CB8
2084
67F4
E024
FFA8
FFA4
0194
03C4
03F8
01E0
ENDCHAR
STARTCHAR Idotaccent.v
ENCODING 57775
SWIDTH 1000 0
DWIDTH 18 0
BBX 14 19 2 -2
BITMAP
07E0
0CA0
0C20
0FC0
303C
2004
67F4
E084
FCB8
FCA0
1CA0
1CA0
1CA0
109C
2084
6774
E004
FFF8
FFF0
ENDCHAR
STARTCHAR Jcircumflex.v
ENCODING 57776
SWIDTH 1000 0
DWIDTH 18 0
BBX 14 21 2 -3
BITMAP
00F0
030C
04F4
0C04
0DFC
0FC4
0884
0194
0194
0194
1F94
2194
6994
E994
E994
E414
E3E4
F008
7FF0
3FC0
0400
ENDCHAR
STARTCHAR Kcommaaccent.v
ENCODING 57777
SWIDTH 1000 0
DWIDTH 18 0
BBX 14 22 2 -8
BITMAP
1E7C
2284
6928
E928
E950
E848
EFC4
E834
E814
E9D4
E9D4
E9D4
E1C4
FFF8
FC30
05A0
0C40
0F40
0CA0
0FC0
0F00
0E00
ENDCHAR
STARTCHAR Lacute.v
ENCODING 57778
SWIDTH 1000 0
DWIDTH 18 0
BBX 14 20 2 -2
BITMAP
01C0
1E20
2FA0
6020
FFC0
E100
E200
EA00
EA00
EA00
EA38
EA44
EAC4
E9D4
E814
E814
E7E4
E004
FFF8
FFF0
ENDCHAR
STARTCHAR Lcommaaccent.v
ENCODING 57779
SWIDTH 1000 0
DWIDTH 18 0
BBX 14 22 2 -8
BITMAP
1E00
2200
6A00
EA00
EA00
EA00
EA7C
EAC4
E9D4
E9D4
E814
E7F4
E004
FFF8
FC30
05A0
0C40
0F40
0CA0
0FC0
0F00
0E00
ENDCHAR
STARTCHAR Lcaron.v
ENCODING 57780
SWIDTH 1000 0
DWIDTH 18 0
BBX 14 16 2 -2
BITMAP
1E3C
2244
6AD4
EAD4
E9C4
E9F8
E9F8
E9C4
EAD4
E9D4
E814
E814
E7E4
E004
FFF8
FFF0
ENDCHAR
STARTCHAR Ntilde.v
ENCODING 57781
SWIDTH 1000 0
DWIDTH 18 0
BBX 14 19 2 -2
BITMAP
0FF0
1390
3050
3FB0
23CC
61C4
E4D4
EA54
E954
E914
E894
E954
E934
E994
E9D4
E1C4
E1C4
FFF8
F9F0
ENDCHAR
STARTCHAR Nacute.v
ENCODING 57782
SWIDTH 1000 0
DWIDTH 18 0
BBX 14 20 2 -2
BITMAP
00F0
0F08
13C8
3010
3FE0
23DC
61C4
E4D4
EA54
E954
E914
E894
E954
E934
E994
E9D4
E1C4
E1C4
FFF8
F9F0
ENDCHAR
STARTCHAR Ncommaaccent.v
ENCODING 57783
SWIDTH 1000 0
DWIDTH 18 0
BBX 14 22 2 -8
BITMAP
1C7C
22C4
6DD4
EA54
EA54
E914
E894
EA54
E934
E994
E994
E9D4
E1C4
FFF8
FE30
05A0
0C40
0F40
0CA0
0FC0
0F00
0E00
ENDCHAR
STARTCHAR Ncaron.v
ENCODING 57784
SWIDTH 1000 0
DWIDTH 18 0
BBX 14 20 2 -2
BITMAP
0E70
1188
33C8
3810
3F60
23DC
61C4
E4D4
EA54
E954
E914
E894
E954
E934
E994
E9D4
E1C4
E1C4
FFF8
F9F0
ENDCHAR
STARTCHAR Ograve.v
ENCODING 57785
SWIDTH 1000 0
DWIDTH 18 0
BBX 14 21 2 -3
BITMAP
0F00
10F0
33C8
3008
3FF0
3818
13C4
2424
6814
E9D4
E9D4
E9D4
E9D4
E9D4
E994
E414
E3E4
F008
7FF0
3FC0
0400
ENDCHAR
STARTCHAR Oacute.v
ENCODING 57786
SWIDTH 1000 0
DWIDTH 18 0
BBX 14 21 2 -3
BITMAP
00F0
0F08
13C8
3010
3FE0
3818
23C4
2424
6814
E9D4
E9D4
E9D4
E9D4
E9D4
E994
E414
E3E4
F008
7FF0
3FC0
0400
ENDCHAR
STARTCHAR Ocircumflex.v
ENCODING 57787
SWIDTH 1000 0
DWIDTH 18 0
BBX 14 21 2 -3
BITMAP
03C0
0C30
13C8
3008
37F0
3818
23C4
2424
6814
E9D4
E9D4
E9D4
E9D4
E9D4
E994
E414
E3E4
F008
7FF0
3FC0
0400
ENDCHAR
STARTCHAR Otilde.v
ENCODING 57788
SWIDTH 1000 0
DWIDTH 18 0
BBX 14 20 2 -3
BITMAP
0FF0
1390
3050
3FF0
3818
23C4
2424
6814
E9D4
E9D4
E9D4
E9D4
E9D4
E994
E414
E3E4
F008
7FF0
3FC0
0400
ENDCHAR
STARTCHAR Odieresis.v
ENCODING 57789
SWIDTH 1000 0
DWIDTH 18 0
BBX 14 20 2 -3
BITMAP
1FF8
34A8
7088
7FF0
7818
23C4
2424
6814
E9D4
E9D4
E9D4
E9D4
E9D4
E994
E414
E3E4
F008
7FF0
3FC0
0400
ENDCHAR
STARTCHAR Omacron.v
ENCODING 57790
SWIDTH 1000 0
DWIDTH 18 0
BBX 14 20 2 -3
BITMAP
0FF0
13C8
3008
3FF0
3818
23C4
2424
6814
E9D4
E9D4
E9D4
E9D4
E9D4
E994
E414
E3E4
F008
7FF0
3FC0
0400
ENDCHAR
STARTCHAR Obreve.v
ENCODING 57791
SWIDTH 1000 0
DWIDTH 18 0
BBX 14 21 2 -3
BITMAP
0F70
1188
3428
3BD0
3FE0
3818
13C4
2424
6814
E9D4
E9D4
E9D4
E9D4
E9D4
E994
E414
E3E4
F008
7FF0
3FC0
0400
ENDCHAR
STARTCHAR Ohungarumlaut.v
ENCODING 57792
SWIDTH 1000 0
DWIDTH 18 0
BBX 14 22 2 -3
BITMAP
07FC
08C8
1AD8
1AA8
3188
3FF0
3818
23C4
2424
6814
E9D4
E9D4
E9D4
E9D4
E9D4
E994
E414
E3E4
F008
7FF0
3FC0
0400
ENDCHAR
STARTCHAR Racute.v
ENCODING 57793
SWIDTH 1000 0
DWIDTH 18 0
BBX 14 20 2 -2
BITMAP
00E0
0F10
13D0
3010
3FE0
2010
6008
EFE8
E828
E9A8
E9A8
E828
EFD4
E814
E9D4
E9D4
E1C4
E1C4
FFF8
F9F0
ENDCHAR
STARTCHAR Rcommaaccent.v
ENCODING 57794
SWIDTH 1000 0
DWIDTH 18 0
BBX 14 22 2 -8
BITMAP
1FF0
2008
6FC8
E828
E9A8
E9A8
E828
E7E4
E814
E994
E9D4
E9D4
E1C4
FFF8
FE30
05A0
0C40
0F40
0CA0
0FC0
0F00
0E00
ENDCHAR
STARTCHAR Rcaron.v
ENCODING 57795
SWIDTH 1000 0
DWIDTH 18 0
BBX 14 20 2 -2
BITMAP
0E70
1188
33C8
3810
3FE0
2010
6008
EFE8
E828
E9A8
E9A8
E828
EFD4
E814
E9D4
E9D4
E1C4
E1C4
FFF8
F9F0
ENDCHAR
STARTCHAR Sacute.v
ENCODING 57796
SWIDTH 1000 0
DWIDTH 18 0
BBX 14 20 2 -2
BITMAP
00F0
0F08
13C8
3010
3FE0
381C
2004
27F4
680C
E9F0
E808
E7E4
E014
FF14
7F94
2014
6FE4
E008
FFF0
FFC0
ENDCHAR
STARTCHAR Scircumflex.v
ENCODING 57797
SWIDTH 1000 0
DWIDTH 18 0
BBX 14 20 2 -2
BITMAP
03C0
0C30
13C8
3008
37F0
380C
2004
27F4
680C
E9F0
E808
E7E4
E014
FF14
7F94
2014
6FE4
E008
FFF0
FFC0
ENDCHAR
STARTCHAR Scedilla.v
ENCODING 57798
SWIDTH 1000 0
DWIDTH 18 0
BBX 14 18 2 -4
BITMAP
0FF8
1004
27F4
6804
E9F8
E808
E784
E074
F814
7F94
2014
6FE4
E108
FD70
F840
1880
1F00
1E00
ENDCHAR
STARTCHAR Scaron.v
ENCODING 57799
SWIDTH 1000 0
DWIDTH 18 0
BBX 14 20 2 -2
BITMAP
0E70
1188
33C8
3810
3FE0
381C
1004
27F4
680C
E9F0
E808
E7E4
E014
FF14
7F94
2014
6FE4
E008
FFF0
FFC0
ENDCHAR
STARTCHAR Scommaaccent.v
ENCODING 57800
SWIDTH 1000 0
DWIDTH 18 0
BBX 14 22 2 -8
BITMAP
0FF8
1004
27F4
6804
E9F8
E808
E784
E074
F814
7F94
2014
6FE4
E008
FFF0
FC20
05A0
0C40
0F40
0CA0
0FC0
0F00
0E00
ENDCHAR
STARTCHAR Tcommaaccent.v
ENCODING 57801
SWIDTH 1000 0
DWIDTH 18 0
BBX 14 20 2 -6
BITMAP
1FFC
2004
6FF4
E084
FCB8
FCB0
0CA0
0CA0
0CA0
0CA0
0C20
0C20
0FE0
0DA0
0C40
0F40
0DA0
0EC0
0F00
0E00
ENDCHAR
STARTCHAR Tcaron.v
ENCODING 57802
SWIDTH 1000 0
DWIDTH 18 0
BBX 14 20 2 -2
BITMAP
0E70
1188
33C8
3810
3FE0
201C
6004
EFF4
E084
FCB8
FCB0
0CA0
0CA0
0CA0
0CA0
0CA0
0C20
0C20
0FC0
0F80
ENDCHAR
STARTCHAR Ugrave.v
ENCODING 57803
SWIDTH 1000 0
DWIDTH 18 0
BBX 14 21 2 -3
BITMAP
0F00
10F0
33C8
3008
3FF0
21CC
61C4
E9D4
E9D4
E9D4
E9D4
E9D4
E9D4
E9D4
E994
E414
E3E4
F008
7FF0
3FC0
0400
ENDCHAR
STARTCHAR Uacute.v
ENCODING 57804
SWIDTH 1000 0
DWIDTH 18 0
BBX 14 21 2 -3
BITMAP
0070
0788
0BE8
1808
3FF0
21DC
62C4
E9D4
E9D4
E9D4
E9D4
E9D4
E9D4
E9D4
E994
E414
E3E4
F008
7FF0
3FC0
0400
ENDCHAR
STARTCHAR Ucircumflex.v
ENCODING 57805
SWIDTH 1000 0
DWIDTH 18 0
BBX 14 21 2 -3
BITMAP
03C0
0C30
13C8
3008
3FF0
21CC
62C4
E9D4
E9D4
E9D4
E9D4
E9D4
E9D4
E9D4
E994
E414
E3E4
F008
7FF0
3FC0
0400
ENDCHAR
STARTCHAR Udieresis.v
ENCODING 57806
SWIDTH 1000 0
DWIDTH 18 0
BBX 14 20 2 -3
BITMAP
1FF8
34A8
7088
7FF0
61CC
61C4
E9D4
E9D4
E9D4
E9D4
E9D4
E9D4
E9D4
E994
E414
E3E4
F008
7FF0
3FC0
0400
ENDCHAR
STARTCHAR Utilde.v
ENCODING 57807
SWIDTH 1000 0
DWIDTH 18 0
BBX 14 20 2 -3
BITMAP
0FF0
1390
3050
3FB0
21CC
61C4
E9D4
E9D4
E9D4
E9D4
E9D4
E9D4
E9D4
E994
E414
E3E4
F008
7FF0
3FC0
0400
ENDCHAR
STARTCHAR Umacron.v
ENCODING 57808
SWIDTH 1000 0
DWIDTH 18 0
BBX 14 20 2 -3
BITMAP
0FF0
13C8
3008
3FF0
21CC
61C4
E9D4
E9D4
E9D4
E9D4
E9D4
E9D4
E9D4
E994
E414
E3E4
F008
7FF0
3FC0
0400
ENDCHAR
STARTCHAR Ubreve.v
ENCODING 57809
SWIDTH 1000 0
DWIDTH 18 0
BBX 14 21 2 -3
BITMAP
0F70
1188
3428
3BD0
3E60
21DC
61C4
E9D4
E9D4
E9D4
E9D4
E9D4
E9D4
E9D4
E994
E414
E3E4
F008
7FF0
3FC0
0400
ENDCHAR
STARTCHAR Uring.v
ENCODING 57810
SWIDTH 1000 0
DWIDTH 18 0
BBX 14 24 2 -3
BITMAP
07E0
0BD0
1428
35A8
35A8
3628
39D0
3E60
21DC
61C4
E9D4
E9D4
E9D4
E9D4
E9D4
E9D4
E9D4
E994
E414
E3E4
F008
7FF0
3FC0
0400
ENDCHAR
STARTCHAR Uhungarumlaut.v
ENCODING 57811
SWIDTH 1000 0
DWIDTH 18 0
BBX 14 22 2 -3
BITMAP
07FC
08C4
1AD8
1AA8
3088
3FF0
21CC
61C4
E9D4
E9D4
E9D4
E9D4
E9D4
E9D4
E9D4
E994
E414
E3E4
F008
7FF0
3FC0
0400
ENDCHAR
STARTCHAR Uogonek.v
ENCODING 57812
SWIDTH 1000 0
DWIDTH 18 0
BBX 14 19 2 -5
BITMAP
1E7C
22C4
69D4
E9D4
E9D4
E9D4
E9D4
E9D4
E9D4
E994
E414
E364
F088
7D70
7D20
1CA0
0E20
0FC0
0F80
ENDCHAR
STARTCHAR Wcircumflex.v
ENCODING 57813
SWIDTH 1000 0
DWIDTH 18 0
BBX 14 20 2 -2
BITMAP
03C0
0C30
13C8
3008
3FF0
23CC
42C4
CACC
CBCC
CA4C
CA2C
CAAC
C94C
E94C
EAD4
EAB4
E584
E188
7FF0
79E0
ENDCHAR
STARTCHAR Wgrave.v
ENCODING 57814
SWIDTH 1000 0
DWIDTH 18 0
BBX 14 20 2 -2
BITMAP
0F00
10F0
33C8
3008
3FF0
23CC
43C4
CACC
CBCC
CA4C
CA2C
CAAC
C94C
E94C
EAD4
EAB4
E584
E188
7FF0
79E0
ENDCHAR
STARTCHAR Wacute.v
ENCODING 57815
SWIDTH 1000 0
DWIDTH 18 0
BBX 14 20 2 -2
BITMAP
00F0
0F08
0BC8
3808
3FF0
23DC
4244
CACC
CBCC
CA4C
CA2C
CAAC
C94C
E94C
EAD4
EAB4
E584
E188
7FF0
79E0
ENDCHAR
STARTCHAR Wdieresis.v
ENCODING 57816
SWIDTH 1000 0
DWIDTH 18 0
BBX 14 19 2 -2
BITMAP
1FF8
34A8
3088
3FF0
23CC
43C4
CACC
CBCC
CA4C
CA2C
CAAC
C94C
E94C
EAD4
EAB4
E584
E188
7FF0
79E0
ENDCHAR
STARTCHAR Yacute.v
ENCODING 57817
SWIDTH 1000 0
DWIDTH 18 0
BBX 14 20 2 -2
BITMAP
0070
0788
0BE8
1808
3FF0
21DC
62C4
E9D4
E9D4
E994
E4A4
F228
F248
7990
3CA0
3CA0
1C20
0C20
0FC0
0F00
ENDCHAR
STARTCHAR Ycircumflex.v
ENCODING 57818
SWIDTH 1000 0
DWIDTH 18 0
BBX 14 20 2 -2
BITMAP
03C0
0C30
13C8
3008
3FF0
21CC
62C4
E9D4
E9D4
E994
E4A4
F228
F248
7990
3CA0
3CA0
1C20
0C20
0FC0
0F00
ENDCHAR
STARTCHAR Ydieresis.v
ENCODING 57819
SWIDTH 1000 0
DWIDTH 18 0
BBX 14 19 2 -2
BITMAP
1FF8
34A8
3088
3FF0
21CC
61C4
E9D4
E9D4
E994
E4A4
F228
F248
7990
3CA0
3CA0
1C20
0C20
0FC0
0F00
ENDCHAR
STARTCHAR Ygrave.v
ENCODING 57820
SWIDTH 1000 0
DWIDTH 18 0
BBX 14 20 2 -2
BITMAP
0F00
10F0
33C8
3008
3FF0
21CC
61C4
E9D4
E9D4
E994
E4A4
F228
F248
7990
3CA0
3CA0
1C20
0C20
0FC0
0F00
ENDCHAR
STARTCHAR Zacute.v
ENCODING 57821
SWIDTH 1000 0
DWIDTH 18 0
BBX 14 20 2 -2
BITMAP
0070
0788
0BE8
1808
3FF0
201C
2004
E7F4
E014
FF24
FE48
0490
0920
1240
24BC
6804
E7F4
E004
FFF8
FFF0
ENDCHAR
STARTCHAR Zdotaccent.v
ENCODING 57822
SWIDTH 1000 0
DWIDTH 18 0
BBX 14 19 2 -2
BITMAP
07E0
0CA0
0C20
0FC0
303C
2004
E7F4
E014
FF24
FE48
0490
0920
1240
24BC
6804
E7F4
E004
FFF8
FFF0
ENDCHAR
STARTCHAR Zcaron.v
ENCODING 57823
SWIDTH 1000 0
DWIDTH 18 0
BBX 14 20 2 -2
BITMAP
0E78
1188
33C8
3810
3FE0
201C
2004
E7F4
E014
FF24
FE48
0490
0920
1240
24BC
6804
E7F4
E004
FFF8
FFF0
ENDCHAR
STARTCHAR AE.v
ENCODING 57824
SWIDTH 1000 0
DWIDTH 18 0
BBX 14 16 2 -2
BITMAP
0FFC
1004
33F4
3444
6558
6944
4B44
C874
CFC4
C858
C844
CB44
C334
C304
FFF8
F7F0
ENDCHAR
STARTCHAR Eth.v
ENCODING 57825
SWIDTH 1000 0
DWIDTH 18 0
BBX 15 16 1 -2
BITMAP
0FF8
1004
37F2
740A
74CA
74EA
646A
6F6A
E46A
F4EA
F40A
741A
73E2
700C
7FF0
7FE0
ENDCHAR
STARTCHAR Oslash.v
ENCODING 57826
SWIDTH 1000 0
DWIDTH 18 0
BBX 14 19 2 -4
BITMAP
007C
0F88
1028
27E4
6854
E954
EB94
EAD4
EAD4
E954
E9D4
EAD4
E614
E3E4
F408
71F0
7FC0
7C00
7000
ENDCHAR
STARTCHAR Thorn.v
ENCODING 57827
SWIDTH 1000 0
DWIDTH 18 0
BBX 14 16 2 -2
BITMAP
1E00
2200
69F0
E808
EFE4
E814
E9D4
E9D4
E994
E814
EFE4
E808
E1F0
E1C0
FE00
F800
ENDCHAR
STARTCHAR Dcroat.v
ENCODING 57828
SWIDTH 1000 0
DWIDTH 18 0
BBX 15 16 1 -2
BITMAP
0FF8
1004
37F2
740A
74CA
74EA
646A
6F6A
E46A
F4EA
F40A
741A
73E2
700C
7FF0
7FE0
ENDCHAR
STARTCHAR Hbar.v
ENCODING 57829
SWIDTH 1000 0
DWIDTH 18 0
BBX 16 16 1 -2
BITMAP
0F3E
1162
74EA
6409
6FFD
E409
F4EA
F40A
740A
77FA
740A
74EA
70E2
70E2
7FFC
7CF8
ENDCHAR
STARTCHAR IJ.v
ENCODING 57830
SWIDTH 1000 0
DWIDTH 18 0
BBX 14 16 2 -2
BITMAP
1E7C
2284
6994
E994
E994
E994
E194
E394
FD94
F994
2614
2034
EFC4
E018
FFE0
FFC0
ENDCHAR
STARTCHAR Ldot.v
ENCODING 57831
SWIDTH 1000 0
DWIDTH 18 0
BBX 14 20 2 -6
BITMAP
1E00
2200
6A00
EA00
EA00
EA00
EA7C
EAC4
E9D4
E9D4
E814
E7F4
E004
FFF8
FE30
0420
0CA0
0C20
0FC0
0F80
ENDCHAR
STARTCHAR Lslash.v
ENCODING 57832
SWIDTH 1000 0
DWIDTH 18 0
BBX 14 16 2 -2
BITMAP
1E00
2200
6A00
EA00
E980
C840
C678
C844
C9D4
E9D4
E814
E814
E7E4
E004
FFF8
FFF0
ENDCHAR
STARTCHAR Eng.v
ENCODING 57833
SWIDTH 1000 0
DWIDTH 18 0
BBX 14 18 2 -4
BITMAP
07F0
1808
27E4
6814
6994
E994
E994
E994
E994
E994
E994
E994
E114
E164
FF08
FF10
07E0
0780
ENDCHAR
STARTCHAR OE.v
ENCODING 57834
SWIDTH 1000 0
DWIDTH 18 0
BBX 14 16 2 -2
BITMAP
0FFC
1004
27F4
4844
CB58
CB44
CB44
CB74
CB44
CB58
C844
E844
E7B4
F004
7FF8
3FF0
ENDCHAR
STARTCHAR Tbar.v
ENCODING 57835
SWIDTH 1000 0
DWIDTH 18 0
BBX 14 16 2 -2
BITMAP
3FFC
6004
EFF4
E084
FCB8
FCB0
0CB0
13E8
3088
3CB0
3CA0
3CA0
0C20
0C20
0FC0
0F00
ENDCHAR
STARTCHAR Germandbls.v
ENCODING 57836
SWIDTH 1000 0
DWIDTH 18 0
BBX 14 16 2 -2
BITMAP
1FF0
2008
6FE8
E828
E928
E928
E944
E934
E914
E9D4
E9D4
E914
E164
E108
FFF0
FFC0
ENDCHAR
STARTCHAR A.salt_v
ENCODING 57837
SWIDTH 1000 0
DWIDTH 18 0
BBX 14 16 2 -2
BITMAP
0FF0
1008
27E4
6814
E9D4
E9D4
E9D4
E814
EFF4
E814
E9D4
E9D4
E1C4
E1C4
FFF8
F9F0
ENDCHAR
STARTCHAR Agrave.salt_v
ENCODING 57838
SWIDTH 1000 0
DWIDTH 18 0
BBX 14 20 2 -2
BITMAP
0F00
10F0
33C8
3008
3FF0
3818
13C4
2424
6814
E9D4
E9D4
E814
E814
EFF4
E814
E9D4
E1C4
E1C4
FFF8
F9F0
ENDCHAR
STARTCHAR Aacute.salt_v
ENCODING 57839
SWIDTH 1000 0
DWIDTH 18 0
BBX 14 20 2 -2
BITMAP
00F0
0F08
13C8
3010
3FE0
3818
23C4
2424
6814
E9D4
E9D4
E814
E814
EFF4
E814
E9D4
E1C4
E1C4
FFF8
F9F0
ENDCHAR
STARTCHAR Acircumflex.salt_v
ENCODING 57840
SWIDTH 1000 0
DWIDTH 18 0
BBX 14 20 2 -2
BITMAP
03C0
0C30
13C8
3008
37F0
3818
23C4
2424
6814
E9D4
E9D4
E814
E814
EFF4
E814
E9D4
E1C4
E1C4
FFF8
F9F0
ENDCHAR
STARTCHAR Atilde.salt_v
ENCODING 57841
SWIDTH 1000 0
DWIDTH 18 0
BBX 14 19 2 -2
BITMAP
0FF0
1390
3050
3FF0
3818
23C4
2424
6814
E9D4
E9D4
E814
E814
EFF4
E814
E9D4
E1C4
E1C4
FFF8
F9F0
ENDCHAR
STARTCHAR Adieresis.salt_v
ENCODING 57842
SWIDTH 1000 0
DWIDTH 18 0
BBX 14 19 2 -2
BITMAP
1FF8
34A8
7088
7FF0
7818
23C4
2424
6814
E9D4
E9D4
E814
E814
EFF4
E814
E9D4
E1C4
E1C4
FFF8
F9F0
ENDCHAR
STARTCHAR Aring.salt_v
ENCODING 57843
SWIDTH 1000 0
DWIDTH 18 0
BBX 14 20 2 -2
BITMAP
07E0
0BD0
1428
35A8
35A8
3238
23C4
2424
6814
E9D4
E9D4
E814
E814
EFF4
E814
E9D4
E1C4
E1C4
FFF8
F9F0
ENDCHAR
STARTCHAR Amacron.salt_v
ENCODING 57844
SWIDTH 1000 0
DWIDTH 18 0
BBX 14 19 2 -2
BITMAP
0FF0
13C8
3008
3FF0
3818
23C4
2424
6814
E9D4
E9D4
E814
E814
EFF4
E814
E9D4
E1C4
E1C4
FFF8
F9F0
ENDCHAR
STARTCHAR Abreve.salt_v
ENCODING 57845
SWIDTH 1000 0
DWIDTH 18 0
BBX 14 20 2 -2
BITMAP
0F70
1188
3428
3BD0
3FE0
3818
13C4
2424
6814
E9D4
E9D4
E814
E814
EFF4
E814
E9D4
E1C4
E1C4
FFF8
F9F0
ENDCHAR
STARTCHAR Aogonek.salt_v
ENCODING 57846
SWIDTH 1000 0
DWIDTH 18 0
BBX 14 19 2 -6
BITMAP
0FF8
13C4
2424
6814
E9D4
E9D4
E814
E814
EFF4
E814
E9D4
E1D4
E1A4
FFA8
F9A4
0194
01FC
01F0
00E0
ENDCHAR
STARTCHAR E.salt_v
ENCODING 57847
SWIDTH 1000 0
DWIDTH 18 0
BBX 14 16 2 -2
BITMAP
0FFC
1004
27F4
6804
69F8
E810
E808
EFC8
E810
E9E0
E81C
E404
E3F4
7004
7FF8
3FF0
ENDCHAR
STARTCHAR Egrave.salt_v
ENCODING 57848
SWIDTH 1000 0
DWIDTH 18 0
BBX 14 20 2 -2
BITMAP
0F00
10F0
33C8
3008
3FF0
380C
1004
27F4
6804
E9F8
E808
E7C8
E808
E9F0
E9F8
E404
E3F4
F004
7FF8
3FF0
ENDCHAR
STARTCHAR Eacute.salt_v
ENCODING 57849
SWIDTH 1000 0
DWIDTH 18 0
BBX 14 20 2 -2
BITMAP
00F0
0F08
13C8
3010
3FE0
381C
2004
27F4
6804
E9F8
E808
E7C8
E808
E9F0
E9F8
E404
E3F4
F004
7FF8
3FF0
ENDCHAR
STARTCHAR Ecircumflex.salt_v
ENCODING 57850
SWIDTH 1000 0
DWIDTH 18 0
BBX 14 20 2 -2
BITMAP
03C0
0C30
13C8
3008
37F0
380C
2004
27F4
6804
E9F8
E808
E7C8
E808
E9F0
E9F8
E404
E3F4
F004
7FF8
3FF0
ENDCHAR
STARTCHAR Edieresis.salt_v
ENCODING 57851
SWIDTH 1000 0
DWIDTH 18 0
BBX 14 19 2 -2
BITMAP
1FF8
34A8
7088
7FF0
780C
3004
27F4
6804
E9F8
E808
E7C8
E808
E9F0
E9F8
E404
E3F4
F004
7FF8
3FF0
ENDCHAR
STARTCHAR Emacron.salt_v
ENCODING 57852
SWIDTH 1000 0
DWIDTH 18 0
BBX 14 19 2 -2
BITMAP
0FF0
13C8
3008
3FF0
380C
2004
27F4
6804
E9F8
E808
E7C8
E808
E9F0
E9F8
E404
E3F4
F004
7FF8
3FF0
ENDCHAR
STARTCHAR Ebreve.salt_v
ENCODING 57853
SWIDTH 1000 0
DWIDTH 18 0
BBX 14 20 2 -2
BITMAP
0F70
1188
3428
3BD0
3FE0
381C
1004
27F4
6804
E9F8
E808
E7C8
E808
E9F0
E9F8
E404
E3F4
F004
7FF8
3FF0
ENDCHAR
STARTCHAR Edotaccent.salt_v
ENCODING 57854
SWIDTH 1000 0
DWIDTH 18 0
BBX 14 19 2 -2
BITMAP
07E0
0CA0
0C20
0FC0
083C
1004
27F4
6804
E9F8
E808
E7C8
E808
E9F0
E9F8
E404
E3F4
F004
7FF8
3FF0
ENDCHAR
STARTCHAR Eogonek.salt_v
ENCODING 57855
SWIDTH 1000 0
DWIDTH 18 0
BBX 14 19 2 -5
BITMAP
0FFC
1004
27F4
6804
69F8
E810
EFC8
E808
E9F0
E9F8
E404
E3F4
F024
7FA8
3FA4
0194
03C4
03F8
01E0
ENDCHAR
STARTCHAR Ecaron.salt_v
ENCODING 57856
SWIDTH 1000 0
DWIDTH 18 0
BBX 14 20 2 -2
BITMAP
0E70
1188
33C8
3810
3FE0
381C
1004
27F4
6804
E9F8
E808
E7C8
E808
E9F0
E9F8
E404
E3F4
F004
7FF8
3FF0
ENDCHAR
STARTCHAR I.salt_v
ENCODING 57857
SWIDTH 1000 0
DWIDTH 18 0
BBX 6 16 6 -2
BITMAP
3C
44
CC
CC
CC
CC
CC
CC
CC
CC
CC
CC
C4
C4
FC
F0
ENDCHAR
STARTCHAR I_I.salt_v
ENCODING 57858
SWIDTH 1000 0
DWIDTH 18 0
BBX 14 16 2 -2
BITMAP
1E7C
2284
6994
E994
E994
E994
E994
E994
E994
E994
E994
E994
E184
E184
FFF8
F9F0
ENDCHAR
STARTCHAR Igrave.salt_v
ENCODING 57859
SWIDTH 1000 0
DWIDTH 18 0
BBX 10 20 4 -2
BITMAP
3C00
43C0
CF40
C040
FF40
F080
1080
3280
3280
3280
3280
3280
3280
3280
3280
3280
3080
3080
3F00
3C00
ENDCHAR
STARTCHAR Iacute.salt_v
ENCODING 57860
SWIDTH 1000 0
DWIDTH 18 0
BBX 10 20 4 -2
BITMAP
0380
3C40
4F40
C040
EF80
F080
F080
3280
3280
3280
3280
3280
3280
3280
3280
3280
3080
3080
3F00
3C00
ENDCHAR
STARTCHAR Icircumflex.salt_v
ENCODING 57861
SWIDTH 1000 0
DWIDTH 18 0
BBX 10 20 4 -2
BITMAP
0F00
30C0
4F40
C040
DFC0
F080
D080
3280
3280
3280
3280
3280
3280
3280
3280
3280
3080
3080
3F00
3C00
ENDCHAR
STARTCHAR Idieresis.salt_v
ENCODING 57862
SWIDTH 1000 0
DWIDTH 18 0
BBX 11 19 3 -2
BITMAP
3FE0
6960
E120
FFE0
F840
7840
1940
1940
1940
1940
1940
1940
1940
1940
1940
1840
1840
1F80
1E00
ENDCHAR
STARTCHAR Itilde.salt_v
ENCODING 57863
SWIDTH 1000 0
DWIDTH 18 0
BBX 10 19 4 -2
BITMAP
3FC0
4E40
C140
FF40
F080
D080
3280
3280
3280
3280
3280
3280
3280
3280
3280
3080
3080
3F00
3C00
ENDCHAR
STARTCHAR Imacron.salt_v
ENCODING 57864
SWIDTH 1000 0
DWIDTH 18 0
BBX 10 19 4 -2
BITMAP
3FC0
4F40
C040
FFC0
F080
F080
3280
3280
3280
3280
3280
3280
3280
3280
3280
3080
3080
3F00
3C00
ENDCHAR
STARTCHAR Ibreve.salt_v
ENCODING 57865
SWIDTH 1000 0
DWIDTH 18 0
BBX 10 20 4 -2
BITMAP
3DC0
4640
D0C0
EF40
FF80
F080
7080
3280
3280
3280
3280
3280
3280
3280
3280
3280
3080
3080
3F00
3C00
ENDCHAR
STARTCHAR Iogonek.salt_v
ENCODING 57866
SWIDTH 1000 0
DWIDTH 18 0
BBX 8 19 5 -6
BITMAP
1F
21
65
65
65
65
65
65
65
65
65
69
69
6A
69
E5
FE
FC
78
ENDCHAR
STARTCHAR Idotaccent.salt_v
ENCODING 57867
SWIDTH 1000 0
DWIDTH 18 0
BBX 6 19 6 -2
BITMAP
7C
CC
C4
FC
C4
C4
CC
CC
CC
CC
CC
CC
CC
CC
CC
C4
C4
FC
F0
ENDCHAR
STARTCHAR L.salt_v
ENCODING 57868
SWIDTH 1000 0
DWIDTH 18 0
BBX 14 16 2 -2
BITMAP
1E00
2200
6A00
EA00
EA00
EA00
EA00
EA00
EA00
EA00
E9FC
E804
E7F4
E004
FFF8
FFF0
ENDCHAR
STARTCHAR Lacute.salt_v
ENCODING 57869
SWIDTH 1000 0
DWIDTH 18 0
BBX 14 20 2 -2
BITMAP
01C0
1E20
2FA0
6020
FFC0
E100
E200
EA00
EA00
EA00
EA00
EA00
EA00
EA00
E9FC
E804
E7F4
E004
FFF8
FFF0
ENDCHAR
STARTCHAR Lcommaaccent.salt_v
ENCODING 57870
SWIDTH 1000 0
DWIDTH 18 0
BBX 14 22 2 -8
BITMAP
1E00
2200
6A00
EA00
EA00
EA00
EA00
EA00
EA00
E9F8
E804
E7F4
E004
FFF8
FC30
05A0
0C40
0F40
0CA0
0FC0
0F00
0E00
ENDCHAR
STARTCHAR Lcaron.salt_v
ENCODING 57871
SWIDTH 1000 0
DWIDTH 18 0
BBX 15 16 2 -2
BITMAP
1E1E
2222
6A6A
EA6A
EAE2
EAFC
EAF8
EAF0
EA00
EA00
E9FC
E804
E7F4
E004
FFF8
FFF0
ENDCHAR
STARTCHAR Ldot.salt_v
ENCODING 57872
SWIDTH 1000 0
DWIDTH 18 0
BBX 14 20 2 -6
BITMAP
1E00
2200
6A00
EA00
EA00
EA00
EA00
EA00
EA00
E9F8
E804
E7F4
E004
FFF8
F870
0840
1940
1840
1F80
1F00
ENDCHAR
STARTCHAR Lslash.salt_v
ENCODING 57873
SWIDTH 1000 0
DWIDTH 18 0
BBX 15 16 1 -2
BITMAP
0F00
1100
3500
7500
75C0
6440
6B40
E440
E480
F500
F4FE
7402
73FA
7002
7FFC
7FF8
ENDCHAR
STARTCHAR L.salt_s_v
ENCODING 57874
SWIDTH 1000 0
DWIDTH 18 0
BBX 14 15 2 -2
BITMAP
3E00
6200
EA00
EA00
EA00
EA00
EA00
EA00
EA00
E9FC
E804
E7F4
E004
FFF8
FFF0
ENDCHAR
STARTCHAR M.salt_v
ENCODING 57875
SWIDTH 1000 0
DWIDTH 18 0
BBX 16 16 1 -2
BITMAP
0FFC
1002
27FD
6845
6A55
EA55
EA55
EA55
EA55
EA55
EA55
EA55
E211
E211
FFFE
FFBC
ENDCHAR
STARTCHAR N.salt_v
ENCODING 57876
SWIDTH 1000 0
DWIDTH 18 0
BBX 14 16 2 -2
BITMAP
0FF0
1008
27E4
6814
E994
E994
E994
E994
E994
E994
E994
E994
E184
E184
FFF8
F9F0
ENDCHAR
STARTCHAR Ntilde.salt_v
ENCODING 57877
SWIDTH 1000 0
DWIDTH 18 0
BBX 14 19 2 -2
BITMAP
0FF0
1390
3050
3FF0
3818
23C4
2424
6814
E994
E994
E994
E994
E994
E994
E994
E184
E184
FFF8
F9F0
ENDCHAR
STARTCHAR Nacute.salt_v
ENCODING 57878
SWIDTH 1000 0
DWIDTH 18 0
BBX 14 20 2 -2
BITMAP
00F0
0F08
13C8
3010
3FE0
3818
23C4
2424
6814
E994
E994
E994
E994
E994
E994
E994
E184
E184
FFF8
F9F0
ENDCHAR
STARTCHAR Ncommaaccent.salt_v
ENCODING 57879
SWIDTH 1000 0
DWIDTH 18 0
BBX 14 20 2 -6
BITMAP
0FF0
1008
27E4
6814
6994
E994
E994
E994
E994
E994
E184
E1C4
FE38
FDA0
0C40
0F40
0DA0
0EC0
0F00
0E00
ENDCHAR
STARTCHAR Ncaron.salt_v
ENCODING 57880
SWIDTH 1000 0
DWIDTH 18 0
BBX 14 20 2 -2
BITMAP
0E70
1188
33C8
3810
3FE0
3818
13C4
2424
6814
E994
E994
E994
E994
E994
E994
E994
E184
E184
FFF8
F9F0
ENDCHAR
STARTCHAR W.salt_v
ENCODING 57881
SWIDTH 1000 0
DWIDTH 18 0
BBX 16 17 1 -3
BITMAP
1FEF
2211
6A55
EA55
EA55
EA55
EA55
EA55
EA55
EA55
EA55
E8C5
E739
7042
7FFC
3FF0
0840
ENDCHAR
STARTCHAR Wcircumflex.salt_v
ENCODING 57882
SWIDTH 1000 0
DWIDTH 18 0
BBX 16 21 1 -3
BITMAP
01E0
0618
09E4
1804
1FF8
2317
6211
EA55
EA55
EA55
EA55
EA55
EA55
EA55
EA55
E8C5
E739
7042
7FFC
7FF0
0840
ENDCHAR
STARTCHAR Wgrave.salt_v
ENCODING 57883
SWIDTH 1000 0
DWIDTH 18 0
BBX 16 21 1 -3
BITMAP
0780
0878
19E4
1804
1FE8
2317
6211
EA55
EA55
EA55
EA55
EA55
EA55
EA55
EA55
E8C5
E739
7042
7FFC
7FF0
0840
ENDCHAR
STARTCHAR Wacute.salt_v
ENCODING 57884
SWIDTH 1000 0
DWIDTH 18 0
BBX 16 21 1 -3
BITMAP
0078
0784
09E4
1808
1DF0
233F
6211
EA55
EA55
EA55
EA55
EA55
EA55
EA55
EA55
E8C5
E739
7042
7FFC
7FF0
0840
ENDCHAR
STARTCHAR Wdieresis.salt_v
ENCODING 57885
SWIDTH 1000 0
DWIDTH 18 0
BBX 16 20 1 -3
BITMAP
0FFC
1A54
3844
3FF8
2317
6211
EA55
EA55
EA55
EA55
EA55
EA55
EA55
EA55
E8C5
E739
7042
7FFC
7FF0
0840
ENDCHAR
STARTCHAR X.salt_v
ENCODING 57886
SWIDTH 1100 0
DWIDTH 20 0
BBX 14 16 3 -2
BITMAP
1E7C
2184
65A8
F5A8
74A8
7228
6244
65A4
E814
E9D4
E9D4
E9D4
E1C4
E3C4
FDF8
F9F0
ENDCHAR
STARTCHAR Y.salt_v
ENCODING 57887
SWIDTH 1000 0
DWIDTH 18 0
BBX 14 16 2 -2
BITMAP
1E7C
22C4
69D4
E9D4
E9D4
E9D4
E894
E414
E3E4
F088
7CB0
3CA0
0C20
0C20
0FC0
0F00
ENDCHAR
STARTCHAR Yacute.salt_v
ENCODING 57888
SWIDTH 1000 0
DWIDTH 18 0
BBX 14 20 2 -2
BITMAP
00F0
0F08
13C8
3010
3FE0
21DC
62C4
E9D4
E9D4
E9D4
E994
E414
E364
F088
7CB0
7CA0
1C20
0C20
0FC0
0F00
ENDCHAR
STARTCHAR Ycircumflex.salt_v
ENCODING 57889
SWIDTH 1000 0
DWIDTH 18 0
BBX 14 20 2 -2
BITMAP
03C0
0C30
13C8
3008
3FF0
21CC
62C4
E9D4
E9D4
E9D4
E994
E414
E364
F088
7CB0
7CA0
1C20
0C20
0FC0
0F00
ENDCHAR
STARTCHAR Ydieresis.salt_v
ENCODING 57890
SWIDTH 1000 0
DWIDTH 18 0
BBX 14 19 2 -2
BITMAP
1FF8
34A8
7088
7FF0
61CC
61C4
E9D4
E9D4
E9D4
E994
E414
E364
F088
7CB0
7CA0
1C20
0C20
0FC0
0F00
ENDCHAR
STARTCHAR Ygrave.salt_v
ENCODING 57891
SWIDTH 1000 0
DWIDTH 18 0
BBX 14 20 2 -2
BITMAP
0F00
10F0
33C8
3008
3FF0
21CC
61C4
E9D4
E9D4
E9D4
E994
E414
E364
F088
7CB0
7CA0
1C20
0C20
0FC0
0F00
ENDCHAR
STARTCHAR AE.salt_v
ENCODING 57892
SWIDTH 1000 0
DWIDTH 18 0
BBX 14 16 2 -2
BITMAP
0FFC
1004
27F4
4844
CB58
CB44
CB44
C874
CFC4
C858
C844
CB44
C334
C304
FFF8
F7F0
ENDCHAR
STARTCHAR IJ.salt_v
ENCODING 57893
SWIDTH 1000 0
DWIDTH 18 0
BBX 14 29 2 -9
BITMAP
07E0
0420
0CA0
0CA0
0CA0
0CA0
0CA0
0CA0
0CA0
0CA0
0CA0
0C20
0C20
0FDC
0F84
0194
0194
0194
1F94
2194
6994
E994
E994
E414
E3E4
F008
7FF0
3FC0
0400
ENDCHAR
STARTCHAR IJ.stack_v
ENCODING 57894
SWIDTH 1000 0
DWIDTH 18 0
BBX 14 30 2 -9
BITMAP
1FFC
2004
67F4
E084
FCB8
FCB0
1CA0
1CA0
1CA0
1CB8
2084
67F4
E004
FFF8
FFF0
004C
0084
0194
0194
0194
1F94
2194
6994
E994
E894
E424
E3C4
F018
7FE0
3FC0
ENDCHAR
STARTCHAR commaaccent.v
ENCODING 57895
SWIDTH 1000 0
DWIDTH 18 0
BBX 6 7 6 -8
BITMAP
7C
DC
C4
F4
CC
F8
F0
ENDCHAR
STARTCHAR hyphen.v
ENCODING 57896
SWIDTH 1000 0
DWIDTH 18 0
BBX 6 9 6 1
BITMAP
3C
44
CC
CC
CC
C4
FC
F8
F0
ENDCHAR
STARTCHAR endash.v
ENCODING 57897
SWIDTH 1000 0
DWIDTH 18 0
BBX 6 14 6 -1
BITMAP
3C
44
CC
CC
CC
CC
CC
CC
CC
CC
C4
C4
F8
F0
ENDCHAR
STARTCHAR emdash.v
ENCODING 57898
SWIDTH 1000 0
DWIDTH 18 0
BBX 6 21 6 -5
BITMAP
7C
44
CC
CC
CC
CC
CC
CC
CC
CC
CC
CC
CC
CC
CC
CC
CC
C4
E4
F8
F0
ENDCHAR
STARTCHAR parenleft.v
ENCODING 57899
SWIDTH 1000 0
DWIDTH 18 0
BBX 18 9 0 1
BITMAP
1FFF80
200040
6FFF40
C800C0
D3FCC0
C3FE40
FFFFC0
F00F80
E00F00
ENDCHAR
STARTCHAR parenright.v
ENCODING 57900
SWIDTH 1000 0
DWIDTH 18 0
BBX 18 9 0 1
BITMAP
3C03C0
440640
CBF8C0
C800C0
E7FF40
E00040
FFFF80
7FFE00
3FF800
ENDCHAR
STARTCHAR bracketleft.v
ENCODING 57901
SWIDTH 1000 0
DWIDTH 18 0
BBX 18 9 0 1
BITMAP
3FFFC0
400040
DFFFC0
D000C0
D3FEC0
C3FE40
FFFFC0
F00F80
E00F00
ENDCHAR
STARTCHAR bracketright.v
ENCODING 57902
SWIDTH 1000 0
DWIDTH 18 0
BBX 18 9 0 1
BITMAP
3C03C0
440640
D3F8C0
D000C0
CFFF40
C00040
FFFFC0
FFFF80
FFFF00
ENDCHAR
STARTCHAR braceleft.v
ENCODING 57903
SWIDTH 1000 0
DWIDTH 18 0
BBX 18 10 0 1
BITMAP
007000
0F8F00
106080
279E40
482140
C820C0
C3FE40
C3FE40
FC0F80
F00F00
ENDCHAR
STARTCHAR braceright.v
ENCODING 57904
SWIDTH 1000 0
DWIDTH 18 0
BBX 18 10 0 1
BITMAP
3C01C0
440240
D3FCC0
C820C0
E79F40
E07040
F80180
7F8E00
3FFC00
03C000
ENDCHAR
STARTCHAR quoteleft.v
ENCODING 57905
SWIDTH 1000 0
DWIDTH 18 0
BBX 8 9 5 2
BITMAP
1F
25
6E
E9
E9
ED
E1
FE
FC
ENDCHAR
STARTCHAR quoteright.v
ENCODING 57906
SWIDTH 1000 0
DWIDTH 18 0
BBX 8 10 5 1
BITMAP
3F
61
ED
E3
FB
E3
ED
66
F8
70
ENDCHAR
STARTCHAR quotedblleft.v
ENCODING 57907
SWIDTH 1000 0
DWIDTH 18 0
BBX 14 9 2 2
BITMAP
1F7C
2494
6FB8
68C4
E8C4
ECB4
E084
FFF8
FFF0
ENDCHAR
STARTCHAR quotedblright.v
ENCODING 57908
SWIDTH 1000 0
DWIDTH 18 0
BBX 14 10 2 1
BITMAP
3FFC
6084
ECB4
E28C
FAEC
E28C
E9B4
6398
7FE0
71C0
ENDCHAR
STARTCHAR quotesinglbase.v
ENCODING 57909
SWIDTH 1000 0
DWIDTH 18 0
BBX 8 10 5 1
BITMAP
1E
21
6D
E3
E3
FB
ED
62
FC
F0
ENDCHAR
STARTCHAR quotedblbase.v
ENCODING 57910
SWIDTH 1000 0
DWIDTH 18 0
BBX 14 10 2 1
BITMAP
3FFC
6084
ECB4
E28C
FAEC
E28C
E9B4
6398
7FE0
71C0
ENDCHAR
STARTCHAR guilsinglleft.v
ENCODING 57911
SWIDTH 1000 0
DWIDTH 18 0
BBX 12 10 3 1
BITMAP
0FC0
1020
37A0
3460
6550
6950
6110
6310
FFE0
FBC0
ENDCHAR
STARTCHAR guilsinglright.v
ENCODING 57912
SWIDTH 1000 0
DWIDTH 18 0
BBX 12 11 3 0
BITMAP
3EF0
2310
E950
E550
6550
74A0
7320
7020
7FC0
3F00
1E00
ENDCHAR
STARTCHAR guillemotleft.v
ENCODING 57913
SWIDTH 1000 0
DWIDTH 18 0
BBX 12 16 3 -2
BITMAP
07C0
0820
13A0
3460
6550
6110
6310
7FE0
F020
17A0
3460
6550
6110
6310
7FE0
F3C0
ENDCHAR
STARTCHAR guillemotright.v
ENCODING 57914
SWIDTH 1000 0
DWIDTH 18 0
BBX 12 15 3 -2
BITMAP
3FF0
6950
E550
74A0
7320
7840
3FF0
2310
E950
E450
74A0
7320
7840
3F80
3F00
ENDCHAR
STARTCHAR period.v
ENCODING 57915
SWIDTH 1000 0
DWIDTH 18 0
BBX 8 8 5 2
BITMAP
1E
21
65
E5
E1
E1
FE
FC
ENDCHAR
STARTCHAR comma.v
ENCODING 57916
SWIDTH 1000 0
DWIDTH 18 0
BBX 8 10 5 1
BITMAP
1E
21
6D
E3
E3
FB
ED
62
FC
F0
ENDCHAR
STARTCHAR ellipsis.v
ENCODING 57917
SWIDTH 1000 0
DWIDTH 18 0
BBX 20 8 -1 2
BITMAP
3E7DF0
418210
C99250
C99250
C18210
C18210
FFFFE0
FBF7C0
ENDCHAR
STARTCHAR exclamdown.v
ENCODING 57918
SWIDTH 1000 0
DWIDTH 18 0
BBX 8 16 5 -2
BITMAP
3F
61
E5
E1
FE
E1
21
65
65
65
65
E5
E1
E1
FE
FC
ENDCHAR
STARTCHAR questiondown.v
ENCODING 57919
SWIDTH 1000 0
DWIDTH 18 0
BBX 12 16 3 -2
BITMAP
03E0
0420
0CA0
0C20
0FE0
0FA0
3020
47A0
C820
C9C0
CBF0
C7F0
E010
F010
FFF0
7FC0
ENDCHAR
STARTCHAR dagger.v
ENCODING 57920
SWIDTH 1000 0
DWIDTH 18 0
BBX 14 16 2 -2
BITMAP
07E0
0420
0CA0
3CBC
6084
EFF4
E084
FEBC
FCB8
ECA0
0CA0
0CA0
0C20
0C20
0FC0
0F00
ENDCHAR
STARTCHAR daggerdbl.v
ENCODING 57921
SWIDTH 1000 0
DWIDTH 18 0
BBX 14 16 2 -2
BITMAP
07E0
1C38
2084
6FF4
E084
FEBC
FCB0
9EBC
2084
6FF4
E084
E084
FC38
FC30
0FC0
0F00
ENDCHAR
STARTCHAR perthousand.v
ENCODING 57922
SWIDTH 1000 0
DWIDTH 18 0
BBX 17 16 1 -2
BITMAP
1F3800
2CC800
52A800
D6D000
D66000
D2A000
CCE600
FD1900
FAFE80
7AD580
16D580
2AD580
22FE80
461100
FFFE00
E7FC00
ENDCHAR
STARTCHAR ampersand.salt_v
ENCODING 57923
SWIDTH 1000 0
DWIDTH 18 0
BBX 14 19 2 -4
BITMAP
03E0
069C
0884
1374
3404
34F8
7410
7A08
25E8
6808
69F0
E81C
EC04
E3F4
F084
7E18
7E30
0FC0
0F80
ENDCHAR
STARTCHAR quoteleft.salt_v
ENCODING 57924
SWIDTH 1000 0
DWIDTH 18 0
BBX 7 8 2 2
BITMAP
1C
2A
6C
72
EA
E2
FC
F0
ENDCHAR
STARTCHAR quoteright.salt_v
ENCODING 57925
SWIDTH 1000 0
DWIDTH 18 0
BBX 7 7 2 2
BITMAP
3E
6E
E6
FC
EC
78
F0
ENDCHAR
STARTCHAR A.s_v
ENCODING 57926
SWIDTH 1000 0
DWIDTH 18 0
BBX 14 15 2 -2
BITMAP
0FF0
0810
13C8
3428
34A8
6594
6994
6814
EFF4
E814
E9D4
E1C4
E1C4
FFF8
F9F0
ENDCHAR
STARTCHAR C.s_v
ENCODING 57927
SWIDTH 1000 0
DWIDTH 18 0
BBX 14 15 2 -2
BITMAP
0FFC
1004
27F4
6804
E9F8
E9E0
EA00
EA00
EA00
E9FC
E404
E3F4
F004
7FF8
3FF0
ENDCHAR
STARTCHAR D.s_v
ENCODING 57928
SWIDTH 1000 0
DWIDTH 18 0
BBX 14 15 2 -2
BITMAP
3FF8
6004
EFE4
E814
E9D4
E9D4
E9D4
E9D4
E9D4
E814
E834
E7C4
E018
FFE0
FFC0
ENDCHAR
STARTCHAR E.s_v
ENCODING 57929
SWIDTH 1000 0
DWIDTH 18 0
BBX 14 15 2 -2
BITMAP
3FFC
6004
EFF4
E804
E9F8
E808
E7C8
E808
E9F0
E9F8
E804
E7F4
E004
FFF8
FFF0
ENDCHAR
STARTCHAR G.s_v
ENCODING 57930
SWIDTH 1000 0
DWIDTH 18 0
BBX 14 15 2 -2
BITMAP
0FF8
1008
27E8
6808
E9F0
E9C0
EA7C
EA84
E994
E814
E414
E3E4
F004
7FF8
3FF0
ENDCHAR
STARTCHAR H.s_v
ENCODING 57931
SWIDTH 1000 0
DWIDTH 18 0
BBX 14 15 2 -2
BITMAP
3E7C
6284
E994
E994
E994
E814
EFF4
E814
E814
E994
E994
E184
E184
FFF8
F9F0
ENDCHAR
STARTCHAR I.s_v
ENCODING 57932
SWIDTH 1000 0
DWIDTH 18 0
BBX 14 15 2 -2
BITMAP
3FFC
2004
67F4
E084
FCB8
FCA0
1CA0
1CA0
1CA0
109C
2084
6774
E004
FFF8
FFF0
ENDCHAR
STARTCHAR J.s_v
ENCODING 57933
SWIDTH 1000 0
DWIDTH 18 0
BBX 14 16 2 -3
BITMAP
007C
0084
0194
0194
0194
1F94
2194
6994
E994
E994
E414
E3E4
F008
7FF0
3FC0
0400
ENDCHAR
STARTCHAR K.s_v
ENCODING 57934
SWIDTH 1000 0
DWIDTH 18 0
BBX 14 15 2 -2
BITMAP
3E7C
6288
E928
E948
E950
E84C
EFE4
E814
E994
E9D4
E9D4
E1C4
E1C4
FFF8
F9F0
ENDCHAR
STARTCHAR L.s_v
ENCODING 57935
SWIDTH 1000 0
DWIDTH 18 0
BBX 14 15 2 -2
BITMAP
3E00
6200
EA00
EA00
EA00
EA38
EA44
EAC4
E9D4
E814
E814
E7E4
E004
FFF8
FFF0
ENDCHAR
STARTCHAR N.s_v
ENCODING 57936
SWIDTH 1000 0
DWIDTH 18 0
BBX 14 15 2 -2
BITMAP
3E7C
61C4
E4D4
EA54
E954
E914
E894
E954
E934
E994
E9D4
E1C4
E1C4
FFF8
F9F0
ENDCHAR
STARTCHAR O.s_v
ENCODING 57937
SWIDTH 1000 0
DWIDTH 18 0
BBX 14 16 2 -3
BITMAP
0FF8
13C4
2424
6814
E9D4
E9D4
E9D4
E9D4
E9D4
E994
E414
E3E4
F008
7FF0
3FC0
0400
ENDCHAR
STARTCHAR R.s_v
ENCODING 57938
SWIDTH 1000 0
DWIDTH 18 0
BBX 14 15 2 -2
BITMAP
3FF0
6008
EFE8
E828
E9A8
E9A8
E828
EFD4
E814
E9D4
E9D4
E1C4
E1C4
FFF8
F9F0
ENDCHAR
STARTCHAR S.s_v
ENCODING 57939
SWIDTH 1000 0
DWIDTH 18 0
BBX 14 15 2 -2
BITMAP
0FFC
1004
27F4
680C
E9F0
E808
E7E4
E014
FF14
7F94
2014
6FE4
E008
FFF0
FFC0
ENDCHAR
STARTCHAR T.s_v
ENCODING 57940
SWIDTH 1000 0
DWIDTH 18 0
BBX 14 15 2 -2
BITMAP
3FFC
6004
EFF4
E084
FCB8
FCB0
0CA0
0CA0
0CA0
0CA0
0CA0
0C20
0C20
0FC0
0F80
ENDCHAR
STARTCHAR U.s_v
ENCODING 57941
SWIDTH 1000 0
DWIDTH 18 0
BBX 14 16 2 -3
BITMAP
3E7C
62C4
E9D4
E9D4
E9D4
E9D4
E9D4
E9D4
E9D4
E994
E414
E3E4
F008
7FF0
3FC0
0400
ENDCHAR
STARTCHAR W.s_v
ENCODING 57942
SWIDTH 1000 0
DWIDTH 18 0
BBX 14 15 2 -2
BITMAP
3E3C
4244
CACC
CBCC
CA4C
CA2C
CAAC
C94C
E94C
EAD4
EAB4
E584
E188
7FF0
79E0
ENDCHAR
STARTCHAR Y.s_v
ENCODING 57943
SWIDTH 1000 0
DWIDTH 18 0
BBX 14 15 2 -2
BITMAP
3E7C
62C4
E9D4
E9D4
E994
E4A4
F228
F248
7990
3CA0
3CA0
1C20
0C20
0FC0
0F00
ENDCHAR
STARTCHAR Z.s_v
ENCODING 57944
SWIDTH 1000 0
DWIDTH 18 0
BBX 14 15 2 -2
BITMAP
3FFC
2004
E7F4
E014
FF24
FE48
0490
0920
1240
24BC
6804
E7F4
E004
FFF8
FFF0
ENDCHAR
STARTCHAR A.salt_s_v
ENCODING 57945
SWIDTH 1000 0
DWIDTH 18 0
BBX 14 15 2 -2
BITMAP
0FF8
13C4
2424
6814
E9D4
E9D4
E814
E814
EFF4
E814
E9D4
E1C4
E1C4
FFF8
F9F0
ENDCHAR
STARTCHAR E.salt_s_v
ENCODING 57946
SWIDTH 1000 0
DWIDTH 18 0
BBX 14 15 2 -2
BITMAP
0FFC
1004
27F4
6804
E9F8
E808
E7C8
E808
E9F0
E9F8
E404
E3F4
F004
7FF8
3FF0
ENDCHAR
STARTCHAR I.salt_s_v
ENCODING 57947
SWIDTH 1000 0
DWIDTH 18 0
BBX 6 15 6 -2
BITMAP
7C
44
CC
CC
CC
CC
CC
CC
CC
CC
CC
C4
C4
FC
F0
ENDCHAR
STARTCHAR N.salt_s_v
ENCODING 57948
SWIDTH 1000 0
DWIDTH 18 0
BBX 14 15 2 -2
BITMAP
0FF8
13C4
2424
6814
E994
E994
E994
E994
E994
E994
E994
E184
E184
FFF8
F9F0
ENDCHAR
STARTCHAR W.salt_s_v
ENCODING 57949
SWIDTH 1000 0
DWIDTH 18 0
BBX 16 16 1 -3
BITMAP
3FFF
6211
EA55
EA55
EA55
EA55
EA55
EA55
EA55
EA55
E8C5
E739
7042
7FFC
7FF0
0840
ENDCHAR
STARTCHAR Y.salt_s_v
ENCODING 57950
SWIDTH 1000 0
DWIDTH 18 0
BBX 14 15 2 -2
BITMAP
3E7C
62C4
E9D4
E9D4
E9D4
E994
E414
E364
F088
7CB0
7CA0
1C20
0C20
0FC0
0F00
ENDCHAR
STARTCHAR uniF6C3
ENCODING 63171
SWIDTH 600 0
DWIDTH 11 0
BBX 7 8 2 -8
BITMAP
3E
4A
C6
FE
E6
EA
7C
F0
ENDCHAR
STARTCHAR fi
ENCODING 64257
SWIDTH 1423 0
DWIDTH 26 0
BBX 24 16 1 -2
BITMAP
3FF3FF
401201
CFD67D
C81E11
CBEF92
CBCF94
C82794
CFA194
C82194
C82194
CBC193
CB027D
C20601
C20E01
FC0FFE
F00FFC
ENDCHAR
STARTCHAR fl
ENCODING 64258
SWIDTH 1513 0
DWIDTH 27 0
BBX 26 16 1 -2
BITMAP
3FF1F000
40121000
CFD65000
C8165000
CBE65000
CBC65000
C82653C0
CFA65440
C8265D40
C8265D40
CBC64140
CB067F40
C2060040
C2060040
FC07FF80
F007FF00
ENDCHAR
STARTCHAR exclam.v
ENCODING 65281
SWIDTH 1000 0
DWIDTH 18 0
BBX 8 16 5 -2
BITMAP
3F
61
E5
E5
E5
E5
E5
61
7E
7E
61
65
E1
E1
FE
F8
ENDCHAR
STARTCHAR quotedbl.v
ENCODING 65282
SWIDTH 1000 0
DWIDTH 18 0
BBX 12 9 3 2
BITMAP
3FF0
4110
C950
C950
C950
CB50
C310
FFF0
FFC0
ENDCHAR
STARTCHAR percent.v
ENCODING 65285
SWIDTH 1000 0
DWIDTH 18 0
BBX 14 16 2 -2
BITMAP
1F1C
2EA4
51D8
D5A8
D5D0
D160
EEB0
FF0C
FD7C
3A6C
1B6C
156C
237C
2384
7FF8
F3E0
ENDCHAR
STARTCHAR ampersand.v
ENCODING 65286
SWIDTH 1000 0
DWIDTH 18 0
BBX 15 16 2 -2
BITMAP
07E0
0810
1390
3410
74E0
7480
7A7E
6542
685A
CBD2
C814
E814
E7E4
F008
FFF0
7FC0
ENDCHAR
STARTCHAR quotesingle.v
ENCODING 65287
SWIDTH 1000 0
DWIDTH 18 0
BBX 8 9 5 2
BITMAP
3F
61
E5
65
65
65
61
7E
7C
ENDCHAR
STARTCHAR asterisk.v
ENCODING 65290
SWIDTH 1000 0
DWIDTH 18 0
BBX 14 13 2 0
BITMAP
03E0
0640
1ED8
22E4
64B4
63C4
7DB8
FA50
12A8
1188
3DF0
7FC0
1980
ENDCHAR
STARTCHAR zero.v
ENCODING 65296
SWIDTH 1000 0
DWIDTH 18 0
BBX 14 17 2 -3
BITMAP
0FF0
1008
27E4
6814
E994
E9D4
E9D4
E9D4
E9D4
E9D4
E994
E414
E3E4
F008
7FF0
3FC0
0400
ENDCHAR
STARTCHAR one.v
ENCODING 65297
SWIDTH 1000 0
DWIDTH 18 0
BBX 14 16 2 -2
BITMAP
1FE0
2020
63A0
60A0
7CA0
7CA0
0CA0
0CA0
0CA0
0CA0
309C
2084
E364
E004
FFF8
FFF0
ENDCHAR
STARTCHAR two.v
ENCODING 65298
SWIDTH 1000 0
DWIDTH 18 0
BBX 14 16 2 -2
BITMAP
1FF8
2004
67E4
6014
7F94
7E14
1864
2788
2810
69E0
E81C
E804
E7F4
E004
FFF8
FFF0
ENDCHAR
STARTCHAR three.v
ENCODING 65299
SWIDTH 1000 0
DWIDTH 18 0
BBX 14 16 2 -2
BITMAP
1FF0
2008
6FC8
E028
FF28
F828
1038
33E4
3014
3FD4
2014
2014
EFE4
E008
FFF0
FFC0
ENDCHAR
STARTCHAR four.v
ENCODING 65300
SWIDTH 1000 0
DWIDTH 18 0
BBX 14 16 2 -2
BITMAP
1E7C
22C4
69D4
E9D4
E9D4
E9D4
E9D4
E814
E7F4
E014
F014
7FD4
3FC4
01C4
01F8
01F0
ENDCHAR
STARTCHAR five.v
ENCODING 65301
SWIDTH 1000 0
DWIDTH 18 0
BBX 14 16 2 -2
BITMAP
1FF8
2004
6FE4
E804
E9F8
E808
E804
E7F4
E014
FFD4
E014
2014
EFE4
E008
FFF0
FFC0
ENDCHAR
STARTCHAR six.v
ENCODING 65302
SWIDTH 1000 0
DWIDTH 18 0
BBX 14 17 2 -3
BITMAP
0FF8
1008
27E8
6808
E9F0
E918
E9C4
E634
E994
E9D4
E994
E814
E7E4
F008
7FF0
3FC0
0400
ENDCHAR
STARTCHAR seven.v
ENCODING 65303
SWIDTH 1000 0
DWIDTH 18 0
BBX 14 16 2 -2
BITMAP
1FFC
2004
6FF4
E014
FF94
FF94
0614
0864
1B84
1A18
3A60
3A40
3880
3880
3F00
3E00
ENDCHAR
STARTCHAR eight.v
ENCODING 65304
SWIDTH 1000 0
DWIDTH 18 0
BBX 14 17 2 -3
BITMAP
0FF0
11C8
3628
6498
6598
7598
7C28
67E4
6814
E9D4
E9D4
E814
E7E4
F008
7FF0
3FC0
0400
ENDCHAR
STARTCHAR nine.v
ENCODING 65305
SWIDTH 1000 0
DWIDTH 18 0
BBX 14 16 2 -2
BITMAP
0FF0
1188
2664
6814
E9D4
E9D4
E814
E7F4
F014
FFD4
7014
1014
33E4
3018
3FE0
3FC0
ENDCHAR
STARTCHAR colon.v
ENCODING 65306
SWIDTH 1000 0
DWIDTH 18 0
BBX 8 15 5 -1
BITMAP
1E
21
61
E5
E5
E1
FE
FE
21
65
E5
E1
E1
FE
FC
ENDCHAR
STARTCHAR semicolon.v
ENCODING 65307
SWIDTH 1000 0
DWIDTH 18 0
BBX 8 16 5 -2
BITMAP
1E
21
65
E5
E1
E1
FE
E1
61
EF
E3
FB
ED
62
FC
F8
ENDCHAR
STARTCHAR question.v
ENCODING 65311
SWIDTH 1000 0
DWIDTH 18 0
BBX 12 16 3 -2
BITMAP
7FE0
4010
CFD0
C030
FF30
F830
10D0
7710
7020
7FC0
7080
7480
7080
7180
7E00
7C00
ENDCHAR
STARTCHAR A.v
ENCODING 65313
SWIDTH 1000 0
DWIDTH 18 0
BBX 14 16 2 -2
BITMAP
07E0
0810
13D0
3228
34A8
25A4
6594
6814
6FF4
E814
E814
E9D4
E1C4
E1C4
FFF8
F9F0
ENDCHAR
STARTCHAR B.v
ENCODING 65314
SWIDTH 1000 0
DWIDTH 18 0
BBX 14 16 2 -2
BITMAP
3FE0
2010
6FC8
E828
E9A8
E9A8
E838
EFE4
E814
E9D4
E9D4
E814
E7E4
E008
FFF0
FFC0
ENDCHAR
STARTCHAR C.v
ENCODING 65315
SWIDTH 1000 0
DWIDTH 18 0
BBX 14 16 2 -2
BITMAP
0FFC
1004
27F4
6804
69F8
E9F0
EA00
EA00
EA00
EA00
E9FC
E404
E3F4
F004
7FF8
3FF0
ENDCHAR
STARTCHAR D.v
ENCODING 65316
SWIDTH 1000 0
DWIDTH 18 0
BBX 14 16 2 -2
BITMAP
1FF0
2008
6FE4
E814
E9D4
E9D4
E9D4
E9D4
E9D4
E9D4
E814
E834
E7C4
E018
FFE0
FFC0
ENDCHAR
STARTCHAR E.v
ENCODING 65317
SWIDTH 1000 0
DWIDTH 18 0
BBX 14 16 2 -2
BITMAP
1FFC
2004
6FF4
E804
E9F8
E810
E808
EFC8
E810
E9E0
E81C
E804
E7F4
E004
FFF8
FFF0
ENDCHAR
STARTCHAR F.v
ENCODING 65318
SWIDTH 1000 0
DWIDTH 18 0
BBX 14 16 2 -2
BITMAP
3FFC
2004
6FF4
E804
E9F8
E9F0
E808
EFC8
E808
E810
E9E0
E9C0
E200
E200
FC00
F800
ENDCHAR
STARTCHAR G.v
ENCODING 65319
SWIDTH 1000 0
DWIDTH 18 0
BBX 14 16 2 -2
BITMAP
0FF8
1008
27E8
6808
E9F0
E9E0
EA38
EA44
EA84
E994
E814
E414
E3E4
F004
7FF8
3FF0
ENDCHAR
STARTCHAR H.v
ENCODING 65320
SWIDTH 1000 0
DWIDTH 18 0
BBX 14 16 2 -2
BITMAP
1E7C
2284
6994
E994
E994
E814
E814
EFF4
E814
E994
E994
E994
E184
E184
FFF8
F9F0
ENDCHAR
STARTCHAR I.v
ENCODING 65321
SWIDTH 1000 0
DWIDTH 18 0
BBX 14 16 2 -2
BITMAP
1FFC
2004
67F4
E084
FCB8
FCB0
1CA0
1CA0
1CA0
1CA0
109C
2084
6774
E004
FFF8
FFF0
ENDCHAR
STARTCHAR J.v
ENCODING 65322
SWIDTH 1000 0
DWIDTH 18 0
BBX 14 17 2 -3
BITMAP
007C
0084
0194
0194
0194
0194
1F94
2194
6994
E994
E994
E414
E3E4
F008
7FF0
3FC0
0600
ENDCHAR
STARTCHAR K.v
ENCODING 65323
SWIDTH 1000 0
DWIDTH 18 0
BBX 14 16 2 -2
BITMAP
1E7C
2284
69A8
E928
E950
E858
E884
EF64
E814
E9D4
E9D4
E9D4
E1C4
E1C4
FFF8
F9F0
ENDCHAR
STARTCHAR L.v
ENCODING 65324
SWIDTH 1000 0
DWIDTH 18 0
BBX 14 16 2 -2
BITMAP
1E00
2200
6A00
EA00
EA00
EA00
EA38
EA44
EAD4
E9D4
E814
E814
E7E4
E004
FFF8
FFF0
ENDCHAR
STARTCHAR M.v
ENCODING 65325
SWIDTH 1000 0
DWIDTH 18 0
BBX 14 16 2 -2
BITMAP
3E3C
4244
CDB4
CAB4
CA54
CA54
C994
CA54
CA54
CA54
CBD4
CBD4
C3C4
C3C4
FDF8
F1F0
ENDCHAR
STARTCHAR N.v
ENCODING 65326
SWIDTH 1000 0
DWIDTH 18 0
BBX 14 16 2 -2
BITMAP
1C7C
22C4
69D4
ECD4
EA54
E914
E894
EA54
E934
E914
E994
E9D4
E1C4
E1C4
FFF8
F9F0
ENDCHAR
STARTCHAR O.v
ENCODING 65327
SWIDTH 1000 0
DWIDTH 18 0
BBX 14 17 2 -3
BITMAP
0FF0
1008
27E4
6814
E9D4
E9D4
E9D4
E9D4
E9D4
E9D4
E994
E414
E3E4
F008
7FF0
3FC0
0400
ENDCHAR
STARTCHAR P.v
ENCODING 65328
SWIDTH 1000 0
DWIDTH 18 0
BBX 14 16 2 -2
BITMAP
1FF0
2008
6FE4
E814
E9D4
E9D4
E9D4
E814
E7E4
E808
E9F0
E9C0
E200
E200
FC00
F800
ENDCHAR
STARTCHAR Q.v
ENCODING 65329
SWIDTH 1000 0
DWIDTH 18 0
BBX 14 18 2 -4
BITMAP
0FF0
1008
27E4
6814
E9D4
E9D4
E9D4
E9D4
E9D4
E9D4
E994
E414
E3E4
F098
7C20
3C60
0F80
0F00
ENDCHAR
STARTCHAR R.v
ENCODING 65330
SWIDTH 1000 0
DWIDTH 18 0
BBX 14 16 2 -2
BITMAP
1FF0
2008
6FC8
E828
E9A8
E9A8
E828
EFE4
E814
E814
E9D4
E9D4
E1C4
E1C4
FFF8
F9F0
ENDCHAR
STARTCHAR S.v
ENCODING 65331
SWIDTH 1000 0
DWIDTH 18 0
BBX 14 16 2 -2
BITMAP
0FF8
1004
27F4
6804
E9F8
E830
E408
E3E4
F014
7F94
6014
2014
EFE4
E008
FFF0
FFC0
ENDCHAR
STARTCHAR T.v
ENCODING 65332
SWIDTH 1000 0
DWIDTH 18 0
BBX 14 16 2 -2
BITMAP
1FFC
2004
6FF4
E084
FCB8
FCB0
0CA0
0CA0
0CA0
0CA0
0CA0
0CA0
0C20
0C20
0FC0
0F80
ENDCHAR
STARTCHAR U.v
ENCODING 65333
SWIDTH 1000 0
DWIDTH 18 0
BBX 14 17 2 -3
BITMAP
1E7C
22C4
69D4
E9D4
E9D4
E9D4
E9D4
E9D4
E9D4
E9D4
E994
E414
E3E4
F008
7FF0
3FC0
0400
ENDCHAR
STARTCHAR V.v
ENCODING 65334
SWIDTH 1000 0
DWIDTH 18 0
BBX 14 16 2 -2
BITMAP
1E7C
22C4
E9D4
E9D4
E9D4
E9D4
E9D4
E994
E594
F4A4
7228
7248
7990
3810
3FE0
3FC0
ENDCHAR
STARTCHAR W.v
ENCODING 65335
SWIDTH 1000 0
DWIDTH 18 0
BBX 14 16 2 -2
BITMAP
3E3C
4244
CACC
CACC
CBCC
CA4C
CA2C
CAAC
C94C
E94C
EAD4
EAB4
E584
E188
7FF0
79E0
ENDCHAR
STARTCHAR X.v
ENCODING 65336
SWIDTH 1100 0
DWIDTH 20 0
BBX 14 16 3 -2
BITMAP
3E7C
2284
E994
E994
E4A4
F228
7BD0
7248
3428
24A4
6994
6994
E184
E184
FFF8
F9F0
ENDCHAR
STARTCHAR Y.v
ENCODING 65337
SWIDTH 1000 0
DWIDTH 18 0
BBX 14 16 2 -2
BITMAP
1E7C
2244
E9D4
E9D4
E9D4
E994
E4A4
F228
7348
7890
3CA0
1CA0
1C20
0C20
0FC0
0F00
ENDCHAR
STARTCHAR Z.v
ENCODING 65338
SWIDTH 1000 0
DWIDTH 18 0
BBX 14 16 2 -2
BITMAP
1FFC
2004
67F4
E014
FF24
FE48
0490
0920
1240
1440
24BC
6804
E7F4
E004
FFF8
FFF0
ENDCHAR
STARTCHAR uni2B24.salt_v
ENCODING 65339
SWIDTH 1280 0
DWIDTH 23 0
BBX 21 20 1 -3
BITMAP
0FFF80
1FFFC0
3FFFE0
3FFFE0
7FFFF0
7FFFF0
7FFFF0
7FFFF8
FFFFF8
FFFFF8
FFFFF8
FFFFF8
FFFFF8
7FFFF0
7FFFF0
7FFFF0
3FFFE0
3FFFE0
1FFFC0
0FFF80
ENDCHAR
STARTCHAR uni25DD.curve_v
ENCODING 65340
SWIDTH 1280 0
DWIDTH 23 0
BBX 19 20 2 -3
BITMAP
07FFE0
1FFFE0
3FFFE0
7FFFE0
7FFFE0
FFFFE0
FFFFE0
FFFFE0
FFFFE0
FFFFE0
FFFFE0
FFFFE0
FFFFE0
FFFFE0
FFFFE0
FFFFE0
FFFFE0
FFFFE0
FFFFE0
FFFFE0
ENDCHAR
STARTCHAR uni2B1B.trapezoid_e_v
ENCODING 65341
SWIDTH 1280 0
DWIDTH 23 0
BBX 19 22 2 -3
BITMAP
C00000
FE0000
FFF000
FFFF00
FFFFE0
FFFFE0
FFFFE0
FFFFE0
FFFFE0
FFFFE0
FFFFE0
FFFFE0
FFFFE0
FFFFE0
FFFFE0
FFFFE0
FFFFE0
FFFFE0
FFFFE0
FFFFE0
FFFFE0
FFFFE0
ENDCHAR
STARTCHAR uni2B1B.trapezoid_w_v
ENCODING 65342
SWIDTH 1280 0
DWIDTH 23 0
BBX 19 22 2 -5
BITMAP
FFFFE0
FFFFE0
FFFFE0
FFFFE0
FFFFE0
FFFFE0
FFFFE0
FFFFE0
FFFFE0
FFFFE0
FFFFE0
FFFFE0
FFFFE0
FFFFE0
FFFFE0
FFFFE0
FFFFE0
FFFFE0
FFFFE0
FFFC00
FF8000
F00000
ENDCHAR
STARTCHAR .notdef
ENCODING -1
SWIDTH 1100 0
DWIDTH 20 0
BBX 17 17 1 -3
BITMAP
3FFF80
6FFF80
EFFF80
F00380
F00380
F00380
F00380
F00380
F00380
F00380
F00380
F00380
F00380
F00380
EFFC80
FFFF00
FFFE00
ENDCHAR
STARTCHAR one.sups
ENCODING -1
SWIDTH 557 0
DWIDTH 10 0
BBX 10 12 0 2
BITMAP
1F00
2D00
6300
7B00
7B00
3B00
3B00
3AC0
2F40
6040
FF80
FF00
ENDCHAR
STARTCHAR two.sups
ENCODING -1
SWIDTH 585 0
DWIDTH 11 0
BBX 10 12 0 2
BITMAP
1FC0
2F40
60C0
7EC0
7340
2C40
6980
6BC0
EFC0
E040
FF80
FF00
ENDCHAR
STARTCHAR three.sups
ENCODING -1
SWIDTH 584 0
DWIDTH 11 0
BBX 10 12 0 2
BITMAP
3F80
2E40
6140
FD40
F180
1740
3EC0
20C0
6F40
6040
FF80
FE00
ENDCHAR
STARTCHAR four.sups
ENCODING -1
SWIDTH 620 0
DWIDTH 11 0
BBX 10 12 0 2
BITMAP
3DC0
6240
EAC0
EAC0
EAC0
E8C0
E7C0
F0C0
FEC0
7E40
07C0
0700
ENDCHAR
ENDFONT
